999
dxfrw 0.6.3
  0
SECTION
  2
HEADER
  9
$ACADVER
  1
AC1021
  9
$DWGCODEPAGE
  3
ANSI_1252
  9
$INSBASE
 10
0
 20
0
 30
0
  9
$EXTMIN
 10
-0.84
 20
-0.84
 30
0
  9
$EXTMAX
 10
115.1157328942078
 20
49.21015684112732
 30
0
  9
$LIMMIN
 10
0
 20
0
  9
$LIMMAX
 10
12
 20
9
  9
$ORTHOMODE
 70
    0
  9
$REGENMODE
 70
    1
  9
$FILLMODE
 70
    1
  9
$QTEXTMODE
 70
    0
  9
$MIRRTEXT
 70
    1
  9
$LTSCALE
 40
1
  9
$ATTMODE
 70
    1
  9
$TEXTSIZE
 40
1
  9
$TRACEWID
 40
0.05
  9
$TEXTSTYLE
  7
STANDARD
  9
$CLAYER
  8
0
  9
$CELTYPE
  6
ByBlock
  9
$CECOLOR
 62
  256
  9
$CELTSCALE
 40
1
  9
$DISPSILH
 70
    0
  9
$DIMSCALE
 40
1
  9
$DIMASZ
 40
0.18
  9
$DIMEXO
 40
0.0625
  9
$DIMDLI
 40
0.38
  9
$DIMRND
 40
0
  9
$DIMDLE
 40
0
  9
$DIMEXE
 40
0.18
  9
$DIMTP
 40
0
  9
$DIMTM
 40
0
  9
$DIMTXT
 40
0.18
  9
$DIMCEN
 40
0.09
  9
$DIMTSZ
 40
0
  9
$DIMTOL
 70
    0
  9
$DIMLIM
 70
    0
  9
$DIMTIH
 70
    1
  9
$DIMTOH
 70
    1
  9
$DIMSE1
 70
    0
  9
$DIMSE2
 70
    0
  9
$DIMTAD
 70
    0
  9
$DIMZIN
 70
    0
  9
$DIMBLK
  1

  9
$DIMASO
 70
    1
  9
$DIMSHO
 70
    1
  9
$DIMPOST
  1

  9
$DIMAPOST
  1

  9
$DIMALT
 70
    0
  9
$DIMALTD
 70
    2
  9
$DIMALTF
 40
25.4
  9
$DIMLFAC
 40
1
  9
$DIMTOFL
 70
    0
  9
$DIMTVP
 40
0
  9
$DIMTIX
 70
    0
  9
$DIMSOXD
 70
    0
  9
$DIMSAH
 70
    0
  9
$DIMBLK1
  1

  9
$DIMBLK2
  1

  9
$DIMSTYLE
  2
Standard
  9
$DIMCLRD
 70
    0
  9
$DIMCLRE
 70
    0
  9
$DIMCLRT
 70
    0
  9
$DIMTFAC
 40
1
  9
$DIMGAP
 40
0.09
  9
$DIMJUST
 70
    0
  9
$DIMSD1
 70
    0
  9
$DIMSD2
 70
    0
  9
$DIMTOLJ
 70
    1
  9
$DIMTZIN
 70
    0
  9
$DIMALTZ
 70
    0
  9
$DIMALTTZ
 70
    0
  9
$DIMUPT
 70
    0
  9
$DIMDEC
 70
    4
  9
$DIMTDEC
 70
    4
  9
$DIMALTU
 70
    2
  9
$DIMALTTD
 70
    2
  9
$DIMTXSTY
  7
STANDARD
  9
$DIMAUNIT
 70
    0
  9
$DIMADEC
 70
    0
  9
$DIMALTRND
 40
0
  9
$DIMAZIN
 70
    0
  9
$DIMDSEP
 70
   46
  9
$DIMATFIT
 70
    3
  9
$DIMFRAC
 70
    0
  9
$DIMLDRBLK
  1

  9
$DIMLUNIT
 70
    2
  9
$DIMLWD
 70
   -2
  9
$DIMLWE
 70
   -2
  9
$DIMTMOVE
 70
    2
  9
$DIMFXL
 40
1
  9
$DIMFXLON
 70
    0
  9
$DIMJOGANG
 40
0.7854
  9
$DIMTFILL
 70
    0
  9
$DIMTFILLCLR
 70
    0
  9
$DIMARCSYM
 70
    0
  9
$DIMLTYPE
  6

  9
$DIMLTEX1
  6

  9
$DIMLTEX2
  6

  9
$LUNITS
 70
    2
  9
$LUPREC
 70
    4
  9
$SKETCHINC
 40
0.1
  9
$FILLETRAD
 40
0.5
  9
$AUNITS
 70
    0
  9
$AUPREC
 70
    0
  9
$MENU
  1
.
  9
$ELEVATION
 40
0
  9
$PELEVATION
 40
0
  9
$THICKNESS
 40
0
  9
$LIMCHECK
 70
    0
  9
$CHAMFERA
 40
0
  9
$CHAMFERB
 40
0
  9
$CHAMFERC
 40
0
  9
$CHAMFERD
 40
0
  9
$SKPOLY
 70
    0
  9
$USRTIMER
 70
    1
  9
$ANGBASE
 50
0
  9
$ANGDIR
 70
    0
  9
$PDMODE
 70
    0
  9
$PDSIZE
 40
0
  9
$PLINEWID
 40
0
  9
$SPLFRAME
 70
    0
  9
$SPLINETYPE
 70
    6
  9
$SPLINESEGS
 70
    8
  9
$HANDSEED
  5
20000
  9
$SURFTAB1
 70
    6
  9
$SURFTAB2
 70
    6
  9
$SURFTYPE
 70
    6
  9
$SURFU
 70
    6
  9
$SURFV
 70
    6
  9
$UCSBASE
  2

  9
$UCSNAME
  2

  9
$UCSORG
 10
0
 20
0
 30
0
  9
$UCSXDIR
 10
1
 20
0
 30
0
  9
$UCSYDIR
 10
0
 20
1
 30
0
  9
$UCSORTHOREF
  2

  9
$UCSORTHOVIEW
 70
    0
  9
$UCSORGTOP
 10
0
 20
0
 30
0
  9
$UCSORGBOTTOM
 10
0
 20
0
 30
0
  9
$UCSORGLEFT
 10
0
 20
0
 30
0
  9
$UCSORGRIGHT
 10
0
 20
0
 30
0
  9
$UCSORGFRONT
 10
0
 20
0
 30
0
  9
$UCSORGBACK
 10
0
 20
0
 30
0
  9
$PUCSBASE
  2

  9
$PUCSNAME
  2

  9
$PUCSORG
 10
0
 20
0
 30
0
  9
$PUCSXDIR
 10
1
 20
0
 30
0
  9
$PUCSYDIR
 10
0
 20
1
 30
0
  9
$PUCSORTHOREF
  2

  9
$PUCSORTHOVIEW
 70
    0
  9
$PUCSORGTOP
 10
0
 20
0
 30
0
  9
$PUCSORGBOTTOM
 10
0
 20
0
 30
0
  9
$PUCSORGLEFT
 10
0
 20
0
 30
0
  9
$PUCSORGRIGHT
 10
0
 20
0
 30
0
  9
$PUCSORGFRONT
 10
0
 20
0
 30
0
  9
$PUCSORGBACK
 10
0
 20
0
 30
0
  9
$USERI1
 70
    0
  9
$USERI2
 70
    0
  9
$USERI3
 70
    0
  9
$USERI4
 70
    0
  9
$USERI5
 70
    0
  9
$USERR1
 40
0
  9
$USERR2
 40
0
  9
$USERR3
 40
0
  9
$USERR4
 40
0
  9
$USERR5
 40
0
  9
$WORLDVIEW
 70
    1
  9
$SHADEDGE
 70
    3
  9
$SHADEDIF
 70
   70
  9
$TILEMODE
 70
    1
  9
$MAXACTVP
 70
   64
  9
$PINSBASE
 10
0
 20
0
 30
0
  9
$PLIMCHECK
 70
    0
  9
$PEXTMIN
 10
1e+20
 20
1e+20
 30
1e+20
  9
$PEXTMAX
 10
-1e+20
 20
-1e+20
 30
-1e+20
  9
$GRIDMODE
 70
    0
  9
$SNAPSTYLE
 70
    0
  9
$PLIMMIN
 10
0
 20
0
  9
$PLIMMAX
 10
0
 20
0
  9
$UNITMODE
 70
    0
  9
$VISRETAIN
 70
    1
  9
$PLINEGEN
 70
    0
  9
$PSLTSCALE
 70
    1
  9
$TREEDEPTH
 70
 3020
  9
$CMLSTYLE
  2
Standard
  9
$CMLJUST
 70
    0
  9
$CMLSCALE
 40
1
  9
$PROXYGRAPHICS
 70
    1
  9
$MEASUREMENT
 70
    0
  9
$CELWEIGHT
370
   -1
  9
$ENDCAPS
280
    0
  9
$JOINSTYLE
280
    0
  9
$LWDISPLAY
290
    0
  9
$INSUNITS
 70
    1
  9
$HYPERLINKBASE
  1

  9
$STYLESHEET
  1

  9
$XEDIT
290
    1
  9
$CEPSNTYPE
380
    0
  9
$PSTYLEMODE
290
    1
  9
$EXTNAMES
290
    1
  9
$PSVPSCALE
 40
0
  9
$OLESTARTUP
290
    0
  9
$SORTENTS
280
  127
  9
$INDEXCTL
280
    0
  9
$HIDETEXT
280
    1
  9
$XCLIPFRAME
290
    0
  9
$HALOGAP
280
    0
  9
$OBSCOLOR
 70
  257
  9
$OBSLTYPE
280
    0
  9
$INTERSECTIONDISPLAY
280
    0
  9
$INTERSECTIONCOLOR
 70
  257
  9
$DIMASSOC
280
    1
  9
$PROJECTNAME
  1

  9
$CAMERADISPLAY
290
    0
  9
$LENSLENGTH
 40
50
  9
$CAMERAHEIGHT
 40
0
  9
$STEPSPERSEC
 40
2
  9
$STEPSIZE
 40
50
  9
$3DDWFPREC
 40
2
  9
$PSOLWIDTH
 40
5
  9
$PSOLHEIGHT
 40
80
  9
$LOFTANG1
 40
1.570796326794897
  9
$LOFTANG2
 40
1.570796326794897
  9
$LOFTMAG1
 40
0
  9
$LOFTMAG2
 40
0
  9
$LOFTPARAM
 70
    7
  9
$LOFTNORMALS
280
    1
  9
$LATITUDE
 40
1
  9
$LONGITUDE
 40
1
  9
$NORTHDIRECTION
 40
0
  9
$TIMEZONE
 70
-8000
  9
$LIGHTGLYPHDISPLAY
280
    1
  9
$TILEMODELIGHTSYNCH
280
    1
  9
$SOLIDHIST
280
    1
  9
$SHOWHIST
280
    1
  9
$DWFFRAME
280
    2
  9
$DGNFRAME
280
    0
  9
$REALWORLDSCALE
290
    1
  9
$INTERFERECOLOR
 62
    1
  9
$CSHADOW
280
    0
  9
$SHADOWPLANELOCATION
 40
0
  0
ENDSEC
  0
SECTION
  2
CLASSES
  0
ENDSEC
  0
SECTION
  2
TABLES
  0
TABLE
  2
VPORT
  5
8
330
0
100
AcDbSymbolTable
 70
    1
  0
VPORT
  5
31
330
2
100
AcDbSymbolTableRecord
100
AcDbViewportTableRecord
  2
*ACTIVE
 70
    0
 10
0
 20
0
 11
1
 21
1
 12
34.53149393459475
 22
28.50604546243932
 13
0
 23
0
 14
10
 24
10
 15
10
 25
10
 16
0
 26
0
 36
1
 17
0
 27
0
 37
0
 40
49.06822612302352
 41
1.864537444933921
 42
50
 43
0
 44
0
 50
0
 51
0
 71
    0
 72
  100
 73
    1
 74
    3
 75
    0
 76
    0
 77
    0
 78
    0
281
    0
 65
    1
110
0
120
0
130
0
111
1
121
0
131
0
112
0
122
1
132
0
 79
    0
146
0
348
10020
 60
    7
 61
    5
292
1
282
    1
141
0
142
0
 63
  250
421
3358443
  0
ENDTAB
  0
TABLE
  2
LTYPE
  5
5
330
0
100
AcDbSymbolTable
 70
    4
  0
LTYPE
  5
14
330
5
100
AcDbSymbolTableRecord
100
AcDbLinetypeTableRecord
  2
ByBlock
 70
    0
  3

 72
   65
 73
    0
 40
0
  0
LTYPE
  5
15
330
5
100
AcDbSymbolTableRecord
100
AcDbLinetypeTableRecord
  2
ByLayer
 70
    0
  3

 72
   65
 73
    0
 40
0
  0
LTYPE
  5
16
330
5
100
AcDbSymbolTableRecord
100
AcDbLinetypeTableRecord
  2
Continuous
 70
    0
  3
Solid line
 72
   65
 73
    0
 40
0
  0
LTYPE
  5
32
330
5
100
AcDbSymbolTableRecord
100
AcDbLinetypeTableRecord
  2
DOT
 70
    0
  3
Dot . . . . . . . . . . . . . . . . . . . . . .
 72
   65
 73
    2
 40
6.35
 49
0
 74
    0
 49
-6.35
 74
    0
  0
LTYPE
  5
33
330
5
100
AcDbSymbolTableRecord
100
AcDbLinetypeTableRecord
  2
DOTTINY
 70
    0
  3
Dot (.15x) .....................................
 72
   65
 73
    2
 40
0.9525
 49
0
 74
    0
 49
-0.9525
 74
    0
  0
LTYPE
  5
34
330
5
100
AcDbSymbolTableRecord
100
AcDbLinetypeTableRecord
  2
DOT2
 70
    0
  3
Dot (.5x) .....................................
 72
   65
 73
    2
 40
3.175
 49
0
 74
    0
 49
-3.175
 74
    0
  0
LTYPE
  5
35
330
5
100
AcDbSymbolTableRecord
100
AcDbLinetypeTableRecord
  2
DOTX2
 70
    0
  3
Dot (2x) .  .  .  .  .  .  .  .  .  .  .  .  .
 72
   65
 73
    2
 40
12.7
 49
0
 74
    0
 49
-12.7
 74
    0
  0
LTYPE
  5
36
330
5
100
AcDbSymbolTableRecord
100
AcDbLinetypeTableRecord
  2
DASHED
 70
    0
  3
Dashed _ _ _ _ _ _ _ _ _ _ _ _ _ _ _ _ _
 72
   65
 73
    2
 40
19.05
 49
12.7
 74
    0
 49
-6.35
 74
    0
  0
LTYPE
  5
37
330
5
100
AcDbSymbolTableRecord
100
AcDbLinetypeTableRecord
  2
DASHEDTINY
 70
    0
  3
Dashed (.15x) _ _ _ _ _ _ _ _ _ _ _ _ _ _ _ _ _
 72
   65
 73
    2
 40
2.8575
 49
1.905
 74
    0
 49
-0.9525
 74
    0
  0
LTYPE
  5
38
330
5
100
AcDbSymbolTableRecord
100
AcDbLinetypeTableRecord
  2
DASHED2
 70
    0
  3
Dashed (.5x) _ _ _ _ _ _ _ _ _ _ _ _ _ _ _ _ _
 72
   65
 73
    2
 40
9.524999999999999
 49
6.35
 74
    0
 49
-3.175
 74
    0
  0
LTYPE
  5
39
330
5
100
AcDbSymbolTableRecord
100
AcDbLinetypeTableRecord
  2
DASHEDX2
 70
    0
  3
Dashed (2x) ____  ____  ____  ____  ____  ___
 72
   65
 73
    2
 40
38.09999999999999
 49
25.4
 74
    0
 49
-12.7
 74
    0
  0
LTYPE
  5
3A
330
5
100
AcDbSymbolTableRecord
100
AcDbLinetypeTableRecord
  2
DASHDOT
 70
    0
  3
Dash dot __ . __ . __ . __ . __ . __ . __ . __
 72
   65
 73
    4
 40
25.4
 49
12.7
 74
    0
 49
-6.35
 74
    0
 49
0
 74
    0
 49
-6.35
 74
    0
  0
LTYPE
  5
3B
330
5
100
AcDbSymbolTableRecord
100
AcDbLinetypeTableRecord
  2
DASHDOTTINY
 70
    0
  3
Dash dot (.15x) _._._._._._._._._._._._._._._.
 72
   65
 73
    4
 40
3.81
 49
1.905
 74
    0
 49
-0.9525
 74
    0
 49
0
 74
    0
 49
-0.9525
 74
    0
  0
LTYPE
  5
3C
330
5
100
AcDbSymbolTableRecord
100
AcDbLinetypeTableRecord
  2
DASHDOT2
 70
    0
  3
Dash dot (.5x) _._._._._._._._._._._._._._._.
 72
   65
 73
    4
 40
12.7
 49
6.35
 74
    0
 49
-3.175
 74
    0
 49
0
 74
    0
 49
-3.175
 74
    0
  0
LTYPE
  5
3D
330
5
100
AcDbSymbolTableRecord
100
AcDbLinetypeTableRecord
  2
DASHDOTX2
 70
    0
  3
Dash dot (2x) ____  .  ____  .  ____  .  ___
 72
   65
 73
    4
 40
50.8
 49
25.4
 74
    0
 49
-12.7
 74
    0
 49
0
 74
    0
 49
-12.7
 74
    0
  0
LTYPE
  5
3E
330
5
100
AcDbSymbolTableRecord
100
AcDbLinetypeTableRecord
  2
DIVIDE
 70
    0
  3
Divide ____ . . ____ . . ____ . . ____ . . ____
 72
   65
 73
    6
 40
31.75
 49
12.7
 74
    0
 49
-6.35
 74
    0
 49
0
 74
    0
 49
-6.35
 74
    0
 49
0
 74
    0
 49
-6.35
 74
    0
  0
LTYPE
  5
3F
330
5
100
AcDbSymbolTableRecord
100
AcDbLinetypeTableRecord
  2
DIVIDETINY
 70
    0
  3
Divide (.15x) __..__..__..__..__..__..__..__.._
 72
   65
 73
    6
 40
4.7625
 49
1.905
 74
    0
 49
-0.9525
 74
    0
 49
0
 74
    0
 49
-0.9525
 74
    0
 49
0
 74
    0
 49
-0.9525
 74
    0
  0
LTYPE
  5
40
330
5
100
AcDbSymbolTableRecord
100
AcDbLinetypeTableRecord
  2
DIVIDE2
 70
    0
  3
Divide (.5x) __..__..__..__..__..__..__..__.._
 72
   65
 73
    6
 40
15.875
 49
6.35
 74
    0
 49
-3.175
 74
    0
 49
0
 74
    0
 49
-3.175
 74
    0
 49
0
 74
    0
 49
-3.175
 74
    0
  0
LTYPE
  5
41
330
5
100
AcDbSymbolTableRecord
100
AcDbLinetypeTableRecord
  2
DIVIDEX2
 70
    0
  3
Divide (2x) ________  .  .  ________  .  .  _
 72
   65
 73
    6
 40
63.5
 49
25.4
 74
    0
 49
-12.7
 74
    0
 49
0
 74
    0
 49
-12.7
 74
    0
 49
0
 74
    0
 49
-12.7
 74
    0
  0
LTYPE
  5
42
330
5
100
AcDbSymbolTableRecord
100
AcDbLinetypeTableRecord
  2
BORDER
 70
    0
  3
Border __ __ . __ __ . __ __ . __ __ . __ __ .
 72
   65
 73
    6
 40
44.45
 49
12.7
 74
    0
 49
-6.35
 74
    0
 49
12.7
 74
    0
 49
-6.35
 74
    0
 49
0
 74
    0
 49
-6.35
 74
    0
  0
LTYPE
  5
43
330
5
100
AcDbSymbolTableRecord
100
AcDbLinetypeTableRecord
  2
BORDERTINY
 70
    0
  3
Border (.15x) __.__.__.__.__.__.__.__.__.__.__.
 72
   65
 73
    6
 40
6.6675
 49
1.905
 74
    0
 49
-0.9525
 74
    0
 49
1.905
 74
    0
 49
-0.9525
 74
    0
 49
0
 74
    0
 49
-0.9525
 74
    0
  0
LTYPE
  5
44
330
5
100
AcDbSymbolTableRecord
100
AcDbLinetypeTableRecord
  2
BORDER2
 70
    0
  3
Border (.5x) __.__.__.__.__.__.__.__.__.__.__.
 72
   65
 73
    6
 40
22.225
 49
6.35
 74
    0
 49
-3.175
 74
    0
 49
6.35
 74
    0
 49
-3.175
 74
    0
 49
0
 74
    0
 49
-3.175
 74
    0
  0
LTYPE
  5
45
330
5
100
AcDbSymbolTableRecord
100
AcDbLinetypeTableRecord
  2
BORDERX2
 70
    0
  3
Border (2x) ____  ____  .  ____  ____  .  ___
 72
   65
 73
    6
 40
88.89999999999999
 49
25.4
 74
    0
 49
-12.7
 74
    0
 49
25.4
 74
    0
 49
-12.7
 74
    0
 49
0
 74
    0
 49
-12.7
 74
    0
  0
LTYPE
  5
46
330
5
100
AcDbSymbolTableRecord
100
AcDbLinetypeTableRecord
  2
CENTER
 70
    0
  3
Center ____ _ ____ _ ____ _ ____ _ ____ _ ____
 72
   65
 73
    4
 40
50.8
 49
31.75
 74
    0
 49
-6.35
 74
    0
 49
6.35
 74
    0
 49
-6.35
 74
    0
  0
LTYPE
  5
47
330
5
100
AcDbSymbolTableRecord
100
AcDbLinetypeTableRecord
  2
CENTERTINY
 70
    0
  3
Center (.15x) ___ _ ___ _ ___ _ ___ _ ___ _ ___
 72
   65
 73
    4
 40
7.619999999999999
 49
4.7625
 74
    0
 49
-0.9525
 74
    0
 49
0.9525
 74
    0
 49
-0.9525
 74
    0
  0
LTYPE
  5
48
330
5
100
AcDbSymbolTableRecord
100
AcDbLinetypeTableRecord
  2
CENTER2
 70
    0
  3
Center (.5x) ___ _ ___ _ ___ _ ___ _ ___ _ ___
 72
   65
 73
    4
 40
28.575
 49
19.05
 74
    0
 49
-3.175
 74
    0
 49
3.175
 74
    0
 49
-3.175
 74
    0
  0
LTYPE
  5
49
330
5
100
AcDbSymbolTableRecord
100
AcDbLinetypeTableRecord
  2
CENTERX2
 70
    0
  3
Center (2x) ________  __  ________  __  _____
 72
   65
 73
    4
 40
101.6
 49
63.5
 74
    0
 49
-12.7
 74
    0
 49
12.7
 74
    0
 49
-12.7
 74
    0
  0
ENDTAB
  0
TABLE
  2
LAYER
  5
2
330
0
100
AcDbSymbolTable
 70
    1
  0
LAYER
  5
10
330
2
100
AcDbSymbolTableRecord
100
AcDbLayerTableRecord
  2
0
 70
    0
 62
    7
  6
CONTINUOUS
370
   -3
390
F
  0
LAYER
  5
4A
330
2
100
AcDbSymbolTableRecord
100
AcDbLayerTableRecord
  2
Cancel
 70
    0
 62
   30
  6
CONTINUOUS
370
   -3
390
F
  0
LAYER
  5
4B
330
2
100
AcDbSymbolTableRecord
100
AcDbLayerTableRecord
  2
Columns
 70
    0
 62
    9
  6
CONTINUOUS
370
   -3
390
F
  0
LAYER
  5
4C
330
2
100
AcDbSymbolTableRecord
100
AcDbLayerTableRecord
  2
Crystal
 70
    0
 62
    4
  6
CONTINUOUS
370
   -3
390
F
  0
LAYER
  5
4D
330
2
100
AcDbSymbolTableRecord
100
AcDbLayerTableRecord
  2
Defpoints
 70
    0
 62
    7
  6
CONTINUOUS
290
0
370
   -3
390
F
  0
LAYER
  5
4E
330
2
100
AcDbSymbolTableRecord
100
AcDbLayerTableRecord
  2
Doors
 70
    0
 62
    3
  6
CONTINUOUS
370
   -3
390
F
  0
LAYER
  5
4F
330
2
100
AcDbSymbolTableRecord
100
AcDbLayerTableRecord
  2
Flooring
 70
    0
 62
    1
  6
CONTINUOUS
370
   -3
390
F
  0
LAYER
  5
50
330
2
100
AcDbSymbolTableRecord
100
AcDbLayerTableRecord
  2
Furniture
 70
    0
 62
    2
  6
CONTINUOUS
370
   -3
390
F
  0
LAYER
  5
51
330
2
100
AcDbSymbolTableRecord
100
AcDbLayerTableRecord
  2
Projection
 70
    0
 62
    5
  6
CONTINUOUS
370
   -3
390
F
  0
LAYER
  5
52
330
2
100
AcDbSymbolTableRecord
100
AcDbLayerTableRecord
  2
Roof
 70
    0
 62
    6
  6
CONTINUOUS
370
   -3
390
F
  0
LAYER
  5
53
330
2
100
AcDbSymbolTableRecord
100
AcDbLayerTableRecord
  2
Walls
 70
    0
 62
    7
  6
CONTINUOUS
370
   -3
390
F
  0
ENDTAB
  0
TABLE
  2
STYLE
  5
3
330
0
100
AcDbSymbolTable
 70
    3
  0
STYLE
  5
54
330
2
100
AcDbSymbolTableRecord
100
AcDbTextStyleTableRecord
  2
Standard
 70
    0
 40
0
 41
1
 50
0
 71
    0
 42
1
  3
txt
  4

  0
ENDTAB
  0
TABLE
  2
VIEW
  5
6
330
0
100
AcDbSymbolTable
 70
    0
  0
ENDTAB
  0
TABLE
  2
UCS
  5
7
330
0
100
AcDbSymbolTable
 70
    0
  0
ENDTAB
  0
TABLE
  2
APPID
  5
9
330
0
100
AcDbSymbolTable
 70
    1
  0
APPID
  5
12
330
9
100
AcDbSymbolTableRecord
100
AcDbRegAppTableRecord
  2
ACAD
 70
    0
  0
APPID
  5
55
330
9
100
AcDbSymbolTableRecord
100
AcDbRegAppTableRecord
  2
LibreCad
 70
    0
  0
ENDTAB
  0
TABLE
  2
DIMSTYLE
  5
A
330
0
100
AcDbSymbolTable
 70
    1
100
AcDbDimStyleTable
 71
    1
  0
DIMSTYLE
105
56
330
A
100
AcDbSymbolTableRecord
100
AcDbDimStyleTableRecord
  2
Standard
 70
    0
 40
1
 41
0.18
 42
0.0625
 43
0.38
 44
0.18
 45
0
 46
0
 47
0
 48
0
 49
1
140
0.18
141
0.09
142
0
143
25.4
144
1
145
0
146
1
147
0.09
148
0
 71
    0
 72
    0
 73
    1
 74
    1
 75
    0
 76
    0
 77
    0
 78
    0
 79
    0
170
    0
171
    2
172
    0
173
    0
174
    0
175
    0
176
    0
177
    0
178
    0
179
    0
271
    4
272
    4
273
    2
274
    2
275
    0
276
    0
277
    2
278
   46
279
    0
280
    0
281
    0
282
    0
283
    1
284
    0
285
    0
286
    0
288
    0
289
    3
340
STANDARD
341

371
   -2
372
   -2
  0
ENDTAB
  0
TABLE
  2
BLOCK_RECORD
  5
1
330
0
100
AcDbSymbolTable
 70
    2
  0
BLOCK_RECORD
  5
1F
330
1
100
AcDbSymbolTableRecord
100
AcDbBlockTableRecord
  2
*Model_Space
 70
    0
280
    1
281
    0
  0
BLOCK_RECORD
  5
1E
330
1
100
AcDbSymbolTableRecord
100
AcDbBlockTableRecord
  2
*Paper_Space
 70
    0
280
    1
281
    0
  0
ENDTAB
  0
ENDSEC
  0
SECTION
  2
BLOCKS
  0
BLOCK
  5
20
330
1F
100
AcDbEntity
  8
0
100
AcDbBlockBegin
  2
*Model_Space
 70
    0
 10
0
 20
0
 30
0
  3
*Model_Space
  1

  0
ENDBLK
  5
21
330
1F
100
AcDbEntity
  8
0
100
AcDbBlockEnd
  0
BLOCK
  5
1C
330
1B
100
AcDbEntity
  8
0
100
AcDbBlockBegin
  2
*Paper_Space
 70
    0
 10
0
 20
0
 30
0
  3
*Paper_Space
  1

  0
ENDBLK
  5
1D
330
1F
100
AcDbEntity
  8
0
100
AcDbBlockEnd
  0
ENDSEC
  0
SECTION
  2
ENTITIES
  0
LINE
  5
57
100
AcDbEntity
  8
Roof
  6
ByLayer
 62
  256
370
   -1
100
AcDbLine
 10
8.859999999999935
 20
39.81015684112732
 11
-0.5399999999999855
 21
39.81015684112732
  0
LINE
  5
58
100
AcDbEntity
  8
Roof
  6
ByLayer
 62
  256
370
   -1
100
AcDbLine
 10
-0.5399999999999855
 20
49.21015684112732
 11
8.859999999999935
 21
49.21015684112732
  0
LINE
  5
59
100
AcDbEntity
  8
Roof
  6
ByLayer
 62
  256
370
   -1
100
AcDbLine
 10
-0.5399999999999855
 20
39.81015684112732
 11
-0.5399999999999855
 21
49.21015684112732
  0
LINE
  5
5A
100
AcDbEntity
  8
Roof
  6
ByLayer
 62
  256
370
   -1
100
AcDbLine
 10
8.859999999999935
 20
39.81015684112732
 11
8.859999999999935
 21
49.21015684112732
  0
LINE
  5
5B
100
AcDbEntity
  8
Roof
  6
ByLayer
 62
  256
370
   -1
100
AcDbLine
 10
23.21000000000003
 20
30.56015684112732
 11
23.21000000000003
 21
43.46015684112732
  0
LINE
  5
5C
100
AcDbEntity
  8
Roof
  6
ByLayer
 62
  256
370
   -1
100
AcDbLine
 10
46.11000000000003
 20
30.56015684112732
 11
46.11000000000005
 21
43.46015684112732
  0
LINE
  5
5D
100
AcDbEntity
  8
Roof
  6
ByLayer
 62
  256
370
   -1
100
AcDbLine
 10
46.11000000000003
 20
30.56015684112732
 11
23.21000000000003
 21
30.56015684112732
  0
LINE
  5
5E
100
AcDbEntity
  8
Roof
  6
ByLayer
 62
  256
370
   -1
100
AcDbLine
 10
46.11000000000005
 20
43.46015684112732
 11
23.21000000000003
 21
43.46015684112732
  0
LINE
  5
5F
100
AcDbEntity
  8
Roof
  6
ByLayer
 62
  256
370
   -1
100
AcDbLine
 10
-0.4399999999999854
 20
39.9101568411272
 11
-0.4399999999999854
 21
49.11015684112732
  0
LINE
  5
60
100
AcDbEntity
  8
Roof
  6
ByLayer
 62
  256
370
   -1
100
AcDbLine
 10
-0.4399999999999854
 20
49.11015684112732
 11
8.759999999999941
 21
49.11015684112732
  0
LINE
  5
61
100
AcDbEntity
  8
Roof
  6
ByLayer
 62
  256
370
   -1
100
AcDbLine
 10
8.759999999999941
 20
39.91015684112729
 11
8.759999999999941
 21
49.11015684112732
  0
LINE
  5
62
100
AcDbEntity
  8
Roof
  6
ByLayer
 62
  256
370
   -1
100
AcDbLine
 10
8.759999999999941
 20
39.91015684112729
 11
-0.4399999999999854
 21
39.9101568411272
  0
LINE
  5
63
100
AcDbEntity
  8
Roof
  6
ByLayer
 62
  256
370
   -1
100
AcDbLine
 10
46.01000000000006
 20
43.36015684112732
 11
23.31000000000004
 21
43.36015684112732
  0
LINE
  5
64
100
AcDbEntity
  8
Roof
  6
ByLayer
 62
  256
370
   -1
100
AcDbLine
 10
23.31000000000004
 20
30.66015684112732
 11
23.31000000000004
 21
43.36015684112732
  0
LINE
  5
65
100
AcDbEntity
  8
Roof
  6
ByLayer
 62
  256
370
   -1
100
AcDbLine
 10
46.01000000000003
 20
30.66015684112729
 11
23.31000000000004
 21
30.66015684112732
  0
LINE
  5
66
100
AcDbEntity
  8
Roof
  6
ByLayer
 62
  256
370
   -1
100
AcDbLine
 10
46.01000000000003
 20
30.66015684112729
 11
46.01000000000006
 21
43.36015684112732
  0
LINE
  5
67
100
AcDbEntity
  8
Roof
  6
ByLayer
 62
  256
370
   -1
100
AcDbLine
 10
4.159999999999971
 20
49.11015684112732
 11
4.159999999999971
 21
39.91015684112729
  0
LINE
  5
68
100
AcDbEntity
  8
Roof
  6
ByLayer
 62
  256
370
   -1
100
AcDbLine
 10
4.159999999999971
 20
49.11015684112732
 11
6.739999999999993
 21
41.59015684112732
  0
LINE
  5
69
100
AcDbEntity
  8
Roof
  6
ByLayer
 62
  256
370
   -1
100
AcDbLine
 10
6.739999999999993
 20
41.59015684112732
 11
4.159999999999971
 21
39.91015684112729
  0
LINE
  5
6A
100
AcDbEntity
  8
Roof
  6
ByLayer
 62
  256
370
   -1
100
AcDbLine
 10
8.759999999999941
 20
39.91015684112729
 11
6.739999999999993
 21
41.59015684112732
  0
LINE
  5
6B
100
AcDbEntity
  8
Roof
  6
ByLayer
 62
  256
370
   -1
100
AcDbLine
 10
6.739999999999993
 20
41.59015684112732
 11
8.759999999999941
 21
49.11015684112732
  0
LINE
  5
6C
100
AcDbEntity
  8
Roof
  6
ByLayer
 62
  256
370
   -1
100
AcDbLine
 10
-0.4399999999999854
 20
49.11015684112732
 11
0.08
 21
42.51015684112732
  0
LINE
  5
6D
100
AcDbEntity
  8
Roof
  6
ByLayer
 62
  256
370
   -1
100
AcDbLine
 10
0.08
 20
42.51015684112732
 11
-0.4399999999999854
 21
39.9101568411272
  0
LINE
  5
6E
100
AcDbEntity
  8
Roof
  6
ByLayer
 62
  256
370
   -1
100
AcDbLine
 10
4.159999999999971
 20
49.11015684112732
 11
0.08
 21
42.51015684112732
  0
LINE
  5
6F
100
AcDbEntity
  8
Roof
  6
ByLayer
 62
  256
370
   -1
100
AcDbLine
 10
0.08
 20
42.51015684112732
 11
4.159999999999964
 21
39.91015684112729
  0
LINE
  5
70
100
AcDbEntity
  8
Roof
  6
ByLayer
 62
  256
370
   -1
100
AcDbLine
 10
0.3432192163647996
 20
43.2882013659428
 11
0.0432192163647997
 21
43.2882013659428
  0
LINE
  5
71
100
AcDbEntity
  8
Roof
  6
ByLayer
 62
  256
370
   -1
100
AcDbLine
 10
0.0432192163647997
 20
43.2882013659428
 11
0.1932192163647996
 21
43.13820136594278
  0
LINE
  5
72
100
AcDbEntity
  8
Roof
  6
ByLayer
 62
  256
370
   -1
100
AcDbLine
 10
0.3432192163647851
 20
43.2882013659428
 11
0.1932192163647996
 21
43.13820136594278
  0
LINE
  5
73
100
AcDbEntity
  8
Roof
  6
ByLayer
 62
  256
370
   -1
100
AcDbLine
 10
-0.3038354270461568
 20
42.66015684112737
 11
-0.3038354270461568
 21
42.36015684112732
  0
LINE
  5
74
100
AcDbEntity
  8
Roof
  6
ByLayer
 62
  256
370
   -1
100
AcDbLine
 10
-0.3038354270461568
 20
42.36015684112732
 11
-0.1538354270461714
 21
42.51015684112732
  0
LINE
  5
75
100
AcDbEntity
  8
Roof
  6
ByLayer
 62
  256
370
   -1
100
AcDbLine
 10
-0.3038354270461568
 20
42.66015684112729
 11
-0.1538354270461714
 21
42.51015684112732
  0
LINE
  5
76
100
AcDbEntity
  8
Roof
  6
ByLayer
 62
  256
370
   -1
100
AcDbLine
 10
0.4638354270461714
 20
42.66015684112729
 11
0.3138354270461859
 21
42.51015684112732
  0
LINE
  5
77
100
AcDbEntity
  8
Roof
  6
ByLayer
 62
  256
370
   -1
100
AcDbLine
 10
0.4638354270461714
 20
42.36015684112732
 11
0.3138354270461859
 21
42.51015684112732
  0
LINE
  5
78
100
AcDbEntity
  8
Roof
  6
ByLayer
 62
  256
370
   -1
100
AcDbLine
 10
0.4638354270461714
 20
42.66015684112737
 11
0.4638354270461714
 21
42.36015684112732
  0
LINE
  5
79
100
AcDbEntity
  8
Roof
  6
ByLayer
 62
  256
370
   -1
100
AcDbLine
 10
0.3432192163647996
 20
41.73211231631192
 11
0.0432192163647997
 21
41.73211231631192
  0
LINE
  5
7A
100
AcDbEntity
  8
Roof
  6
ByLayer
 62
  256
370
   -1
100
AcDbLine
 10
0.0432192163647997
 20
41.73211231631192
 11
0.1932192163647996
 21
41.88211231631189
  0
LINE
  5
7B
100
AcDbEntity
  8
Roof
  6
ByLayer
 62
  256
370
   -1
100
AcDbLine
 10
0.3432192163647851
 20
41.73211231631192
 11
0.1932192163647996
 21
41.88211231631189
  0
LINE
  5
7C
100
AcDbEntity
  8
Roof
  6
ByLayer
 62
  256
370
   -1
100
AcDbLine
 10
6.356164572953822
 20
41.74015684112729
 11
6.356164572953822
 21
41.44015684112729
  0
LINE
  5
7D
100
AcDbEntity
  8
Roof
  6
ByLayer
 62
  256
370
   -1
100
AcDbLine
 10
6.356164572953822
 20
41.44015684112729
 11
6.506164572953801
 21
41.59015684112732
  0
LINE
  5
7E
100
AcDbEntity
  8
Roof
  6
ByLayer
 62
  256
370
   -1
100
AcDbLine
 10
6.356164572953822
 20
41.74015684112729
 11
6.506164572953801
 21
41.59015684112732
  0
LINE
  5
7F
100
AcDbEntity
  8
Roof
  6
ByLayer
 62
  256
370
   -1
100
AcDbLine
 10
7.12383542704615
 20
41.74015684112729
 11
6.973835427046164
 21
41.59015684112732
  0
LINE
  5
80
100
AcDbEntity
  8
Roof
  6
ByLayer
 62
  256
370
   -1
100
AcDbLine
 10
7.12383542704615
 20
41.44015684112729
 11
6.973835427046164
 21
41.59015684112732
  0
LINE
  5
81
100
AcDbEntity
  8
Roof
  6
ByLayer
 62
  256
370
   -1
100
AcDbLine
 10
7.12383542704615
 20
41.74015684112729
 11
7.12383542704615
 21
41.44015684112729
  0
LINE
  5
82
100
AcDbEntity
  8
Roof
  6
ByLayer
 62
  256
370
   -1
100
AcDbLine
 10
6.889999999999964
 20
40.81211231631192
 11
6.739999999999993
 21
40.96211231631189
  0
LINE
  5
83
100
AcDbEntity
  8
Roof
  6
ByLayer
 62
  256
370
   -1
100
AcDbLine
 10
6.889999999999978
 20
40.81211231631192
 11
6.589999999999979
 21
40.81211231631192
  0
LINE
  5
84
100
AcDbEntity
  8
Roof
  6
ByLayer
 62
  256
370
   -1
100
AcDbLine
 10
6.589999999999979
 20
40.81211231631192
 11
6.739999999999993
 21
40.96211231631189
  0
LINE
  5
85
100
AcDbEntity
  8
Roof
  6
ByLayer
 62
  256
370
   -1
100
AcDbLine
 10
6.889999999999964
 20
42.36820136594272
 11
6.739999999999993
 21
42.21820136594269
  0
LINE
  5
86
100
AcDbEntity
  8
Roof
  6
ByLayer
 62
  256
370
   -1
100
AcDbLine
 10
6.889999999999978
 20
42.36820136594272
 11
6.589999999999979
 21
42.36820136594272
  0
LINE
  5
87
100
AcDbEntity
  8
Roof
  6
ByLayer
 62
  256
370
   -1
100
AcDbLine
 10
6.589999999999979
 20
42.36820136594272
 11
6.739999999999993
 21
42.21820136594269
  0
LINE
  5
88
100
AcDbEntity
  8
Roof
  6
ByLayer
 62
  256
370
   -1
100
AcDbLine
 10
23.31000000000004
 20
37.01015684112732
 11
29.90000000000006
 21
37.01015684112732
  0
LINE
  5
89
100
AcDbEntity
  8
Roof
  6
ByLayer
 62
  256
370
   -1
100
AcDbLine
 10
30.66000000000004
 20
30.56015684112732
 11
30.66000000000004
 21
33.74015684112732
  0
LINE
  5
8A
100
AcDbEntity
  8
Roof
  6
ByLayer
 62
  256
370
   -1
100
AcDbLine
 10
29.90000000000006
 20
40.28015684112732
 11
29.90000000000006
 21
33.74015684112732
  0
LINE
  5
8B
100
AcDbEntity
  8
Roof
  6
ByLayer
 62
  256
370
   -1
100
AcDbLine
 10
31.42000000000008
 20
40.28015684112732
 11
31.42000000000007
 21
33.74015684112732
  0
LINE
  5
8C
100
AcDbEntity
  8
Roof
  6
ByLayer
 62
  256
370
   -1
100
AcDbLine
 10
29.90000000000006
 20
40.28015684112732
 11
31.42000000000008
 21
40.28015684112732
  0
LINE
  5
8D
100
AcDbEntity
  8
Roof
  6
ByLayer
 62
  256
370
   -1
100
AcDbLine
 10
29.90000000000006
 20
33.74015684112732
 11
31.42000000000007
 21
33.74015684112732
  0
LINE
  5
8E
100
AcDbEntity
  8
Roof
  6
ByLayer
 62
  256
370
   -1
100
AcDbLine
 10
30.66000000000004
 20
40.28015684112732
 11
30.66000000000004
 21
43.46015684112732
  0
LINE
  5
8F
100
AcDbEntity
  8
Roof
  6
ByLayer
 62
  256
370
   -1
100
AcDbLine
 10
31.42000000000007
 20
37.01015684112732
 11
46.01000000000005
 21
37.01015684112732
  0
LINE
  5
90
100
AcDbEntity
  8
Roof
  6
ByLayer
 62
  256
370
   -1
100
AcDbLine
 10
23.31000000000004
 20
37.01015684112732
 11
24.66000000000004
 21
33.92015684112735
  0
LINE
  5
91
100
AcDbEntity
  8
Roof
  6
ByLayer
 62
  256
370
   -1
100
AcDbLine
 10
24.66000000000004
 20
33.92015684112735
 11
23.31000000000004
 21
30.66015684112732
  0
LINE
  5
92
100
AcDbEntity
  8
Roof
  6
ByLayer
 62
  256
370
   -1
100
AcDbLine
 10
29.90000000000006
 20
37.01015684112732
 11
24.66000000000004
 21
33.92015684112735
  0
LINE
  5
93
100
AcDbEntity
  8
Roof
  6
ByLayer
 62
  256
370
   -1
100
AcDbLine
 10
24.66000000000004
 20
33.92015684112735
 11
30.66000000000004
 21
30.66015684112732
  0
LINE
  5
94
100
AcDbEntity
  8
Roof
  6
ByLayer
 62
  256
370
   -1
100
AcDbLine
 10
24.81000000000002
 20
33.53632141408119
 11
24.51000000000002
 21
33.53632141408119
  0
LINE
  5
95
100
AcDbEntity
  8
Roof
  6
ByLayer
 62
  256
370
   -1
100
AcDbLine
 10
24.51000000000002
 20
33.53632141408119
 11
24.66000000000003
 21
33.68632141408115
  0
LINE
  5
96
100
AcDbEntity
  8
Roof
  6
ByLayer
 62
  256
370
   -1
100
AcDbLine
 10
24.81000000000001
 20
33.53632141408119
 11
24.66000000000003
 21
33.68632141408115
  0
LINE
  5
97
100
AcDbEntity
  8
Roof
  6
ByLayer
 62
  256
370
   -1
100
AcDbLine
 10
24.81000000000001
 20
34.30399226817349
 11
24.66000000000003
 21
34.15399226817355
  0
LINE
  5
98
100
AcDbEntity
  8
Roof
  6
ByLayer
 62
  256
370
   -1
100
AcDbLine
 10
24.51000000000002
 20
34.30399226817349
 11
24.66000000000003
 21
34.15399226817355
  0
LINE
  5
99
100
AcDbEntity
  8
Roof
  6
ByLayer
 62
  256
370
   -1
100
AcDbLine
 10
24.81000000000002
 20
34.30399226817349
 11
24.51000000000002
 21
34.30399226817349
  0
LINE
  5
9A
100
AcDbEntity
  8
Roof
  6
ByLayer
 62
  256
370
   -1
100
AcDbLine
 10
24.27616457295387
 20
34.07015684112732
 11
24.27616457295387
 21
33.77015684112732
  0
LINE
  5
9B
100
AcDbEntity
  8
Roof
  6
ByLayer
 62
  256
370
   -1
100
AcDbLine
 10
24.27616457295387
 20
33.77015684112732
 11
24.42616457295386
 21
33.92015684112735
  0
LINE
  5
9C
100
AcDbEntity
  8
Roof
  6
ByLayer
 62
  256
370
   -1
100
AcDbLine
 10
24.27616457295387
 20
34.07015684112732
 11
24.42616457295386
 21
33.92015684112735
  0
LINE
  5
9D
100
AcDbEntity
  8
Roof
  6
ByLayer
 62
  256
370
   -1
100
AcDbLine
 10
25.0438354270462
 20
34.07015684112732
 11
24.89383542704622
 21
33.92015684112735
  0
LINE
  5
9E
100
AcDbEntity
  8
Roof
  6
ByLayer
 62
  256
370
   -1
100
AcDbLine
 10
25.0438354270462
 20
33.77015684112732
 11
24.89383542704622
 21
33.92015684112735
  0
LINE
  5
9F
100
AcDbEntity
  8
Roof
  6
ByLayer
 62
  256
370
   -1
100
AcDbLine
 10
25.0438354270462
 20
34.07015684112732
 11
25.0438354270462
 21
33.77015684112732
  0
LINE
  5
A0
100
AcDbEntity
  8
Roof
  6
ByLayer
 62
  256
370
   -1
100
AcDbLine
 10
23.31000000000004
 20
43.36015684112732
 11
24.66000000000004
 21
41.59015684112742
  0
LINE
  5
A1
100
AcDbEntity
  8
Roof
  6
ByLayer
 62
  256
370
   -1
100
AcDbLine
 10
24.66000000000004
 20
41.59015684112742
 11
23.31000000000004
 21
37.01015684112732
  0
LINE
  5
A2
100
AcDbEntity
  8
Roof
  6
ByLayer
 62
  256
370
   -1
100
AcDbLine
 10
30.66000000000004
 20
43.36015684112732
 11
24.66000000000004
 21
41.59015684112742
  0
LINE
  5
A3
100
AcDbEntity
  8
Roof
  6
ByLayer
 62
  256
370
   -1
100
AcDbLine
 10
24.66000000000004
 20
41.59015684112742
 11
29.90000000000006
 21
37.01015684112732
  0
LINE
  5
A4
100
AcDbEntity
  8
Roof
  6
ByLayer
 62
  256
370
   -1
100
AcDbLine
 10
24.81000000000002
 20
41.20632141408122
 11
24.51000000000002
 21
41.20632141408122
  0
LINE
  5
A5
100
AcDbEntity
  8
Roof
  6
ByLayer
 62
  256
370
   -1
100
AcDbLine
 10
24.51000000000002
 20
41.20632141408122
 11
24.66000000000003
 21
41.35632141408121
  0
LINE
  5
A6
100
AcDbEntity
  8
Roof
  6
ByLayer
 62
  256
370
   -1
100
AcDbLine
 10
24.81000000000001
 20
41.20632141408122
 11
24.66000000000003
 21
41.35632141408121
  0
LINE
  5
A7
100
AcDbEntity
  8
Roof
  6
ByLayer
 62
  256
370
   -1
100
AcDbLine
 10
24.81000000000001
 20
41.97399226817349
 11
24.66000000000003
 21
41.82399226817349
  0
LINE
  5
A8
100
AcDbEntity
  8
Roof
  6
ByLayer
 62
  256
370
   -1
100
AcDbLine
 10
24.51000000000002
 20
41.97399226817349
 11
24.66000000000003
 21
41.82399226817349
  0
LINE
  5
A9
100
AcDbEntity
  8
Roof
  6
ByLayer
 62
  256
370
   -1
100
AcDbLine
 10
24.81000000000002
 20
41.97399226817349
 11
24.51000000000002
 21
41.97399226817349
  0
LINE
  5
AA
100
AcDbEntity
  8
Roof
  6
ByLayer
 62
  256
370
   -1
100
AcDbLine
 10
25.0438354270462
 20
41.74015684112729
 11
25.0438354270462
 21
41.44015684112729
  0
LINE
  5
AB
100
AcDbEntity
  8
Roof
  6
ByLayer
 62
  256
370
   -1
100
AcDbLine
 10
25.0438354270462
 20
41.44015684112729
 11
24.89383542704622
 21
41.59015684112742
  0
LINE
  5
AC
100
AcDbEntity
  8
Roof
  6
ByLayer
 62
  256
370
   -1
100
AcDbLine
 10
25.0438354270462
 20
41.74015684112729
 11
24.89383542704622
 21
41.59015684112742
  0
LINE
  5
AD
100
AcDbEntity
  8
Roof
  6
ByLayer
 62
  256
370
   -1
100
AcDbLine
 10
24.27616457295387
 20
41.74015684112729
 11
24.42616457295386
 21
41.59015684112742
  0
LINE
  5
AE
100
AcDbEntity
  8
Roof
  6
ByLayer
 62
  256
370
   -1
100
AcDbLine
 10
24.27616457295387
 20
41.44015684112729
 11
24.42616457295386
 21
41.59015684112742
  0
LINE
  5
AF
100
AcDbEntity
  8
Roof
  6
ByLayer
 62
  256
370
   -1
100
AcDbLine
 10
24.27616457295387
 20
41.74015684112729
 11
24.27616457295387
 21
41.44015684112729
  0
LINE
  5
B0
100
AcDbEntity
  8
Roof
  6
ByLayer
 62
  256
370
   -1
100
AcDbLine
 10
30.66000000000004
 20
43.36015684112732
 11
41.16000000000004
 21
42.59015684112732
  0
LINE
  5
B1
100
AcDbEntity
  8
Roof
  6
ByLayer
 62
  256
370
   -1
100
AcDbLine
 10
41.16000000000004
 20
42.59015684112732
 11
46.01000000000006
 21
43.36015684112732
  0
LINE
  5
B2
100
AcDbEntity
  8
Roof
  6
ByLayer
 62
  256
370
   -1
100
AcDbLine
 10
31.42000000000008
 20
37.01015684112732
 11
41.16000000000004
 21
42.59015684112732
  0
LINE
  5
B3
100
AcDbEntity
  8
Roof
  6
ByLayer
 62
  256
370
   -1
100
AcDbLine
 10
41.16000000000004
 20
42.59015684112732
 11
46.01000000000005
 21
37.01015684112732
  0
LINE
  5
B4
100
AcDbEntity
  8
Roof
  6
ByLayer
 62
  256
370
   -1
100
AcDbLine
 10
46.01000000000005
 20
37.01015684112732
 11
41.16000000000004
 21
31.43015684112732
  0
LINE
  5
B5
100
AcDbEntity
  8
Roof
  6
ByLayer
 62
  256
370
   -1
100
AcDbLine
 10
41.16000000000004
 20
31.43015684112732
 11
31.42000000000008
 21
37.01015684112732
  0
LINE
  5
B6
100
AcDbEntity
  8
Roof
  6
ByLayer
 62
  256
370
   -1
100
AcDbLine
 10
30.66000000000005
 20
30.66015684112732
 11
41.16000000000004
 21
31.43015684112732
  0
LINE
  5
B7
100
AcDbEntity
  8
Roof
  6
ByLayer
 62
  256
370
   -1
100
AcDbLine
 10
41.16000000000004
 20
31.43015684112732
 11
46.01000000000003
 21
30.66015684112729
  0
LINE
  5
B8
100
AcDbEntity
  8
Roof
  6
ByLayer
 62
  256
370
   -1
100
AcDbLine
 10
40.77616457295388
 20
42.74015684112729
 11
40.77616457295388
 21
42.44015684112729
  0
LINE
  5
B9
100
AcDbEntity
  8
Roof
  6
ByLayer
 62
  256
370
   -1
100
AcDbLine
 10
40.77616457295388
 20
42.44015684112729
 11
40.92616457295386
 21
42.59015684112732
  0
LINE
  5
BA
100
AcDbEntity
  8
Roof
  6
ByLayer
 62
  256
370
   -1
100
AcDbLine
 10
40.77616457295388
 20
42.74015684112729
 11
40.92616457295386
 21
42.59015684112732
  0
LINE
  5
BB
100
AcDbEntity
  8
Roof
  6
ByLayer
 62
  256
370
   -1
100
AcDbLine
 10
41.54383542704623
 20
42.74015684112729
 11
41.39383542704622
 21
42.59015684112732
  0
LINE
  5
BC
100
AcDbEntity
  8
Roof
  6
ByLayer
 62
  256
370
   -1
100
AcDbLine
 10
41.54383542704623
 20
42.44015684112729
 11
41.39383542704622
 21
42.59015684112732
  0
LINE
  5
BD
100
AcDbEntity
  8
Roof
  6
ByLayer
 62
  256
370
   -1
100
AcDbLine
 10
41.54383542704623
 20
42.74015684112729
 11
41.54383542704623
 21
42.44015684112729
  0
LINE
  5
BE
100
AcDbEntity
  8
Roof
  6
ByLayer
 62
  256
370
   -1
100
AcDbLine
 10
41.31000000000003
 20
42.97399226817349
 11
41.01000000000003
 21
42.97399226817349
  0
LINE
  5
BF
100
AcDbEntity
  8
Roof
  6
ByLayer
 62
  256
370
   -1
100
AcDbLine
 10
41.01000000000003
 20
42.97399226817349
 11
41.16000000000004
 21
42.82399226817349
  0
LINE
  5
C0
100
AcDbEntity
  8
Roof
  6
ByLayer
 62
  256
370
   -1
100
AcDbLine
 10
41.31000000000001
 20
42.97399226817349
 11
41.16000000000004
 21
42.82399226817349
  0
LINE
  5
C1
100
AcDbEntity
  8
Roof
  6
ByLayer
 62
  256
370
   -1
100
AcDbLine
 10
41.31000000000001
 20
42.20632141408109
 11
41.16000000000004
 21
42.35632141408109
  0
LINE
  5
C2
100
AcDbEntity
  8
Roof
  6
ByLayer
 62
  256
370
   -1
100
AcDbLine
 10
41.01000000000003
 20
42.20632141408109
 11
41.16000000000004
 21
42.35632141408109
  0
LINE
  5
C3
100
AcDbEntity
  8
Roof
  6
ByLayer
 62
  256
370
   -1
100
AcDbLine
 10
41.31000000000003
 20
42.20632141408109
 11
41.01000000000003
 21
42.20632141408109
  0
LINE
  5
C4
100
AcDbEntity
  8
Roof
  6
ByLayer
 62
  256
370
   -1
100
AcDbLine
 10
40.77616457295388
 20
31.58015684112732
 11
40.77616457295388
 21
31.28015684112732
  0
LINE
  5
C5
100
AcDbEntity
  8
Roof
  6
ByLayer
 62
  256
370
   -1
100
AcDbLine
 10
40.77616457295388
 20
31.28015684112732
 11
40.92616457295386
 21
31.43015684112732
  0
LINE
  5
C6
100
AcDbEntity
  8
Roof
  6
ByLayer
 62
  256
370
   -1
100
AcDbLine
 10
40.77616457295388
 20
31.58015684112732
 11
40.92616457295386
 21
31.43015684112732
  0
LINE
  5
C7
100
AcDbEntity
  8
Roof
  6
ByLayer
 62
  256
370
   -1
100
AcDbLine
 10
41.54383542704623
 20
31.58015684112732
 11
41.39383542704622
 21
31.43015684112732
  0
LINE
  5
C8
100
AcDbEntity
  8
Roof
  6
ByLayer
 62
  256
370
   -1
100
AcDbLine
 10
41.54383542704623
 20
31.28015684112732
 11
41.39383542704622
 21
31.43015684112732
  0
LINE
  5
C9
100
AcDbEntity
  8
Roof
  6
ByLayer
 62
  256
370
   -1
100
AcDbLine
 10
41.54383542704623
 20
31.58015684112732
 11
41.54383542704623
 21
31.28015684112732
  0
LINE
  5
CA
100
AcDbEntity
  8
Roof
  6
ByLayer
 62
  256
370
   -1
100
AcDbLine
 10
41.31000000000003
 20
31.81399226817349
 11
41.01000000000003
 21
31.81399226817349
  0
LINE
  5
CB
100
AcDbEntity
  8
Roof
  6
ByLayer
 62
  256
370
   -1
100
AcDbLine
 10
41.01000000000003
 20
31.81399226817349
 11
41.16000000000004
 21
31.66399226817352
  0
LINE
  5
CC
100
AcDbEntity
  8
Roof
  6
ByLayer
 62
  256
370
   -1
100
AcDbLine
 10
41.31000000000001
 20
31.81399226817349
 11
41.16000000000004
 21
31.66399226817352
  0
LINE
  5
CD
100
AcDbEntity
  8
Roof
  6
ByLayer
 62
  256
370
   -1
100
AcDbLine
 10
41.31000000000001
 20
31.04632141408115
 11
41.16000000000004
 21
31.19632141408115
  0
LINE
  5
CE
100
AcDbEntity
  8
Roof
  6
ByLayer
 62
  256
370
   -1
100
AcDbLine
 10
41.01000000000003
 20
31.04632141408115
 11
41.16000000000004
 21
31.19632141408115
  0
LINE
  5
CF
100
AcDbEntity
  8
Roof
  6
ByLayer
 62
  256
370
   -1
100
AcDbLine
 10
41.31000000000003
 20
31.04632141408115
 11
41.01000000000003
 21
31.04632141408115
  0
LINE
  5
D0
100
AcDbEntity
  8
Flooring
  6
ByLayer
 62
  256
370
   -1
100
AcDbLine
 10
0.16
 20
36.51015684112721
 11
23.21000000000003
 21
36.51015684112732
  0
LINE
  5
D1
100
AcDbEntity
  8
Flooring
  6
ByLayer
 62
  256
370
   -1
100
AcDbLine
 10
7.16
 20
27.51015684112735
 11
38.16000000000004
 21
27.51015684112735
  0
LINE
  5
D2
100
AcDbEntity
  8
Flooring
  6
ByLayer
 62
  256
370
   -1
100
AcDbLine
 10
38.16000000000004
 20
43.51015684112732
 11
8.859999999999935
 21
43.51015684112732
  0
LINE
  5
D3
100
AcDbEntity
  8
Flooring
  6
ByLayer
 62
  256
370
   -1
100
AcDbLine
 10
23.21000000000004
 20
42.51015684112732
 11
8.859999999999935
 21
42.51015684112741
  0
LINE
  5
D4
100
AcDbEntity
  8
Flooring
  6
ByLayer
 62
  256
370
   -1
100
AcDbLine
 10
8.859999999999935
 20
40.51015684112732
 11
23.21000000000003
 21
40.51015684112732
  0
LINE
  5
D5
100
AcDbEntity
  8
Flooring
  6
ByLayer
 62
  256
370
   -1
100
AcDbLine
 10
0.16
 20
39.51015684112721
 11
23.21000000000003
 21
39.51015684112732
  0
LINE
  5
D6
100
AcDbEntity
  8
Flooring
  6
ByLayer
 62
  256
370
   -1
100
AcDbLine
 10
0.16
 20
38.51015684112721
 11
23.21000000000003
 21
38.51015684112732
  0
LINE
  5
D7
100
AcDbEntity
  8
Flooring
  6
ByLayer
 62
  256
370
   -1
100
AcDbLine
 10
0.16
 20
37.51015684112732
 11
23.21000000000003
 21
37.51015684112732
  0
LINE
  5
D8
100
AcDbEntity
  8
Flooring
  6
ByLayer
 62
  256
370
   -1
100
AcDbLine
 10
38.16000000000004
 20
26.51015684112735
 11
-0.84
 21
26.51015684112729
  0
LINE
  5
D9
100
AcDbEntity
  8
Flooring
  6
ByLayer
 62
  256
370
   -1
100
AcDbLine
 10
6.159999999999927
 20
36.51015684112721
 11
6.159999999999927
 21
39.81015684112732
  0
LINE
  5
DA
100
AcDbEntity
  8
Flooring
  6
ByLayer
 62
  256
370
   -1
100
AcDbLine
 10
3.159999999999884
 20
36.51015684112721
 11
3.159999999999884
 21
39.81015684112732
  0
LINE
  5
DB
100
AcDbEntity
  8
Flooring
  6
ByLayer
 62
  256
370
   -1
100
AcDbLine
 10
2.159999999999884
 20
36.51015684112721
 11
2.159999999999884
 21
39.81015684112732
  0
LINE
  5
DC
100
AcDbEntity
  8
Flooring
  6
ByLayer
 62
  256
370
   -1
100
AcDbLine
 10
1.159999999999869
 20
36.51015684112721
 11
1.159999999999884
 21
39.81015684112732
  0
LINE
  5
DD
100
AcDbEntity
  8
Flooring
  6
ByLayer
 62
  256
370
   -1
100
AcDbLine
 10
4.159999999999905
 20
36.51015684112721
 11
4.159999999999905
 21
39.81015684112732
  0
LINE
  5
DE
100
AcDbEntity
  8
Flooring
  6
ByLayer
 62
  256
370
   -1
100
AcDbLine
 10
5.159999999999905
 20
36.51015684112721
 11
5.159999999999905
 21
39.81015684112732
  0
LINE
  5
DF
100
AcDbEntity
  8
Flooring
  6
ByLayer
 62
  256
370
   -1
100
AcDbLine
 10
12.15999999999996
 20
36.51015684112732
 11
12.15999999999996
 21
40.76015684112732
  0
LINE
  5
E0
100
AcDbEntity
  8
Flooring
  6
ByLayer
 62
  256
370
   -1
100
AcDbLine
 10
11.15999999999994
 20
36.51015684112732
 11
11.15999999999996
 21
40.76015684112732
  0
LINE
  5
E1
100
AcDbEntity
  8
Flooring
  6
ByLayer
 62
  256
370
   -1
100
AcDbLine
 10
10.15999999999994
 20
36.51015684112732
 11
10.15999999999994
 21
40.76015684112732
  0
LINE
  5
E2
100
AcDbEntity
  8
Flooring
  6
ByLayer
 62
  256
370
   -1
100
AcDbLine
 10
9.159999999999934
 20
36.51015684112732
 11
9.159999999999942
 21
40.76015684112732
  0
LINE
  5
E3
100
AcDbEntity
  8
Flooring
  6
ByLayer
 62
  256
370
   -1
100
AcDbLine
 10
8.159999999999936
 20
36.51015684112732
 11
8.159999999999936
 21
39.81015684112732
  0
LINE
  5
E4
100
AcDbEntity
  8
Flooring
  6
ByLayer
 62
  256
370
   -1
100
AcDbLine
 10
7.159999999999927
 20
36.51015684112721
 11
7.159999999999927
 21
39.81015684112732
  0
LINE
  5
E5
100
AcDbEntity
  8
Flooring
  6
ByLayer
 62
  256
370
   -1
100
AcDbLine
 10
-0.84
 20
26.51015684112729
 11
-0.84
 21
28.51015684112729
  0
LINE
  5
E6
100
AcDbEntity
  8
Flooring
  6
ByLayer
 62
  256
370
   -1
100
AcDbLine
 10
0
 20
27.51015684112729
 11
-0.84
 21
27.51015684112729
  0
LINE
  5
E7
100
AcDbEntity
  8
Flooring
  6
ByLayer
 62
  256
370
   -1
100
AcDbLine
 10
4.160000000000044
 20
27.35015684112729
 11
4.160000000000044
 21
26.51015684112729
  0
LINE
  5
E8
100
AcDbEntity
  8
Flooring
  6
ByLayer
 62
  256
370
   -1
100
AcDbLine
 10
3.160000000000029
 20
27.35015684112729
 11
3.160000000000029
 21
26.51015684112729
  0
LINE
  5
E9
100
AcDbEntity
  8
Flooring
  6
ByLayer
 62
  256
370
   -1
100
AcDbLine
 10
2.160000000000029
 20
27.35015684112729
 11
2.160000000000029
 21
26.51015684112729
  0
LINE
  5
EA
100
AcDbEntity
  8
Flooring
  6
ByLayer
 62
  256
370
   -1
100
AcDbLine
 10
1.160000000000015
 20
27.35015684112729
 11
1.160000000000015
 21
26.51015684112729
  0
LINE
  5
EB
100
AcDbEntity
  8
Flooring
  6
ByLayer
 62
  256
370
   -1
100
AcDbLine
 10
0.1600000000000146
 20
27.35015684112729
 11
0.1600000000000146
 21
26.51015684112729
  0
LINE
  5
EC
100
AcDbEntity
  8
Flooring
  6
ByLayer
 62
  256
370
   -1
100
AcDbLine
 10
7.160000000000059
 20
27.51015684112735
 11
7.160000000000059
 21
26.51015684112729
  0
LINE
  5
ED
100
AcDbEntity
  8
Flooring
  6
ByLayer
 62
  256
370
   -1
100
AcDbLine
 10
8.160000000000059
 20
27.51015684112735
 11
8.160000000000059
 21
26.51015684112729
  0
LINE
  5
EE
100
AcDbEntity
  8
Flooring
  6
ByLayer
 62
  256
370
   -1
100
AcDbLine
 10
6.160000000000059
 20
27.35015684112729
 11
6.160000000000059
 21
26.51015684112729
  0
LINE
  5
EF
100
AcDbEntity
  8
Flooring
  6
ByLayer
 62
  256
370
   -1
100
AcDbLine
 10
5.160000000000044
 20
27.35015684112729
 11
5.160000000000044
 21
26.51015684112729
  0
LINE
  5
F0
100
AcDbEntity
  8
Flooring
  6
ByLayer
 62
  256
370
   -1
100
AcDbLine
 10
12.16000000000006
 20
27.51015684112735
 11
12.16000000000006
 21
26.51015684112732
  0
LINE
  5
F1
100
AcDbEntity
  8
Flooring
  6
ByLayer
 62
  256
370
   -1
100
AcDbLine
 10
11.16000000000006
 20
27.51015684112735
 11
11.16000000000006
 21
26.51015684112732
  0
LINE
  5
F2
100
AcDbEntity
  8
Flooring
  6
ByLayer
 62
  256
370
   -1
100
AcDbLine
 10
10.16000000000006
 20
27.51015684112735
 11
10.16000000000006
 21
26.51015684112732
  0
LINE
  5
F3
100
AcDbEntity
  8
Flooring
  6
ByLayer
 62
  256
370
   -1
100
AcDbLine
 10
9.160000000000059
 20
27.51015684112735
 11
9.160000000000059
 21
26.51015684112732
  0
LINE
  5
F4
100
AcDbEntity
  8
Flooring
  6
ByLayer
 62
  256
370
   -1
100
AcDbLine
 10
-0.84
 20
28.51015684112729
 11
0
 21
28.51015684112729
  0
LINE
  5
F5
100
AcDbEntity
  8
Flooring
  6
ByLayer
 62
  256
370
   -1
100
AcDbLine
 10
12.15999999999996
 20
41.26015684112732
 11
12.15999999999996
 21
41.51015684112732
  0
LINE
  5
F6
100
AcDbEntity
  8
Flooring
  6
ByLayer
 62
  256
370
   -1
100
AcDbLine
 10
11.15999999999996
 20
41.26015684112732
 11
11.15999999999996
 21
41.51015684112732
  0
LINE
  5
F7
100
AcDbEntity
  8
Flooring
  6
ByLayer
 62
  256
370
   -1
100
AcDbLine
 10
12.15999999999996
 20
41.67015684112732
 11
12.15999999999996
 21
43.51015684112732
  0
LINE
  5
F8
100
AcDbEntity
  8
Flooring
  6
ByLayer
 62
  256
370
   -1
100
AcDbLine
 10
11.15999999999996
 20
41.67015684112732
 11
11.15999999999996
 21
43.51015684112732
  0
LINE
  5
F9
100
AcDbEntity
  8
Flooring
  6
ByLayer
 62
  256
370
   -1
100
AcDbLine
 10
10.15999999999994
 20
41.26015684112732
 11
10.15999999999994
 21
41.51015684112732
  0
LINE
  5
FA
100
AcDbEntity
  8
Flooring
  6
ByLayer
 62
  256
370
   -1
100
AcDbLine
 10
9.159999999999942
 20
41.26015684112732
 11
9.159999999999942
 21
41.51015684112732
  0
LINE
  5
FB
100
AcDbEntity
  8
Flooring
  6
ByLayer
 62
  256
370
   -1
100
AcDbLine
 10
10.15999999999994
 20
41.67015684112732
 11
10.15999999999994
 21
43.51015684112732
  0
LINE
  5
FC
100
AcDbEntity
  8
Flooring
  6
ByLayer
 62
  256
370
   -1
100
AcDbLine
 10
9.159999999999942
 20
41.67015684112732
 11
9.159999999999942
 21
43.51015684112732
  0
LINE
  5
FD
100
AcDbEntity
  8
Flooring
  6
ByLayer
 62
  256
370
   -1
100
AcDbLine
 10
51.16000000000006
 20
30.51015684112735
 11
20.16000000000001
 21
30.51015684112732
  0
LINE
  5
FE
100
AcDbEntity
  8
Flooring
  6
ByLayer
 62
  256
370
   -1
100
AcDbLine
 10
19.16
 20
36.51015684112732
 11
19.16000000000001
 21
40.76015684112732
  0
LINE
  5
FF
100
AcDbEntity
  8
Flooring
  6
ByLayer
 62
  256
370
   -1
100
AcDbLine
 10
18.16
 20
36.51015684112732
 11
18.16
 21
40.76015684112732
  0
LINE
  5
100
100
AcDbEntity
  8
Flooring
  6
ByLayer
 62
  256
370
   -1
100
AcDbLine
 10
17.15999999999999
 20
36.51015684112732
 11
17.15999999999999
 21
40.76015684112732
  0
LINE
  5
101
100
AcDbEntity
  8
Flooring
  6
ByLayer
 62
  256
370
   -1
100
AcDbLine
 10
16.15999999999999
 20
36.51015684112732
 11
16.15999999999999
 21
40.76015684112732
  0
LINE
  5
102
100
AcDbEntity
  8
Flooring
  6
ByLayer
 62
  256
370
   -1
100
AcDbLine
 10
15.15999999999997
 20
36.51015684112732
 11
15.15999999999998
 21
40.76015684112732
  0
LINE
  5
103
100
AcDbEntity
  8
Flooring
  6
ByLayer
 62
  256
370
   -1
100
AcDbLine
 10
14.15999999999997
 20
36.51015684112732
 11
14.15999999999997
 21
40.76015684112732
  0
LINE
  5
104
100
AcDbEntity
  8
Flooring
  6
ByLayer
 62
  256
370
   -1
100
AcDbLine
 10
13.15999999999996
 20
36.51015684112732
 11
13.15999999999997
 21
40.76015684112732
  0
LINE
  5
105
100
AcDbEntity
  8
Flooring
  6
ByLayer
 62
  256
370
   -1
100
AcDbLine
 10
24.16000000000004
 20
26.51015684112732
 11
24.16000000000004
 21
30.56015684112732
  0
LINE
  5
106
100
AcDbEntity
  8
Flooring
  6
ByLayer
 62
  256
370
   -1
100
AcDbLine
 10
28.16000000000004
 20
43.46015684112732
 11
28.16000000000004
 21
43.51015684112732
  0
LINE
  5
107
100
AcDbEntity
  8
Flooring
  6
ByLayer
 62
  256
370
   -1
100
AcDbLine
 10
27.16000000000004
 20
43.46015684112732
 11
27.16000000000004
 21
43.51015684112732
  0
LINE
  5
108
100
AcDbEntity
  8
Flooring
  6
ByLayer
 62
  256
370
   -1
100
AcDbLine
 10
26.16000000000004
 20
43.46015684112732
 11
26.16000000000004
 21
43.51015684112732
  0
LINE
  5
109
100
AcDbEntity
  8
Flooring
  6
ByLayer
 62
  256
370
   -1
100
AcDbLine
 10
46.16000000000004
 20
31.51015684112735
 11
46.16000000000004
 21
42.51015684112732
  0
LINE
  5
10A
100
AcDbEntity
  8
Flooring
  6
ByLayer
 62
  256
370
   -1
100
AcDbLine
 10
22.16000000000002
 20
26.51015684112732
 11
22.16000000000003
 21
40.76015684112732
  0
LINE
  5
10B
100
AcDbEntity
  8
Flooring
  6
ByLayer
 62
  256
370
   -1
100
AcDbLine
 10
21.16000000000002
 20
26.51015684112732
 11
21.16000000000002
 21
40.76015684112732
  0
LINE
  5
10C
100
AcDbEntity
  8
Flooring
  6
ByLayer
 62
  256
370
   -1
100
AcDbLine
 10
20.16000000000001
 20
26.51015684112732
 11
20.16000000000002
 21
40.76015684112732
  0
LINE
  5
10D
100
AcDbEntity
  8
Flooring
  6
ByLayer
 62
  256
370
   -1
100
AcDbLine
 10
23.16000000000003
 20
26.51015684112732
 11
23.16000000000004
 21
41.51015684112732
  0
LINE
  5
10E
100
AcDbEntity
  8
Flooring
  6
ByLayer
 62
  256
370
   -1
100
AcDbLine
 10
35.16000000000004
 20
28.51015684112735
 11
20.16000000000001
 21
28.51015684112732
  0
LINE
  5
10F
100
AcDbEntity
  8
Flooring
  6
ByLayer
 62
  256
370
   -1
100
AcDbLine
 10
20.16000000000002
 20
35.51015684112729
 11
23.21000000000003
 21
35.51015684112732
  0
LINE
  5
110
100
AcDbEntity
  8
Flooring
  6
ByLayer
 62
  256
370
   -1
100
AcDbLine
 10
20.16000000000002
 20
34.51015684112732
 11
23.21000000000003
 21
34.51015684112732
  0
LINE
  5
111
100
AcDbEntity
  8
Flooring
  6
ByLayer
 62
  256
370
   -1
100
AcDbLine
 10
20.16000000000001
 20
33.51015684112729
 11
23.21000000000003
 21
33.51015684112732
  0
LINE
  5
112
100
AcDbEntity
  8
Flooring
  6
ByLayer
 62
  256
370
   -1
100
AcDbLine
 10
20.16000000000001
 20
32.51015684112732
 11
23.21000000000003
 21
32.51015684112732
  0
LINE
  5
113
100
AcDbEntity
  8
Flooring
  6
ByLayer
 62
  256
370
   -1
100
AcDbLine
 10
35.16000000000004
 20
29.51015684112735
 11
20.16000000000001
 21
29.51015684112732
  0
LINE
  5
114
100
AcDbEntity
  8
Flooring
  6
ByLayer
 62
  256
370
   -1
100
AcDbLine
 10
25.16000000000004
 20
26.51015684112732
 11
25.16000000000004
 21
30.56015684112732
  0
LINE
  5
115
100
AcDbEntity
  8
Flooring
  6
ByLayer
 62
  256
370
   -1
100
AcDbLine
 10
26.16000000000004
 20
26.51015684112732
 11
26.16000000000004
 21
30.56015684112732
  0
LINE
  5
116
100
AcDbEntity
  8
Flooring
  6
ByLayer
 62
  256
370
   -1
100
AcDbLine
 10
27.16000000000004
 20
26.51015684112732
 11
27.16000000000004
 21
30.56015684112732
  0
LINE
  5
117
100
AcDbEntity
  8
Flooring
  6
ByLayer
 62
  256
370
   -1
100
AcDbLine
 10
28.16000000000004
 20
26.51015684112732
 11
28.16000000000004
 21
30.56015684112732
  0
LINE
  5
118
100
AcDbEntity
  8
Flooring
  6
ByLayer
 62
  256
370
   -1
100
AcDbLine
 10
29.16000000000007
 20
30.56015684112732
 11
29.16000000000021
 21
26.51015684112732
  0
LINE
  5
119
100
AcDbEntity
  8
Flooring
  6
ByLayer
 62
  256
370
   -1
100
AcDbLine
 10
16.16000000000006
 20
27.51015684112735
 11
16.16000000000006
 21
26.51015684112732
  0
LINE
  5
11A
100
AcDbEntity
  8
Flooring
  6
ByLayer
 62
  256
370
   -1
100
AcDbLine
 10
15.16000000000006
 20
27.51015684112735
 11
15.16000000000006
 21
26.51015684112732
  0
LINE
  5
11B
100
AcDbEntity
  8
Flooring
  6
ByLayer
 62
  256
370
   -1
100
AcDbLine
 10
14.16000000000006
 20
27.51015684112735
 11
14.16000000000006
 21
26.51015684112732
  0
LINE
  5
11C
100
AcDbEntity
  8
Flooring
  6
ByLayer
 62
  256
370
   -1
100
AcDbLine
 10
13.16000000000006
 20
27.51015684112735
 11
13.16000000000006
 21
26.51015684112732
  0
LINE
  5
11D
100
AcDbEntity
  8
Flooring
  6
ByLayer
 62
  256
370
   -1
100
AcDbLine
 10
19.16000000000006
 20
27.51015684112735
 11
19.16000000000006
 21
26.51015684112732
  0
LINE
  5
11E
100
AcDbEntity
  8
Flooring
  6
ByLayer
 62
  256
370
   -1
100
AcDbLine
 10
18.16000000000006
 20
27.51015684112735
 11
18.16000000000006
 21
26.51015684112732
  0
LINE
  5
11F
100
AcDbEntity
  8
Flooring
  6
ByLayer
 62
  256
370
   -1
100
AcDbLine
 10
17.16000000000006
 20
27.51015684112735
 11
17.16000000000006
 21
26.51015684112732
  0
LINE
  5
120
100
AcDbEntity
  8
Flooring
  6
ByLayer
 62
  256
370
   -1
100
AcDbLine
 10
23.21000000000003
 20
31.51015684112732
 11
20.16000000000001
 21
31.51015684112726
  0
LINE
  5
121
100
AcDbEntity
  8
Flooring
  6
ByLayer
 62
  256
370
   -1
100
AcDbLine
 10
37.96000000000004
 20
27.51015684112735
 11
37.96000000000006
 21
30.51015684112735
  0
LINE
  5
122
100
AcDbEntity
  8
Flooring
  6
ByLayer
 62
  256
370
   -1
100
AcDbLine
 10
37.61000000000005
 20
27.51015684112735
 11
37.61000000000005
 21
30.51015684112735
  0
LINE
  5
123
100
AcDbEntity
  8
Flooring
  6
ByLayer
 62
  256
370
   -1
100
AcDbLine
 10
37.26000000000004
 20
27.51015684112735
 11
37.26000000000006
 21
30.51015684112735
  0
LINE
  5
124
100
AcDbEntity
  8
Flooring
  6
ByLayer
 62
  256
370
   -1
100
AcDbLine
 10
36.91000000000004
 20
27.51015684112735
 11
36.91000000000004
 21
30.51015684112735
  0
LINE
  5
125
100
AcDbEntity
  8
Flooring
  6
ByLayer
 62
  256
370
   -1
100
AcDbLine
 10
36.56000000000004
 20
27.51015684112735
 11
36.56000000000004
 21
30.51015684112735
  0
LINE
  5
126
100
AcDbEntity
  8
Flooring
  6
ByLayer
 62
  256
370
   -1
100
AcDbLine
 10
36.21000000000004
 20
27.51015684112735
 11
36.21000000000004
 21
30.51015684112735
  0
LINE
  5
127
100
AcDbEntity
  8
Flooring
  6
ByLayer
 62
  256
370
   -1
100
AcDbLine
 10
35.86000000000003
 20
27.51015684112735
 11
35.86000000000005
 21
30.51015684112735
  0
LINE
  5
128
100
AcDbEntity
  8
Flooring
  6
ByLayer
 62
  256
370
   -1
100
AcDbLine
 10
35.51000000000004
 20
27.51015684112735
 11
35.51000000000004
 21
30.51015684112735
  0
LINE
  5
129
100
AcDbEntity
  8
Flooring
  6
ByLayer
 62
  256
370
   -1
100
AcDbLine
 10
30.16000000000006
 20
26.51015684112732
 11
30.16000000000004
 21
30.56015684112732
  0
LINE
  5
12A
100
AcDbEntity
  8
Flooring
  6
ByLayer
 62
  256
370
   -1
100
AcDbLine
 10
31.16000000000004
 20
26.51015684112732
 11
31.16000000000004
 21
30.56015684112732
  0
LINE
  5
12B
100
AcDbEntity
  8
Flooring
  6
ByLayer
 62
  256
370
   -1
100
AcDbLine
 10
32.16000000000006
 20
26.51015684112735
 11
32.16000000000004
 21
30.56015684112735
  0
LINE
  5
12C
100
AcDbEntity
  8
Flooring
  6
ByLayer
 62
  256
370
   -1
100
AcDbLine
 10
33.16000000000004
 20
26.51015684112735
 11
33.16000000000004
 21
30.56015684112735
  0
LINE
  5
12D
100
AcDbEntity
  8
Flooring
  6
ByLayer
 62
  256
370
   -1
100
AcDbLine
 10
34.16000000000006
 20
26.51015684112735
 11
34.16000000000004
 21
30.56015684112735
  0
LINE
  5
12E
100
AcDbEntity
  8
Flooring
  6
ByLayer
 62
  256
370
   -1
100
AcDbLine
 10
35.16000000000004
 20
26.51015684112732
 11
35.16000000000004
 21
30.56015684112735
  0
LINE
  5
12F
100
AcDbEntity
  8
Flooring
  6
ByLayer
 62
  256
370
   -1
100
AcDbLine
 10
36.16000000000004
 20
27.51015684112735
 11
36.16000000000004
 21
26.51015684112735
  0
LINE
  5
130
100
AcDbEntity
  8
Flooring
  6
ByLayer
 62
  256
370
   -1
100
AcDbLine
 10
37.16000000000004
 20
27.51015684112735
 11
37.16000000000004
 21
26.51015684112735
  0
LINE
  5
131
100
AcDbEntity
  8
Flooring
  6
ByLayer
 62
  256
370
   -1
100
AcDbLine
 10
38.16000000000004
 20
27.51015684112735
 11
38.16000000000004
 21
26.51015684112735
  0
LINE
  5
132
100
AcDbEntity
  8
Flooring
  6
ByLayer
 62
  256
370
   -1
100
AcDbLine
 10
37.96000000000006
 20
28.51015684112735
 11
37.61000000000005
 21
28.51015684112735
  0
LINE
  5
133
100
AcDbEntity
  8
Flooring
  6
ByLayer
 62
  256
370
   -1
100
AcDbLine
 10
37.96000000000006
 20
29.51015684112735
 11
37.61000000000005
 21
29.51015684112735
  0
LINE
  5
134
100
AcDbEntity
  8
Flooring
  6
ByLayer
 62
  256
370
   -1
100
AcDbLine
 10
36.56000000000004
 20
29.51015684112735
 11
36.21000000000004
 21
29.51015684112735
  0
LINE
  5
135
100
AcDbEntity
  8
Flooring
  6
ByLayer
 62
  256
370
   -1
100
AcDbLine
 10
36.56000000000004
 20
28.51015684112735
 11
36.21000000000004
 21
28.51015684112735
  0
LINE
  5
136
100
AcDbEntity
  8
Flooring
  6
ByLayer
 62
  256
370
   -1
100
AcDbLine
 10
37.26000000000006
 20
29.51015684112735
 11
36.91000000000004
 21
29.51015684112735
  0
LINE
  5
137
100
AcDbEntity
  8
Flooring
  6
ByLayer
 62
  256
370
   -1
100
AcDbLine
 10
37.26000000000006
 20
28.51015684112735
 11
36.91000000000004
 21
28.51015684112735
  0
LINE
  5
138
100
AcDbEntity
  8
Flooring
  6
ByLayer
 62
  256
370
   -1
100
AcDbLine
 10
37.61000000000005
 20
29.01015684112735
 11
37.26000000000004
 21
29.01015684112735
  0
LINE
  5
139
100
AcDbEntity
  8
Flooring
  6
ByLayer
 62
  256
370
   -1
100
AcDbLine
 10
36.91000000000004
 20
29.01015684112735
 11
36.56000000000004
 21
29.01015684112735
  0
LINE
  5
13A
100
AcDbEntity
  8
Flooring
  6
ByLayer
 62
  256
370
   -1
100
AcDbLine
 10
36.21000000000004
 20
29.01015684112735
 11
35.86000000000003
 21
29.01015684112735
  0
LINE
  5
13B
100
AcDbEntity
  8
Flooring
  6
ByLayer
 62
  256
370
   -1
100
AcDbLine
 10
36.16000000000004
 20
30.51015684112735
 11
36.16000000000004
 21
30.56015684112732
  0
LINE
  5
13C
100
AcDbEntity
  8
Flooring
  6
ByLayer
 62
  256
370
   -1
100
AcDbLine
 10
37.16000000000004
 20
30.51015684112735
 11
37.16000000000004
 21
30.56015684112732
  0
LINE
  5
13D
100
AcDbEntity
  8
Flooring
  6
ByLayer
 62
  256
370
   -1
100
AcDbLine
 10
35.51000000000004
 20
29.01015684112735
 11
35.16000000000004
 21
29.01015684112735
  0
LINE
  5
13E
100
AcDbEntity
  8
Flooring
  6
ByLayer
 62
  256
370
   -1
100
AcDbLine
 10
35.86000000000005
 20
29.51015684112735
 11
35.51000000000004
 21
29.51015684112735
  0
LINE
  5
13F
100
AcDbEntity
  8
Flooring
  6
ByLayer
 62
  256
370
   -1
100
AcDbLine
 10
35.86000000000005
 20
28.51015684112735
 11
35.51000000000004
 21
28.51015684112735
  0
LINE
  5
140
100
AcDbEntity
  8
Flooring
  6
ByLayer
 62
  256
370
   -1
100
AcDbLine
 10
41.16000000000008
 20
30.56015684112732
 11
41.16000000000008
 21
30.51015684112735
  0
LINE
  5
141
100
AcDbEntity
  8
Flooring
  6
ByLayer
 62
  256
370
   -1
100
AcDbLine
 10
40.16000000000004
 20
30.51015684112735
 11
40.16000000000004
 21
30.56015684112732
  0
LINE
  5
142
100
AcDbEntity
  8
Flooring
  6
ByLayer
 62
  256
370
   -1
100
AcDbLine
 10
38.16000000000004
 20
30.51015684112735
 11
38.16000000000004
 21
30.56015684112732
  0
LINE
  5
143
100
AcDbEntity
  8
Flooring
  6
ByLayer
 62
  256
370
   -1
100
AcDbLine
 10
39.16000000000004
 20
30.51015684112735
 11
39.16000000000004
 21
30.56015684112732
  0
LINE
  5
144
100
AcDbEntity
  8
Flooring
  6
ByLayer
 62
  256
370
   -1
100
AcDbLine
 10
46.11000000000005
 20
33.51015684112735
 11
46.16000000000004
 21
33.51015684112735
  0
LINE
  5
145
100
AcDbEntity
  8
Flooring
  6
ByLayer
 62
  256
370
   -1
100
AcDbLine
 10
44.16000000000008
 20
30.56015684112732
 11
44.16000000000008
 21
30.51015684112735
  0
LINE
  5
146
100
AcDbEntity
  8
Flooring
  6
ByLayer
 62
  256
370
   -1
100
AcDbLine
 10
45.16000000000008
 20
30.56015684112732
 11
45.16000000000008
 21
30.51015684112735
  0
LINE
  5
147
100
AcDbEntity
  8
Flooring
  6
ByLayer
 62
  256
370
   -1
100
AcDbLine
 10
46.16000000000005
 20
31.35015684112732
 11
46.16000000000008
 21
30.51015684112735
  0
LINE
  5
148
100
AcDbEntity
  8
Flooring
  6
ByLayer
 62
  256
370
   -1
100
AcDbLine
 10
42.16000000000008
 20
30.56015684112732
 11
42.16000000000008
 21
30.51015684112735
  0
LINE
  5
149
100
AcDbEntity
  8
Flooring
  6
ByLayer
 62
  256
370
   -1
100
AcDbLine
 10
43.16000000000008
 20
30.56015684112732
 11
43.16000000000008
 21
30.51015684112735
  0
LINE
  5
14A
100
AcDbEntity
  8
Flooring
  6
ByLayer
 62
  256
370
   -1
100
AcDbLine
 10
46.11000000000005
 20
34.51015684112738
 11
46.16000000000004
 21
34.51015684112735
  0
LINE
  5
14B
100
AcDbEntity
  8
Flooring
  6
ByLayer
 62
  256
370
   -1
100
AcDbLine
 10
46.11000000000005
 20
35.51015684112732
 11
46.16000000000004
 21
35.51015684112735
  0
LINE
  5
14C
100
AcDbEntity
  8
Flooring
  6
ByLayer
 62
  256
370
   -1
100
AcDbLine
 10
46.11000000000005
 20
36.51015684112732
 11
46.16000000000004
 21
36.51015684112732
  0
LINE
  5
14D
100
AcDbEntity
  8
Flooring
  6
ByLayer
 62
  256
370
   -1
100
AcDbLine
 10
46.11000000000005
 20
37.51015684112732
 11
46.16000000000004
 21
37.51015684112732
  0
LINE
  5
14E
100
AcDbEntity
  8
Flooring
  6
ByLayer
 62
  256
370
   -1
100
AcDbLine
 10
46.11000000000005
 20
38.51015684112732
 11
46.16000000000004
 21
38.51015684112732
  0
LINE
  5
14F
100
AcDbEntity
  8
Flooring
  6
ByLayer
 62
  256
370
   -1
100
AcDbLine
 10
46.11000000000006
 20
41.51015684112741
 11
46.16000000000004
 21
41.51015684112732
  0
LINE
  5
150
100
AcDbEntity
  8
Flooring
  6
ByLayer
 62
  256
370
   -1
100
AcDbLine
 10
16.15999999999999
 20
41.26015684112732
 11
16.15999999999999
 21
41.51015684112732
  0
LINE
  5
151
100
AcDbEntity
  8
Flooring
  6
ByLayer
 62
  256
370
   -1
100
AcDbLine
 10
15.15999999999998
 20
41.26015684112732
 11
15.15999999999998
 21
41.51015684112732
  0
LINE
  5
152
100
AcDbEntity
  8
Flooring
  6
ByLayer
 62
  256
370
   -1
100
AcDbLine
 10
16.15999999999999
 20
41.67015684112732
 11
16.15999999999999
 21
43.51015684112732
  0
LINE
  5
153
100
AcDbEntity
  8
Flooring
  6
ByLayer
 62
  256
370
   -1
100
AcDbLine
 10
15.15999999999998
 20
41.67015684112732
 11
15.15999999999998
 21
43.51015684112732
  0
LINE
  5
154
100
AcDbEntity
  8
Flooring
  6
ByLayer
 62
  256
370
   -1
100
AcDbLine
 10
14.15999999999997
 20
41.26015684112732
 11
14.15999999999997
 21
41.51015684112732
  0
LINE
  5
155
100
AcDbEntity
  8
Flooring
  6
ByLayer
 62
  256
370
   -1
100
AcDbLine
 10
13.15999999999997
 20
41.26015684112732
 11
13.15999999999997
 21
41.51015684112732
  0
LINE
  5
156
100
AcDbEntity
  8
Flooring
  6
ByLayer
 62
  256
370
   -1
100
AcDbLine
 10
14.15999999999997
 20
41.67015684112732
 11
14.15999999999997
 21
43.51015684112732
  0
LINE
  5
157
100
AcDbEntity
  8
Flooring
  6
ByLayer
 62
  256
370
   -1
100
AcDbLine
 10
13.15999999999997
 20
41.67015684112732
 11
13.15999999999997
 21
43.51015684112732
  0
LINE
  5
158
100
AcDbEntity
  8
Flooring
  6
ByLayer
 62
  256
370
   -1
100
AcDbLine
 10
20.16000000000002
 20
41.26015684112732
 11
20.16000000000002
 21
41.51015684112732
  0
LINE
  5
159
100
AcDbEntity
  8
Flooring
  6
ByLayer
 62
  256
370
   -1
100
AcDbLine
 10
20.16000000000002
 20
41.67015684112732
 11
20.16000000000002
 21
43.51015684112732
  0
LINE
  5
15A
100
AcDbEntity
  8
Flooring
  6
ByLayer
 62
  256
370
   -1
100
AcDbLine
 10
19.16000000000001
 20
41.26015684112732
 11
19.16000000000001
 21
41.51015684112732
  0
LINE
  5
15B
100
AcDbEntity
  8
Flooring
  6
ByLayer
 62
  256
370
   -1
100
AcDbLine
 10
18.16
 20
41.26015684112732
 11
18.16
 21
41.51015684112732
  0
LINE
  5
15C
100
AcDbEntity
  8
Flooring
  6
ByLayer
 62
  256
370
   -1
100
AcDbLine
 10
17.15999999999999
 20
41.26015684112732
 11
17.15999999999999
 21
41.51015684112732
  0
LINE
  5
15D
100
AcDbEntity
  8
Flooring
  6
ByLayer
 62
  256
370
   -1
100
AcDbLine
 10
19.16000000000001
 20
41.67015684112732
 11
19.16000000000001
 21
43.51015684112732
  0
LINE
  5
15E
100
AcDbEntity
  8
Flooring
  6
ByLayer
 62
  256
370
   -1
100
AcDbLine
 10
18.16
 20
41.67015684112732
 11
18.16
 21
43.51015684112732
  0
LINE
  5
15F
100
AcDbEntity
  8
Flooring
  6
ByLayer
 62
  256
370
   -1
100
AcDbLine
 10
17.15999999999999
 20
41.67015684112732
 11
17.15999999999999
 21
43.51015684112732
  0
LINE
  5
160
100
AcDbEntity
  8
Flooring
  6
ByLayer
 62
  256
370
   -1
100
AcDbLine
 10
25.16000000000004
 20
43.46015684112732
 11
25.16000000000004
 21
43.51015684112732
  0
LINE
  5
161
100
AcDbEntity
  8
Flooring
  6
ByLayer
 62
  256
370
   -1
100
AcDbLine
 10
24.16000000000004
 20
43.46015684112732
 11
24.16000000000004
 21
43.51015684112732
  0
LINE
  5
162
100
AcDbEntity
  8
Flooring
  6
ByLayer
 62
  256
370
   -1
100
AcDbLine
 10
22.16000000000003
 20
41.26015684112732
 11
22.16000000000003
 21
41.51015684112732
  0
LINE
  5
163
100
AcDbEntity
  8
Flooring
  6
ByLayer
 62
  256
370
   -1
100
AcDbLine
 10
21.16000000000002
 20
41.26015684112732
 11
21.16000000000002
 21
41.51015684112732
  0
LINE
  5
164
100
AcDbEntity
  8
Flooring
  6
ByLayer
 62
  256
370
   -1
100
AcDbLine
 10
23.16000000000004
 20
41.67015684112732
 11
23.16000000000004
 21
43.51015684112732
  0
LINE
  5
165
100
AcDbEntity
  8
Flooring
  6
ByLayer
 62
  256
370
   -1
100
AcDbLine
 10
22.16000000000003
 20
41.67015684112732
 11
22.16000000000003
 21
43.51015684112732
  0
LINE
  5
166
100
AcDbEntity
  8
Flooring
  6
ByLayer
 62
  256
370
   -1
100
AcDbLine
 10
21.16000000000002
 20
41.67015684112732
 11
21.16000000000002
 21
43.51015684112732
  0
LINE
  5
167
100
AcDbEntity
  8
Flooring
  6
ByLayer
 62
  256
370
   -1
100
AcDbLine
 10
29.16000000000004
 20
43.46015684112732
 11
29.16000000000004
 21
43.51015684112732
  0
LINE
  5
168
100
AcDbEntity
  8
Flooring
  6
ByLayer
 62
  256
370
   -1
100
AcDbLine
 10
33.16000000000004
 20
43.46015684112732
 11
33.16000000000004
 21
43.51015684112732
  0
LINE
  5
169
100
AcDbEntity
  8
Flooring
  6
ByLayer
 62
  256
370
   -1
100
AcDbLine
 10
32.16000000000004
 20
43.46015684112732
 11
32.16000000000004
 21
43.51015684112732
  0
LINE
  5
16A
100
AcDbEntity
  8
Flooring
  6
ByLayer
 62
  256
370
   -1
100
AcDbLine
 10
31.16000000000004
 20
43.46015684112732
 11
31.16000000000004
 21
43.51015684112732
  0
LINE
  5
16B
100
AcDbEntity
  8
Flooring
  6
ByLayer
 62
  256
370
   -1
100
AcDbLine
 10
30.16000000000004
 20
43.46015684112732
 11
30.16000000000004
 21
43.51015684112732
  0
LINE
  5
16C
100
AcDbEntity
  8
Flooring
  6
ByLayer
 62
  256
370
   -1
100
AcDbLine
 10
36.16000000000004
 20
43.46015684112732
 11
36.16000000000004
 21
43.51015684112732
  0
LINE
  5
16D
100
AcDbEntity
  8
Flooring
  6
ByLayer
 62
  256
370
   -1
100
AcDbLine
 10
37.16000000000004
 20
43.46015684112732
 11
37.16000000000004
 21
43.51015684112721
  0
LINE
  5
16E
100
AcDbEntity
  8
Flooring
  6
ByLayer
 62
  256
370
   -1
100
AcDbLine
 10
35.16000000000004
 20
43.46015684112732
 11
35.16000000000004
 21
43.51015684112732
  0
LINE
  5
16F
100
AcDbEntity
  8
Flooring
  6
ByLayer
 62
  256
370
   -1
100
AcDbLine
 10
34.16000000000004
 20
43.46015684112732
 11
34.16000000000004
 21
43.51015684112732
  0
LINE
  5
170
100
AcDbEntity
  8
Flooring
  6
ByLayer
 62
  256
370
   -1
100
AcDbLine
 10
38.16000000000004
 20
43.46015684112732
 11
38.16000000000004
 21
43.51015684112732
  0
LINE
  5
171
100
AcDbEntity
  8
Flooring
  6
ByLayer
 62
  256
370
   -1
100
AcDbLine
 10
46.11000000000005
 20
39.51015684112732
 11
46.16000000000004
 21
39.51015684112732
  0
LINE
  5
172
100
AcDbEntity
  8
Flooring
  6
ByLayer
 62
  256
370
   -1
100
AcDbLine
 10
46.11000000000005
 20
40.51015684112732
 11
46.16000000000004
 21
40.51015684112732
  0
LINE
  5
173
100
AcDbEntity
  8
Flooring
  6
ByLayer
 62
  256
370
   -1
100
AcDbLine
 10
50.32000000000004
 20
31.51015684112735
 11
51.16000000000006
 21
31.51015684112735
  0
LINE
  5
174
100
AcDbEntity
  8
Flooring
  6
ByLayer
 62
  256
370
   -1
100
AcDbLine
 10
50.32000000000004
 20
32.51015684112735
 11
51.16000000000006
 21
32.51015684112735
  0
LINE
  5
175
100
AcDbEntity
  8
Flooring
  6
ByLayer
 62
  256
370
   -1
100
AcDbLine
 10
48.16000000000005
 20
31.35015684112732
 11
48.16000000000008
 21
30.51015684112735
  0
LINE
  5
176
100
AcDbEntity
  8
Flooring
  6
ByLayer
 62
  256
370
   -1
100
AcDbLine
 10
49.16000000000005
 20
31.35015684112732
 11
49.16000000000008
 21
30.51015684112735
  0
LINE
  5
177
100
AcDbEntity
  8
Flooring
  6
ByLayer
 62
  256
370
   -1
100
AcDbLine
 10
50.16000000000005
 20
31.35015684112732
 11
50.16000000000008
 21
30.51015684112735
  0
LINE
  5
178
100
AcDbEntity
  8
Flooring
  6
ByLayer
 62
  256
370
   -1
100
AcDbLine
 10
47.16000000000005
 20
31.35015684112732
 11
47.16000000000008
 21
30.51015684112735
  0
LINE
  5
179
100
AcDbEntity
  8
Flooring
  6
ByLayer
 62
  256
370
   -1
100
AcDbLine
 10
51.16000000000006
 20
32.51015684112735
 11
51.16000000000006
 21
30.51015684112735
  0
LINE
  5
17A
100
AcDbEntity
  8
Walls
  6
ByLayer
 62
  256
370
   -1
100
AcDbLine
 10
23.21000000000003
 20
41.67015684112732
 11
8.859999999999935
 21
41.67015684112732
  0
LINE
  5
17B
100
AcDbEntity
  8
Walls
  6
ByLayer
 62
  256
370
   -1
100
AcDbLine
 10
23.21000000000003
 20
41.51015684112732
 11
8.859999999999935
 21
41.51015684112732
  0
LINE
  5
17C
100
AcDbEntity
  8
Walls
  6
ByLayer
 62
  256
370
   -1
100
AcDbLine
 10
0
 20
27.35015684112729
 11
0
 21
39.81015684112732
  0
LINE
  5
17D
100
AcDbEntity
  8
Walls
  6
ByLayer
 62
  256
370
   -1
100
AcDbLine
 10
0.16
 20
27.51015684112729
 11
0.16
 21
39.81015684112732
  0
LINE
  5
17E
100
AcDbEntity
  8
Walls
  6
ByLayer
 62
  256
370
   -1
100
AcDbLine
 10
0
 20
27.35015684112729
 11
7.16
 21
27.35015684112729
  0
LINE
  5
17F
100
AcDbEntity
  8
Walls
  6
ByLayer
 62
  256
370
   -1
100
AcDbLine
 10
0.16
 20
27.51015684112729
 11
7.16
 21
27.51015684112729
  0
LINE
  5
180
100
AcDbEntity
  8
Walls
  6
ByLayer
 62
  256
370
   -1
100
AcDbLine
 10
7.16
 20
27.51015684112729
 11
7.16
 21
27.35015684112729
  0
LINE
  5
181
100
AcDbEntity
  8
Walls
  6
ByLayer
 62
  256
370
   -1
100
AcDbLine
 10
46.11000000000005
 20
42.67015684112732
 11
50.32000000000004
 21
42.67015684112732
  0
LINE
  5
182
100
AcDbEntity
  8
Walls
  6
ByLayer
 62
  256
370
   -1
100
AcDbLine
 10
46.11000000000006
 20
42.51015684112732
 11
50.16000000000005
 21
42.51015684112732
  0
LINE
  5
183
100
AcDbEntity
  8
Walls
  6
ByLayer
 62
  256
370
   -1
100
AcDbLine
 10
46.11000000000003
 20
31.51015684112732
 11
50.16000000000005
 21
31.51015684112732
  0
LINE
  5
184
100
AcDbEntity
  8
Walls
  6
ByLayer
 62
  256
370
   -1
100
AcDbLine
 10
46.11000000000003
 20
31.35015684112732
 11
50.32000000000004
 21
31.35015684112732
  0
LINE
  5
185
100
AcDbEntity
  8
Walls
  6
ByLayer
 62
  256
370
   -1
100
AcDbLine
 10
50.16000000000005
 20
31.51015684112732
 11
50.16000000000005
 21
42.51015684112732
  0
LINE
  5
186
100
AcDbEntity
  8
Walls
  6
ByLayer
 62
  256
370
   -1
100
AcDbLine
 10
50.32000000000004
 20
31.35015684112732
 11
50.32000000000004
 21
42.67015684112732
  0
LINE
  5
187
100
AcDbEntity
  8
Furniture
  6
ByLayer
 62
  256
370
   -1
100
AcDbLine
 10
8.859999999999935
 20
40.76015684112721
 11
22.36000000000004
 21
40.76015684112732
  0
LINE
  5
188
100
AcDbEntity
  8
Furniture
  6
ByLayer
 62
  256
370
   -1
100
AcDbLine
 10
22.36000000000004
 20
41.26015684112732
 11
8.859999999999935
 21
41.26015684112732
  0
LINE
  5
189
100
AcDbEntity
  8
Furniture
  6
ByLayer
 62
  256
370
   -1
100
AcDbLine
 10
11.47999999999996
 20
40.76015684112741
 11
11.47999999999994
 21
41.26015684112741
  0
LINE
  5
18A
100
AcDbEntity
  8
Furniture
  6
ByLayer
 62
  256
370
   -1
100
AcDbLine
 10
9.359999999999935
 20
40.76015684112721
 11
9.359999999999935
 21
41.26015684112732
  0
LINE
  5
18B
100
AcDbEntity
  8
Furniture
  6
ByLayer
 62
  256
370
   -1
100
AcDbLine
 10
15.71999999999999
 20
40.76015684112741
 11
15.71999999999999
 21
41.26015684112741
  0
LINE
  5
18C
100
AcDbEntity
  8
Furniture
  6
ByLayer
 62
  256
370
   -1
100
AcDbLine
 10
13.59999999999996
 20
40.76015684112741
 11
13.59999999999996
 21
41.26015684112741
  0
LINE
  5
18D
100
AcDbEntity
  8
Furniture
  6
ByLayer
 62
  256
370
   -1
100
AcDbLine
 10
17.83999999999999
 20
40.76015684112741
 11
17.83999999999999
 21
41.26015684112741
  0
LINE
  5
18E
100
AcDbEntity
  8
Furniture
  6
ByLayer
 62
  256
370
   -1
100
AcDbLine
 10
19.96000000000001
 20
40.76015684112732
 11
19.96000000000001
 21
41.26015684112732
  0
LINE
  5
18F
100
AcDbEntity
  8
Furniture
  6
ByLayer
 62
  256
370
   -1
100
AcDbLine
 10
22.36000000000004
 20
40.76015684112732
 11
22.36000000000004
 21
41.26015684112732
  0
LINE
  5
190
100
AcDbEntity
  8
Projection
  6
ByLayer
 62
  256
370
   -1
100
AcDbLine
 10
30.16000000000005
 20
34.05015684112732
 11
31.16000000000007
 21
34.05015684112732
  0
LINE
  5
191
100
AcDbEntity
  8
Projection
  6
ByLayer
 62
  256
370
   -1
100
AcDbLine
 10
30.16000000000005
 20
40.07015684112729
 11
31.16000000000007
 21
40.07015684112729
  0
LINE
  5
192
100
AcDbEntity
  8
Projection
  6
ByLayer
 62
  256
370
   -1
100
AcDbLine
 10
30.16000000000005
 20
40.07015684112729
 11
30.16000000000005
 21
34.05015684112732
  0
LINE
  5
193
100
AcDbEntity
  8
Projection
  6
ByLayer
 62
  256
370
   -1
100
AcDbLine
 10
31.16000000000007
 20
40.07015684112729
 11
31.16000000000007
 21
34.05015684112732
  0
LINE
  5
194
100
AcDbEntity
  8
Projection
  6
ByLayer
 62
  256
370
   -1
100
AcDbLine
 10
30.06000000000005
 20
40.17015684112732
 11
30.06000000000005
 21
33.95015684112732
  0
LINE
  5
195
100
AcDbEntity
  8
Projection
  6
ByLayer
 62
  256
370
   -1
100
AcDbLine
 10
30.06000000000005
 20
40.17015684112732
 11
31.26000000000008
 21
40.17015684112732
  0
LINE
  5
196
100
AcDbEntity
  8
Projection
  6
ByLayer
 62
  256
370
   -1
100
AcDbLine
 10
31.26000000000008
 20
40.17015684112732
 11
31.26000000000007
 21
33.95015684112732
  0
LINE
  5
197
100
AcDbEntity
  8
Projection
  6
ByLayer
 62
  256
370
   -1
100
AcDbLine
 10
30.06000000000005
 20
33.95015684112732
 11
31.26000000000007
 21
33.95015684112732
  0
LINE
  5
198
100
AcDbEntity
  8
Projection
  6
ByLayer
 62
  256
370
   -1
100
AcDbLine
 10
29.90000000000006
 20
39.81015684112732
 11
31.42000000000008
 21
39.81015684112732
  0
LINE
  5
199
100
AcDbEntity
  8
Projection
  6
ByLayer
 62
  256
370
   -1
100
AcDbLine
 10
29.90000000000006
 20
39.21015684112729
 11
31.42000000000008
 21
39.21015684112729
  0
LINE
  5
19A
100
AcDbEntity
  8
Projection
  6
ByLayer
 62
  256
370
   -1
100
AcDbLine
 10
29.90000000000006
 20
38.61015684112732
 11
31.42000000000008
 21
38.61015684112732
  0
LINE
  5
19B
100
AcDbEntity
  8
Projection
  6
ByLayer
 62
  256
370
   -1
100
AcDbLine
 10
29.90000000000006
 20
38.01015684112732
 11
31.42000000000008
 21
38.01015684112732
  0
LINE
  5
19C
100
AcDbEntity
  8
Projection
  6
ByLayer
 62
  256
370
   -1
100
AcDbLine
 10
29.90000000000006
 20
37.41015684112732
 11
31.42000000000008
 21
37.41015684112732
  0
LINE
  5
19D
100
AcDbEntity
  8
Projection
  6
ByLayer
 62
  256
370
   -1
100
AcDbLine
 10
29.90000000000006
 20
39.76015684112732
 11
31.42000000000008
 21
39.76015684112732
  0
LINE
  5
19E
100
AcDbEntity
  8
Projection
  6
ByLayer
 62
  256
370
   -1
100
AcDbLine
 10
29.90000000000006
 20
39.16015684112732
 11
31.42000000000008
 21
39.16015684112732
  0
LINE
  5
19F
100
AcDbEntity
  8
Projection
  6
ByLayer
 62
  256
370
   -1
100
AcDbLine
 10
29.90000000000006
 20
38.56015684112732
 11
31.42000000000008
 21
38.56015684112732
  0
LINE
  5
1A0
100
AcDbEntity
  8
Projection
  6
ByLayer
 62
  256
370
   -1
100
AcDbLine
 10
29.90000000000006
 20
37.96015684112738
 11
31.42000000000008
 21
37.96015684112738
  0
LINE
  5
1A1
100
AcDbEntity
  8
Projection
  6
ByLayer
 62
  256
370
   -1
100
AcDbLine
 10
29.90000000000006
 20
37.36015684112732
 11
31.42000000000008
 21
37.36015684112732
  0
LINE
  5
1A2
100
AcDbEntity
  8
Projection
  6
ByLayer
 62
  256
370
   -1
100
AcDbLine
 10
29.90000000000006
 20
34.31015684112732
 11
31.42000000000008
 21
34.31015684112732
  0
LINE
  5
1A3
100
AcDbEntity
  8
Projection
  6
ByLayer
 62
  256
370
   -1
100
AcDbLine
 10
29.90000000000006
 20
34.36015684112732
 11
31.42000000000008
 21
34.36015684112732
  0
LINE
  5
1A4
100
AcDbEntity
  8
Projection
  6
ByLayer
 62
  256
370
   -1
100
AcDbLine
 10
29.90000000000006
 20
34.96015684112729
 11
31.42000000000008
 21
34.96015684112729
  0
LINE
  5
1A5
100
AcDbEntity
  8
Projection
  6
ByLayer
 62
  256
370
   -1
100
AcDbLine
 10
29.90000000000006
 20
34.91015684112732
 11
31.42000000000008
 21
34.91015684112732
  0
LINE
  5
1A6
100
AcDbEntity
  8
Projection
  6
ByLayer
 62
  256
370
   -1
100
AcDbLine
 10
29.90000000000006
 20
35.51015684112732
 11
31.42000000000008
 21
35.51015684112732
  0
LINE
  5
1A7
100
AcDbEntity
  8
Projection
  6
ByLayer
 62
  256
370
   -1
100
AcDbLine
 10
29.90000000000006
 20
35.56015684112732
 11
31.42000000000008
 21
35.56015684112732
  0
LINE
  5
1A8
100
AcDbEntity
  8
Projection
  6
ByLayer
 62
  256
370
   -1
100
AcDbLine
 10
29.90000000000006
 20
36.16015684112732
 11
31.42000000000008
 21
36.16015684112732
  0
LINE
  5
1A9
100
AcDbEntity
  8
Projection
  6
ByLayer
 62
  256
370
   -1
100
AcDbLine
 10
29.90000000000006
 20
36.11015684112732
 11
31.42000000000008
 21
36.11015684112732
  0
LINE
  5
1AA
100
AcDbEntity
  8
Projection
  6
ByLayer
 62
  256
370
   -1
100
AcDbLine
 10
29.90000000000006
 20
36.71015684112729
 11
31.42000000000008
 21
36.71015684112729
  0
LINE
  5
1AB
100
AcDbEntity
  8
Projection
  6
ByLayer
 62
  256
370
   -1
100
AcDbLine
 10
29.90000000000006
 20
36.76015684112732
 11
31.42000000000008
 21
36.76015684112732
  0
LINE
  5
1AC
100
AcDbEntity
  8
Doors
  6
ByLayer
 62
  256
370
   -1
100
AcDbLine
 10
48.69808038323843
 20
41.39683577879588
 11
48.80259644002971
 21
41.31689649097692
  0
LINE
  5
1AD
100
AcDbEntity
  8
Doors
  6
ByLayer
 62
  256
370
   -1
100
AcDbLine
 10
48.80259644002971
 20
41.31689649097692
 11
48.87204044241587
 21
41.28431767740462
  0
LINE
  5
1AE
100
AcDbEntity
  8
Doors
  6
ByLayer
 62
  256
370
   -1
100
AcDbLine
 10
48.87204044241587
 20
41.28431767740462
 11
48.91630504407545
 21
41.31378338266208
  0
LINE
  5
1AF
100
AcDbEntity
  8
Doors
  6
ByLayer
 62
  256
370
   -1
100
AcDbLine
 10
48.91630504407545
 20
41.31378338266208
 11
48.93779891587018
 21
41.36601981778437
  0
LINE
  5
1B0
100
AcDbEntity
  8
Doors
  6
ByLayer
 62
  256
370
   -1
100
AcDbLine
 10
48.93779891587018
 20
41.3660198177844
 11
48.94397549360385
 21
41.27996874089065
  0
LINE
  5
1B1
100
AcDbEntity
  8
Doors
  6
ByLayer
 62
  256
370
   -1
100
AcDbLine
 10
48.94397549360385
 20
41.27996874089065
 11
48.88868207676741
 21
41.21237827750994
  0
LINE
  5
1B2
100
AcDbEntity
  8
Doors
  6
ByLayer
 62
  256
370
   -1
100
AcDbLine
 10
48.88868207676741
 20
41.21237827750994
 11
48.81186455932139
 21
41.17860033458043
  0
LINE
  5
1B3
100
AcDbEntity
  8
Doors
  6
ByLayer
 62
  256
370
   -1
100
AcDbLine
 10
48.81186455932139
 20
41.17860033458043
 11
48.82724015433657
 21
41.15093635507909
  0
LINE
  5
1B4
100
AcDbEntity
  8
Doors
  6
ByLayer
 62
  256
370
   -1
100
AcDbLine
 10
48.69808038323843
 20
41.39683577879588
 11
48.66984306754723
 21
41.46976848648168
  0
LINE
  5
1B5
100
AcDbEntity
  8
Doors
  6
ByLayer
 62
  256
370
   -1
100
AcDbLine
 10
48.688577886709
 20
41.42427460031363
 11
48.62689398135506
 21
41.43516770152829
  0
LINE
  5
1B6
100
AcDbEntity
  8
Doors
  6
ByLayer
 62
  256
370
   -1
100
AcDbLine
 10
48.90235888309616
 20
41.45355710938858
 11
48.87381642948519
 21
41.43981351682436
  0
LINE
  5
1B7
100
AcDbEntity
  8
Doors
  6
ByLayer
 62
  256
370
   -1
100
AcDbLine
 10
48.87381642948519
 20
41.43981351682436
 11
48.85690218779183
 21
41.42712752619514
  0
LINE
  5
1B8
100
AcDbEntity
  8
Doors
  6
ByLayer
 62
  256
370
   -1
100
AcDbLine
 10
48.85690218779183
 20
41.42712752619514
 11
48.83787408573146
 21
41.42289832053686
  0
LINE
  5
1B9
100
AcDbEntity
  8
Doors
  6
ByLayer
 62
  256
370
   -1
100
AcDbLine
 10
48.83787408573146
 20
41.42289832053686
 11
48.82201760507209
 21
41.4260689873437
  0
LINE
  5
1BA
100
AcDbEntity
  8
Doors
  6
ByLayer
 62
  256
370
   -1
100
AcDbLine
 10
48.82201760507209
 20
41.4260689873437
 11
48.80616174313116
 21
41.44403913391574
  0
LINE
  5
1BB
100
AcDbEntity
  8
Doors
  6
ByLayer
 62
  256
370
   -1
100
AcDbLine
 10
48.80616174313116
 20
41.44403913391574
 11
48.79242044866399
 21
41.47046624223542
  0
LINE
  5
1BC
100
AcDbEntity
  8
Doors
  6
ByLayer
 62
  256
370
   -1
100
AcDbLine
 10
48.79242044866399
 20
41.47046624223542
 11
48.77973650864443
 21
41.50217892071148
  0
LINE
  5
1BD
100
AcDbEntity
  8
Doors
  6
ByLayer
 62
  256
370
   -1
100
AcDbLine
 10
48.85240170061692
 20
41.28460725530918
 11
48.85129815441891
 21
41.23932608158563
  0
LINE
  5
1BE
100
AcDbEntity
  8
Doors
  6
ByLayer
 62
  256
370
   -1
100
AcDbLine
 10
48.85129815441891
 20
41.23932608158567
 11
48.82700178864066
 21
41.19514976220773
  0
LINE
  5
1BF
100
AcDbEntity
  8
Doors
  6
ByLayer
 62
  256
370
   -1
100
AcDbLine
 10
48.98164354913472
 20
41.49267337264033
 11
48.94887105901505
 21
41.44087377040976
  0
LINE
  5
1C0
100
AcDbEntity
  8
Doors
  6
ByLayer
 62
  256
370
   -1
100
AcDbLine
 10
48.94887105901506
 20
41.44087377040976
 11
48.92138558862061
 21
41.42395890999795
  0
LINE
  5
1C1
100
AcDbEntity
  8
Doors
  6
ByLayer
 62
  256
370
   -1
100
AcDbLine
 10
48.9213855886206
 20
41.42395890999795
 11
48.90870055258554
 21
41.43030102142913
  0
LINE
  5
1C2
100
AcDbEntity
  8
Doors
  6
ByLayer
 62
  256
370
   -1
100
AcDbLine
 10
48.90870055258554
 20
41.43030102142913
 11
48.90975850807386
 21
41.45038608902832
  0
LINE
  5
1C3
100
AcDbEntity
  8
Doors
  6
ByLayer
 62
  256
370
   -1
100
AcDbLine
 10
48.90975850807386
 20
41.45038608902831
 11
48.90764569068937
 21
41.48421342336651
  0
LINE
  5
1C4
100
AcDbEntity
  8
Doors
  6
ByLayer
 62
  256
370
   -1
100
AcDbLine
 10
48.90764569068937
 20
41.48421342336654
 11
48.89495987683682
 21
41.47152760951396
  0
LINE
  5
1C5
100
AcDbEntity
  8
Doors
  6
ByLayer
 62
  256
370
   -1
100
AcDbLine
 10
48.89495987683682
 20
41.47152760951396
 11
48.8685324326414
 21
41.47681206597716
  0
LINE
  5
1C6
100
AcDbEntity
  8
Doors
  6
ByLayer
 62
  256
370
   -1
100
AcDbLine
 10
48.8685324326414
 20
41.47681206597716
 11
48.8410486239479
 21
41.50006727005314
  0
LINE
  5
1C7
100
AcDbEntity
  8
Doors
  6
ByLayer
 62
  256
370
   -1
100
AcDbLine
 10
48.8410486239479
 20
41.50006727005314
 11
48.8283648253497
 21
41.53600837637001
  0
LINE
  5
1C8
100
AcDbEntity
  8
Doors
  6
ByLayer
 62
  256
370
   -1
100
AcDbLine
 10
48.8283648253497
 20
41.53600837637001
 11
48.82307959106906
 21
41.54340789528171
  0
LINE
  5
1C9
100
AcDbEntity
  8
Doors
  6
ByLayer
 62
  256
370
   -1
100
AcDbLine
 10
48.82307959106906
 20
41.54340789528171
 11
48.80193667404751
 21
41.52437908611456
  0
LINE
  5
1CA
100
AcDbEntity
  8
Doors
  6
ByLayer
 62
  256
370
   -1
100
AcDbLine
 10
48.80193667404751
 20
41.52437908611456
 11
48.78713655788624
 21
41.50957896995329
  0
LINE
  5
1CB
100
AcDbEntity
  8
Doors
  6
ByLayer
 62
  256
370
   -1
100
AcDbLine
 10
48.78713655788624
 20
41.50957896995329
 11
48.76916482032395
 21
41.48737898132686
  0
LINE
  5
1CC
100
AcDbEntity
  8
Doors
  6
ByLayer
 62
  256
370
   -1
100
AcDbLine
 10
48.76916482032395
 20
41.48737898132686
 11
48.7670498109084
 21
41.46835096765481
  0
LINE
  5
1CD
100
AcDbEntity
  8
Doors
  6
ByLayer
 62
  256
370
   -1
100
AcDbLine
 10
48.7670498109084
 20
41.46835096765481
 11
48.77127770841915
 21
41.4556658609091
  0
LINE
  5
1CE
100
AcDbEntity
  8
Doors
  6
ByLayer
 62
  256
370
   -1
100
AcDbLine
 10
48.77127770841915
 20
41.4556658609091
 11
48.75647819329861
 21
41.45566524219065
  0
LINE
  5
1CF
100
AcDbEntity
  8
Doors
  6
ByLayer
 62
  256
370
   -1
100
AcDbLine
 10
48.75647819329861
 20
41.45566524219065
 11
48.73639480507799
 21
41.49477736886777
  0
LINE
  5
1D0
100
AcDbEntity
  8
Doors
  6
ByLayer
 62
  256
370
   -1
100
AcDbLine
 10
48.736394805078
 20
41.49477736886777
 11
48.74379679886344
 21
41.54869012435852
  0
LINE
  5
1D1
100
AcDbEntity
  8
Doors
  6
ByLayer
 62
  256
370
   -1
100
AcDbLine
 10
48.74379679886344
 20
41.54869012435852
 11
48.7659977597617
 21
41.58991823272302
  0
LINE
  5
1D2
100
AcDbEntity
  8
Doors
  6
ByLayer
 62
  256
370
   -1
100
AcDbLine
 10
48.7659977597617
 20
41.58991823272302
 11
48.79352098965823
 21
41.62687709550769
  0
LINE
  5
1D3
100
AcDbEntity
  8
Doors
  6
ByLayer
 62
  256
370
   -1
100
AcDbLine
 10
48.74379679886344
 20
41.54869012435852
 11
48.7088972431576
 21
41.49435167290783
  0
LINE
  5
1D4
100
AcDbEntity
  8
Doors
  6
ByLayer
 62
  256
370
   -1
100
AcDbLine
 10
48.7088972431576
 20
41.49435167290783
 11
48.69281181900016
 21
41.54123760779359
  0
LINE
  5
1D5
100
AcDbEntity
  8
Doors
  6
ByLayer
 62
  256
370
   -1
100
AcDbLine
 10
48.69281181900016
 20
41.54123760779359
 11
48.6837233578639
 21
41.47965767579672
  0
LINE
  5
1D6
100
AcDbEntity
  8
Doors
  6
ByLayer
 62
  256
370
   -1
100
AcDbLine
 10
48.6837233578639
 20
41.47965767579672
 11
48.59631440614052
 21
41.41738205679314
  0
LINE
  5
1D7
100
AcDbEntity
  8
Doors
  6
ByLayer
 62
  256
370
   -1
100
AcDbLine
 10
48.59631440614051
 20
41.41738205679314
 11
48.5270874501808
 21
41.34320927780779
  0
LINE
  5
1D8
100
AcDbEntity
  8
Doors
  6
ByLayer
 62
  256
370
   -1
100
AcDbLine
 10
48.52708745018081
 20
41.34320927780779
 11
48.51757665184181
 21
41.35566581228649
  0
LINE
  5
1D9
100
AcDbEntity
  8
Doors
  6
ByLayer
 62
  256
370
   -1
100
AcDbLine
 10
48.51757665184181
 20
41.35566581228649
 11
48.48639295994877
 21
41.23166686003085
  0
LINE
  5
1DA
100
AcDbEntity
  8
Doors
  6
ByLayer
 62
  256
370
   -1
100
AcDbLine
 10
48.48639295994877
 20
41.23166686003085
 11
48.47366608086994
 21
41.22648919436929
  0
LINE
  5
1DB
100
AcDbEntity
  8
Doors
  6
ByLayer
 62
  256
370
   -1
100
AcDbLine
 10
48.47366608086994
 20
41.22648919436929
 11
48.48009822467199
 21
41.26175764768291
  0
LINE
  5
1DC
100
AcDbEntity
  8
Doors
  6
ByLayer
 62
  256
370
   -1
100
AcDbLine
 10
48.48009822467199
 20
41.26175764768291
 11
48.42653435566704
 21
41.21473540028742
  0
LINE
  5
1DD
100
AcDbEntity
  8
Doors
  6
ByLayer
 62
  256
370
   -1
100
AcDbLine
 10
48.42653435566704
 20
41.21473540028742
 11
48.41268794977687
 21
41.22691225635651
  0
LINE
  5
1DE
100
AcDbEntity
  8
Doors
  6
ByLayer
 62
  256
370
   -1
100
AcDbLine
 10
48.41268794977687
 20
41.22691225635651
 11
48.44639053280115
 21
41.31186349936281
  0
LINE
  5
1DF
100
AcDbEntity
  8
Doors
  6
ByLayer
 62
  256
370
   -1
100
AcDbLine
 10
48.44639053280115
 20
41.31186349936281
 11
48.49421942993499
 21
41.38029922051204
  0
LINE
  5
1E0
100
AcDbEntity
  8
Doors
  6
ByLayer
 62
  256
370
   -1
100
AcDbLine
 10
48.49421942993499
 20
41.38029922051204
 11
48.4911407577204
 21
41.42802422598202
  0
LINE
  5
1E1
100
AcDbEntity
  8
Doors
  6
ByLayer
 62
  256
370
   -1
100
AcDbLine
 10
48.4911407577204
 20
41.42802422598202
 11
48.62316252583772
 21
41.54110133063919
  0
LINE
  5
1E2
100
AcDbEntity
  8
Doors
  6
ByLayer
 62
  256
370
   -1
100
AcDbLine
 10
48.62316252583772
 20
41.54110133063919
 11
48.64629550650658
 21
41.56064305738773
  0
LINE
  5
1E3
100
AcDbEntity
  8
Doors
  6
ByLayer
 62
  256
370
   -1
100
AcDbLine
 10
48.64629550650658
 20
41.56064305738773
 11
48.64884911658083
 21
41.56895092567056
  0
LINE
  5
1E4
100
AcDbEntity
  8
Doors
  6
ByLayer
 62
  256
370
   -1
100
AcDbLine
 10
48.64884911658081
 20
41.56895092567056
 11
48.70107261164903
 21
41.62732292633324
  0
LINE
  5
1E5
100
AcDbEntity
  8
Doors
  6
ByLayer
 62
  256
370
   -1
100
AcDbLine
 10
48.70107261164904
 20
41.62732292633324
 11
48.74716269785256
 21
41.64881895480363
  0
LINE
  5
1E6
100
AcDbEntity
  8
Doors
  6
ByLayer
 62
  256
370
   -1
100
AcDbLine
 10
48.74716269785256
 20
41.64881895480363
 11
48.80555843962542
 21
41.6334325587324
  0
LINE
  5
1E7
100
AcDbEntity
  8
Doors
  6
ByLayer
 62
  256
370
   -1
100
AcDbLine
 10
48.80555843962542
 20
41.6334325587324
 11
48.81170047519284
 21
41.64572309989424
  0
LINE
  5
1E8
100
AcDbEntity
  8
Doors
  6
ByLayer
 62
  256
370
   -1
100
AcDbLine
 10
48.81170047519284
 20
41.64572309989424
 11
48.88544807087067
 21
41.67028261546115
  0
LINE
  5
1E9
100
AcDbEntity
  8
Doors
  6
ByLayer
 62
  256
370
   -1
100
AcDbLine
 10
48.88544807087067
 20
41.67028261546115
 11
48.9530644143595
 21
41.65181980991695
  0
LINE
  5
1EA
100
AcDbEntity
  8
Doors
  6
ByLayer
 62
  256
370
   -1
100
AcDbLine
 10
48.9530644143595
 20
41.65181980991695
 11
48.9961126332564
 21
41.58419482204772
  0
LINE
  5
1EB
100
AcDbEntity
  8
Doors
  6
ByLayer
 62
  256
370
   -1
100
AcDbLine
 10
48.9961126332564
 20
41.58419482204772
 11
48.98077591143655
 21
41.50122446797823
  0
LINE
  5
1EC
100
AcDbEntity
  8
Doors
  6
ByLayer
 62
  256
370
   -1
100
AcDbLine
 10
48.98077591143655
 20
41.50122446797823
 11
48.99000296550191
 21
41.47970899407132
  0
LINE
  5
1ED
100
AcDbEntity
  8
Doors
  6
ByLayer
 62
  256
370
   -1
100
AcDbLine
 10
48.99000296550191
 20
41.47970899407135
 11
49.03074122564369
 21
41.41419180312849
  0
LINE
  5
1EE
100
AcDbEntity
  8
Doors
  6
ByLayer
 62
  256
370
   -1
100
AcDbLine
 10
49.03074122564369
 20
41.41419180312849
 11
49.0208254142181
 21
41.22155139700559
  0
LINE
  5
1EF
100
AcDbEntity
  8
Doors
  6
ByLayer
 62
  256
370
   -1
100
AcDbLine
 10
49.0208254142181
 20
41.22155139700559
 11
48.86556880670009
 21
41.1219252841266
  0
LINE
  5
1F0
100
AcDbEntity
  8
Doors
  6
ByLayer
 62
  256
370
   -1
100
AcDbLine
 10
48.86556880670009
 20
41.1219252841266
 11
48.83339295560471
 21
41.13249513396941
  0
LINE
  5
1F1
100
AcDbEntity
  8
Doors
  6
ByLayer
 62
  256
370
   -1
100
AcDbLine
 10
48.83339295560471
 20
41.13249513396941
 11
48.77231977168255
 21
41.09519240515701
  0
LINE
  5
1F2
100
AcDbEntity
  8
Doors
  6
ByLayer
 62
  256
370
   -1
100
AcDbLine
 10
48.77231977168255
 20
41.09519240515701
 11
48.68880749097595
 21
41.07510389041229
  0
LINE
  5
1F3
100
AcDbEntity
  8
Doors
  6
ByLayer
 62
  256
370
   -1
100
AcDbLine
 10
48.68880749097595
 20
41.07510389041225
 11
48.61903966903932
 21
41.10469998616018
  0
LINE
  5
1F4
100
AcDbEntity
  8
Doors
  6
ByLayer
 62
  256
370
   -1
100
AcDbLine
 10
48.61903966903932
 20
41.10469998616018
 11
48.63806821304142
 21
41.11950027909817
  0
LINE
  5
1F5
100
AcDbEntity
  8
Doors
  6
ByLayer
 62
  256
370
   -1
100
AcDbLine
 10
48.63806821304142
 20
41.11950027909817
 11
48.70077152558157
 21
41.12898015919316
  0
LINE
  5
1F6
100
AcDbEntity
  8
Doors
  6
ByLayer
 62
  256
370
   -1
100
AcDbLine
 10
48.70077152558157
 20
41.12898015919316
 11
48.67383646710567
 21
41.14499441305309
  0
LINE
  5
1F7
100
AcDbEntity
  8
Doors
  6
ByLayer
 62
  256
370
   -1
100
AcDbLine
 10
48.67383646710567
 20
41.14499441305309
 11
48.67338519155791
 21
41.15367800252413
  0
LINE
  5
1F8
100
AcDbEntity
  8
Doors
  6
ByLayer
 62
  256
370
   -1
100
AcDbLine
 10
48.67338519155791
 20
41.15367800252413
 11
48.74376188546613
 21
41.14641857914341
  0
LINE
  5
1F9
100
AcDbEntity
  8
Doors
  6
ByLayer
 62
  256
370
   -1
100
AcDbLine
 10
48.74376188546614
 20
41.14641857914341
 11
48.80743501263433
 21
41.16935164304753
  0
ENDSEC
  0
SECTION
  2
OBJECTS
  0
DICTIONARY
  5
C
330
0
100
AcDbDictionary
281
    1
  3
ACAD_GROUP
350
D
  0
DICTIONARY
  5
D
330
C
100
AcDbDictionary
281
    1
  0
ENDSEC
  0
EOF
