999
dxfrw 0.6.3
  0
SECTION
  2
HEADER
  9
$ACADVER
  1
AC1021
  9
$DWGCODEPAGE
  3
ANSI_1252
  9
$INSBASE
 10
0
 20
0
 30
0
  9
$EXTMIN
 10
-0.84
 20
-0.84
 30
0
  9
$EXTMAX
 10
115.1157328942078
 20
49.21015684112732
 30
0
  9
$LIMMIN
 10
0
 20
0
  9
$LIMMAX
 10
12
 20
9
  9
$ORTHOMODE
 70
    0
  9
$REGENMODE
 70
    1
  9
$FILLMODE
 70
    1
  9
$QTEXTMODE
 70
    0
  9
$MIRRTEXT
 70
    1
  9
$LTSCALE
 40
1
  9
$ATTMODE
 70
    1
  9
$TEXTSIZE
 40
1
  9
$TRACEWID
 40
0.05
  9
$TEXTSTYLE
  7
STANDARD
  9
$CLAYER
  8
0
  9
$CELTYPE
  6
ByBlock
  9
$CECOLOR
 62
  256
  9
$CELTSCALE
 40
1
  9
$DISPSILH
 70
    0
  9
$DIMSCALE
 40
1
  9
$DIMASZ
 40
0.18
  9
$DIMEXO
 40
0.0625
  9
$DIMDLI
 40
0.38
  9
$DIMRND
 40
0
  9
$DIMDLE
 40
0
  9
$DIMEXE
 40
0.18
  9
$DIMTP
 40
0
  9
$DIMTM
 40
0
  9
$DIMTXT
 40
0.18
  9
$DIMCEN
 40
0.09
  9
$DIMTSZ
 40
0
  9
$DIMTOL
 70
    0
  9
$DIMLIM
 70
    0
  9
$DIMTIH
 70
    1
  9
$DIMTOH
 70
    1
  9
$DIMSE1
 70
    0
  9
$DIMSE2
 70
    0
  9
$DIMTAD
 70
    0
  9
$DIMZIN
 70
    0
  9
$DIMBLK
  1

  9
$DIMASO
 70
    1
  9
$DIMSHO
 70
    1
  9
$DIMPOST
  1

  9
$DIMAPOST
  1

  9
$DIMALT
 70
    0
  9
$DIMALTD
 70
    2
  9
$DIMALTF
 40
25.4
  9
$DIMLFAC
 40
1
  9
$DIMTOFL
 70
    0
  9
$DIMTVP
 40
0
  9
$DIMTIX
 70
    0
  9
$DIMSOXD
 70
    0
  9
$DIMSAH
 70
    0
  9
$DIMBLK1
  1

  9
$DIMBLK2
  1

  9
$DIMSTYLE
  2
Standard
  9
$DIMCLRD
 70
    0
  9
$DIMCLRE
 70
    0
  9
$DIMCLRT
 70
    0
  9
$DIMTFAC
 40
1
  9
$DIMGAP
 40
0.09
  9
$DIMJUST
 70
    0
  9
$DIMSD1
 70
    0
  9
$DIMSD2
 70
    0
  9
$DIMTOLJ
 70
    1
  9
$DIMTZIN
 70
    0
  9
$DIMALTZ
 70
    0
  9
$DIMALTTZ
 70
    0
  9
$DIMUPT
 70
    0
  9
$DIMDEC
 70
    4
  9
$DIMTDEC
 70
    4
  9
$DIMALTU
 70
    2
  9
$DIMALTTD
 70
    2
  9
$DIMTXSTY
  7
STANDARD
  9
$DIMAUNIT
 70
    0
  9
$DIMADEC
 70
    0
  9
$DIMALTRND
 40
0
  9
$DIMAZIN
 70
    0
  9
$DIMDSEP
 70
   46
  9
$DIMATFIT
 70
    3
  9
$DIMFRAC
 70
    0
  9
$DIMLDRBLK
  1

  9
$DIMLUNIT
 70
    2
  9
$DIMLWD
 70
   -2
  9
$DIMLWE
 70
   -2
  9
$DIMTMOVE
 70
    2
  9
$DIMFXL
 40
1
  9
$DIMFXLON
 70
    0
  9
$DIMJOGANG
 40
0.7854
  9
$DIMTFILL
 70
    0
  9
$DIMTFILLCLR
 70
    0
  9
$DIMARCSYM
 70
    0
  9
$DIMLTYPE
  6

  9
$DIMLTEX1
  6

  9
$DIMLTEX2
  6

  9
$LUNITS
 70
    2
  9
$LUPREC
 70
    4
  9
$SKETCHINC
 40
0.1
  9
$FILLETRAD
 40
0.5
  9
$AUNITS
 70
    0
  9
$AUPREC
 70
    0
  9
$MENU
  1
.
  9
$ELEVATION
 40
0
  9
$PELEVATION
 40
0
  9
$THICKNESS
 40
0
  9
$LIMCHECK
 70
    0
  9
$CHAMFERA
 40
0
  9
$CHAMFERB
 40
0
  9
$CHAMFERC
 40
0
  9
$CHAMFERD
 40
0
  9
$SKPOLY
 70
    0
  9
$USRTIMER
 70
    1
  9
$ANGBASE
 50
0
  9
$ANGDIR
 70
    0
  9
$PDMODE
 70
    0
  9
$PDSIZE
 40
0
  9
$PLINEWID
 40
0
  9
$SPLFRAME
 70
    0
  9
$SPLINETYPE
 70
    6
  9
$SPLINESEGS
 70
    8
  9
$HANDSEED
  5
20000
  9
$SURFTAB1
 70
    6
  9
$SURFTAB2
 70
    6
  9
$SURFTYPE
 70
    6
  9
$SURFU
 70
    6
  9
$SURFV
 70
    6
  9
$UCSBASE
  2

  9
$UCSNAME
  2

  9
$UCSORG
 10
0
 20
0
 30
0
  9
$UCSXDIR
 10
1
 20
0
 30
0
  9
$UCSYDIR
 10
0
 20
1
 30
0
  9
$UCSORTHOREF
  2

  9
$UCSORTHOVIEW
 70
    0
  9
$UCSORGTOP
 10
0
 20
0
 30
0
  9
$UCSORGBOTTOM
 10
0
 20
0
 30
0
  9
$UCSORGLEFT
 10
0
 20
0
 30
0
  9
$UCSORGRIGHT
 10
0
 20
0
 30
0
  9
$UCSORGFRONT
 10
0
 20
0
 30
0
  9
$UCSORGBACK
 10
0
 20
0
 30
0
  9
$PUCSBASE
  2

  9
$PUCSNAME
  2

  9
$PUCSORG
 10
0
 20
0
 30
0
  9
$PUCSXDIR
 10
1
 20
0
 30
0
  9
$PUCSYDIR
 10
0
 20
1
 30
0
  9
$PUCSORTHOREF
  2

  9
$PUCSORTHOVIEW
 70
    0
  9
$PUCSORGTOP
 10
0
 20
0
 30
0
  9
$PUCSORGBOTTOM
 10
0
 20
0
 30
0
  9
$PUCSORGLEFT
 10
0
 20
0
 30
0
  9
$PUCSORGRIGHT
 10
0
 20
0
 30
0
  9
$PUCSORGFRONT
 10
0
 20
0
 30
0
  9
$PUCSORGBACK
 10
0
 20
0
 30
0
  9
$USERI1
 70
    0
  9
$USERI2
 70
    0
  9
$USERI3
 70
    0
  9
$USERI4
 70
    0
  9
$USERI5
 70
    0
  9
$USERR1
 40
0
  9
$USERR2
 40
0
  9
$USERR3
 40
0
  9
$USERR4
 40
0
  9
$USERR5
 40
0
  9
$WORLDVIEW
 70
    1
  9
$SHADEDGE
 70
    3
  9
$SHADEDIF
 70
   70
  9
$TILEMODE
 70
    1
  9
$MAXACTVP
 70
   64
  9
$PINSBASE
 10
0
 20
0
 30
0
  9
$PLIMCHECK
 70
    0
  9
$PEXTMIN
 10
1e+20
 20
1e+20
 30
1e+20
  9
$PEXTMAX
 10
-1e+20
 20
-1e+20
 30
-1e+20
  9
$GRIDMODE
 70
    0
  9
$SNAPSTYLE
 70
    0
  9
$PLIMMIN
 10
0
 20
0
  9
$PLIMMAX
 10
0
 20
0
  9
$UNITMODE
 70
    0
  9
$VISRETAIN
 70
    1
  9
$PLINEGEN
 70
    0
  9
$PSLTSCALE
 70
    1
  9
$TREEDEPTH
 70
 3020
  9
$CMLSTYLE
  2
Standard
  9
$CMLJUST
 70
    0
  9
$CMLSCALE
 40
1
  9
$PROXYGRAPHICS
 70
    1
  9
$MEASUREMENT
 70
    0
  9
$CELWEIGHT
370
   -1
  9
$ENDCAPS
280
    0
  9
$JOINSTYLE
280
    0
  9
$LWDISPLAY
290
    0
  9
$INSUNITS
 70
    1
  9
$HYPERLINKBASE
  1

  9
$STYLESHEET
  1

  9
$XEDIT
290
    1
  9
$CEPSNTYPE
380
    0
  9
$PSTYLEMODE
290
    1
  9
$EXTNAMES
290
    1
  9
$PSVPSCALE
 40
0
  9
$OLESTARTUP
290
    0
  9
$SORTENTS
280
  127
  9
$INDEXCTL
280
    0
  9
$HIDETEXT
280
    1
  9
$XCLIPFRAME
290
    0
  9
$HALOGAP
280
    0
  9
$OBSCOLOR
 70
  257
  9
$OBSLTYPE
280
    0
  9
$INTERSECTIONDISPLAY
280
    0
  9
$INTERSECTIONCOLOR
 70
  257
  9
$DIMASSOC
280
    1
  9
$PROJECTNAME
  1

  9
$CAMERADISPLAY
290
    0
  9
$LENSLENGTH
 40
50
  9
$CAMERAHEIGHT
 40
0
  9
$STEPSPERSEC
 40
2
  9
$STEPSIZE
 40
50
  9
$3DDWFPREC
 40
2
  9
$PSOLWIDTH
 40
5
  9
$PSOLHEIGHT
 40
80
  9
$LOFTANG1
 40
1.570796326794897
  9
$LOFTANG2
 40
1.570796326794897
  9
$LOFTMAG1
 40
0
  9
$LOFTMAG2
 40
0
  9
$LOFTPARAM
 70
    7
  9
$LOFTNORMALS
280
    1
  9
$LATITUDE
 40
1
  9
$LONGITUDE
 40
1
  9
$NORTHDIRECTION
 40
0
  9
$TIMEZONE
 70
-8000
  9
$LIGHTGLYPHDISPLAY
280
    1
  9
$TILEMODELIGHTSYNCH
280
    1
  9
$SOLIDHIST
280
    1
  9
$SHOWHIST
280
    1
  9
$DWFFRAME
280
    2
  9
$DGNFRAME
280
    0
  9
$REALWORLDSCALE
290
    1
  9
$INTERFERECOLOR
 62
    1
  9
$CSHADOW
280
    0
  9
$SHADOWPLANELOCATION
 40
0
  0
ENDSEC
  0
SECTION
  2
CLASSES
  0
ENDSEC
  0
SECTION
  2
TABLES
  0
TABLE
  2
VPORT
  5
8
330
0
100
AcDbSymbolTable
 70
    1
  0
VPORT
  5
31
330
2
100
AcDbSymbolTableRecord
100
AcDbViewportTableRecord
  2
*ACTIVE
 70
    0
 10
0
 20
0
 11
1
 21
1
 12
64.1872298799524
 22
24.83363762478721
 13
0
 23
0
 14
10
 24
10
 15
10
 25
10
 16
0
 26
0
 36
1
 17
0
 27
0
 37
0
 40
43.15587170010868
 41
1.864537444933921
 42
50
 43
0
 44
0
 50
0
 51
0
 71
    0
 72
  100
 73
    1
 74
    3
 75
    0
 76
    0
 77
    0
 78
    0
281
    0
 65
    1
110
0
120
0
130
0
111
1
121
0
131
0
112
0
122
1
132
0
 79
    0
146
0
348
10020
 60
    7
 61
    5
292
1
282
    1
141
0
142
0
 63
  250
421
3358443
  0
ENDTAB
  0
TABLE
  2
LTYPE
  5
5
330
0
100
AcDbSymbolTable
 70
    4
  0
LTYPE
  5
14
330
5
100
AcDbSymbolTableRecord
100
AcDbLinetypeTableRecord
  2
ByBlock
 70
    0
  3

 72
   65
 73
    0
 40
0
  0
LTYPE
  5
15
330
5
100
AcDbSymbolTableRecord
100
AcDbLinetypeTableRecord
  2
ByLayer
 70
    0
  3

 72
   65
 73
    0
 40
0
  0
LTYPE
  5
16
330
5
100
AcDbSymbolTableRecord
100
AcDbLinetypeTableRecord
  2
Continuous
 70
    0
  3
Solid line
 72
   65
 73
    0
 40
0
  0
LTYPE
  5
32
330
5
100
AcDbSymbolTableRecord
100
AcDbLinetypeTableRecord
  2
DOT
 70
    0
  3
Dot . . . . . . . . . . . . . . . . . . . . . .
 72
   65
 73
    2
 40
6.35
 49
0
 74
    0
 49
-6.35
 74
    0
  0
LTYPE
  5
33
330
5
100
AcDbSymbolTableRecord
100
AcDbLinetypeTableRecord
  2
DOTTINY
 70
    0
  3
Dot (.15x) .....................................
 72
   65
 73
    2
 40
0.9525
 49
0
 74
    0
 49
-0.9525
 74
    0
  0
LTYPE
  5
34
330
5
100
AcDbSymbolTableRecord
100
AcDbLinetypeTableRecord
  2
DOT2
 70
    0
  3
Dot (.5x) .....................................
 72
   65
 73
    2
 40
3.175
 49
0
 74
    0
 49
-3.175
 74
    0
  0
LTYPE
  5
35
330
5
100
AcDbSymbolTableRecord
100
AcDbLinetypeTableRecord
  2
DOTX2
 70
    0
  3
Dot (2x) .  .  .  .  .  .  .  .  .  .  .  .  .
 72
   65
 73
    2
 40
12.7
 49
0
 74
    0
 49
-12.7
 74
    0
  0
LTYPE
  5
36
330
5
100
AcDbSymbolTableRecord
100
AcDbLinetypeTableRecord
  2
DASHED
 70
    0
  3
Dashed _ _ _ _ _ _ _ _ _ _ _ _ _ _ _ _ _
 72
   65
 73
    2
 40
19.05
 49
12.7
 74
    0
 49
-6.35
 74
    0
  0
LTYPE
  5
37
330
5
100
AcDbSymbolTableRecord
100
AcDbLinetypeTableRecord
  2
DASHEDTINY
 70
    0
  3
Dashed (.15x) _ _ _ _ _ _ _ _ _ _ _ _ _ _ _ _ _
 72
   65
 73
    2
 40
2.8575
 49
1.905
 74
    0
 49
-0.9525
 74
    0
  0
LTYPE
  5
38
330
5
100
AcDbSymbolTableRecord
100
AcDbLinetypeTableRecord
  2
DASHED2
 70
    0
  3
Dashed (.5x) _ _ _ _ _ _ _ _ _ _ _ _ _ _ _ _ _
 72
   65
 73
    2
 40
9.524999999999999
 49
6.35
 74
    0
 49
-3.175
 74
    0
  0
LTYPE
  5
39
330
5
100
AcDbSymbolTableRecord
100
AcDbLinetypeTableRecord
  2
DASHEDX2
 70
    0
  3
Dashed (2x) ____  ____  ____  ____  ____  ___
 72
   65
 73
    2
 40
38.09999999999999
 49
25.4
 74
    0
 49
-12.7
 74
    0
  0
LTYPE
  5
3A
330
5
100
AcDbSymbolTableRecord
100
AcDbLinetypeTableRecord
  2
DASHDOT
 70
    0
  3
Dash dot __ . __ . __ . __ . __ . __ . __ . __
 72
   65
 73
    4
 40
25.4
 49
12.7
 74
    0
 49
-6.35
 74
    0
 49
0
 74
    0
 49
-6.35
 74
    0
  0
LTYPE
  5
3B
330
5
100
AcDbSymbolTableRecord
100
AcDbLinetypeTableRecord
  2
DASHDOTTINY
 70
    0
  3
Dash dot (.15x) _._._._._._._._._._._._._._._.
 72
   65
 73
    4
 40
3.81
 49
1.905
 74
    0
 49
-0.9525
 74
    0
 49
0
 74
    0
 49
-0.9525
 74
    0
  0
LTYPE
  5
3C
330
5
100
AcDbSymbolTableRecord
100
AcDbLinetypeTableRecord
  2
DASHDOT2
 70
    0
  3
Dash dot (.5x) _._._._._._._._._._._._._._._.
 72
   65
 73
    4
 40
12.7
 49
6.35
 74
    0
 49
-3.175
 74
    0
 49
0
 74
    0
 49
-3.175
 74
    0
  0
LTYPE
  5
3D
330
5
100
AcDbSymbolTableRecord
100
AcDbLinetypeTableRecord
  2
DASHDOTX2
 70
    0
  3
Dash dot (2x) ____  .  ____  .  ____  .  ___
 72
   65
 73
    4
 40
50.8
 49
25.4
 74
    0
 49
-12.7
 74
    0
 49
0
 74
    0
 49
-12.7
 74
    0
  0
LTYPE
  5
3E
330
5
100
AcDbSymbolTableRecord
100
AcDbLinetypeTableRecord
  2
DIVIDE
 70
    0
  3
Divide ____ . . ____ . . ____ . . ____ . . ____
 72
   65
 73
    6
 40
31.75
 49
12.7
 74
    0
 49
-6.35
 74
    0
 49
0
 74
    0
 49
-6.35
 74
    0
 49
0
 74
    0
 49
-6.35
 74
    0
  0
LTYPE
  5
3F
330
5
100
AcDbSymbolTableRecord
100
AcDbLinetypeTableRecord
  2
DIVIDETINY
 70
    0
  3
Divide (.15x) __..__..__..__..__..__..__..__.._
 72
   65
 73
    6
 40
4.7625
 49
1.905
 74
    0
 49
-0.9525
 74
    0
 49
0
 74
    0
 49
-0.9525
 74
    0
 49
0
 74
    0
 49
-0.9525
 74
    0
  0
LTYPE
  5
40
330
5
100
AcDbSymbolTableRecord
100
AcDbLinetypeTableRecord
  2
DIVIDE2
 70
    0
  3
Divide (.5x) __..__..__..__..__..__..__..__.._
 72
   65
 73
    6
 40
15.875
 49
6.35
 74
    0
 49
-3.175
 74
    0
 49
0
 74
    0
 49
-3.175
 74
    0
 49
0
 74
    0
 49
-3.175
 74
    0
  0
LTYPE
  5
41
330
5
100
AcDbSymbolTableRecord
100
AcDbLinetypeTableRecord
  2
DIVIDEX2
 70
    0
  3
Divide (2x) ________  .  .  ________  .  .  _
 72
   65
 73
    6
 40
63.5
 49
25.4
 74
    0
 49
-12.7
 74
    0
 49
0
 74
    0
 49
-12.7
 74
    0
 49
0
 74
    0
 49
-12.7
 74
    0
  0
LTYPE
  5
42
330
5
100
AcDbSymbolTableRecord
100
AcDbLinetypeTableRecord
  2
BORDER
 70
    0
  3
Border __ __ . __ __ . __ __ . __ __ . __ __ .
 72
   65
 73
    6
 40
44.45
 49
12.7
 74
    0
 49
-6.35
 74
    0
 49
12.7
 74
    0
 49
-6.35
 74
    0
 49
0
 74
    0
 49
-6.35
 74
    0
  0
LTYPE
  5
43
330
5
100
AcDbSymbolTableRecord
100
AcDbLinetypeTableRecord
  2
BORDERTINY
 70
    0
  3
Border (.15x) __.__.__.__.__.__.__.__.__.__.__.
 72
   65
 73
    6
 40
6.6675
 49
1.905
 74
    0
 49
-0.9525
 74
    0
 49
1.905
 74
    0
 49
-0.9525
 74
    0
 49
0
 74
    0
 49
-0.9525
 74
    0
  0
LTYPE
  5
44
330
5
100
AcDbSymbolTableRecord
100
AcDbLinetypeTableRecord
  2
BORDER2
 70
    0
  3
Border (.5x) __.__.__.__.__.__.__.__.__.__.__.
 72
   65
 73
    6
 40
22.225
 49
6.35
 74
    0
 49
-3.175
 74
    0
 49
6.35
 74
    0
 49
-3.175
 74
    0
 49
0
 74
    0
 49
-3.175
 74
    0
  0
LTYPE
  5
45
330
5
100
AcDbSymbolTableRecord
100
AcDbLinetypeTableRecord
  2
BORDERX2
 70
    0
  3
Border (2x) ____  ____  .  ____  ____  .  ___
 72
   65
 73
    6
 40
88.89999999999999
 49
25.4
 74
    0
 49
-12.7
 74
    0
 49
25.4
 74
    0
 49
-12.7
 74
    0
 49
0
 74
    0
 49
-12.7
 74
    0
  0
LTYPE
  5
46
330
5
100
AcDbSymbolTableRecord
100
AcDbLinetypeTableRecord
  2
CENTER
 70
    0
  3
Center ____ _ ____ _ ____ _ ____ _ ____ _ ____
 72
   65
 73
    4
 40
50.8
 49
31.75
 74
    0
 49
-6.35
 74
    0
 49
6.35
 74
    0
 49
-6.35
 74
    0
  0
LTYPE
  5
47
330
5
100
AcDbSymbolTableRecord
100
AcDbLinetypeTableRecord
  2
CENTERTINY
 70
    0
  3
Center (.15x) ___ _ ___ _ ___ _ ___ _ ___ _ ___
 72
   65
 73
    4
 40
7.619999999999999
 49
4.7625
 74
    0
 49
-0.9525
 74
    0
 49
0.9525
 74
    0
 49
-0.9525
 74
    0
  0
LTYPE
  5
48
330
5
100
AcDbSymbolTableRecord
100
AcDbLinetypeTableRecord
  2
CENTER2
 70
    0
  3
Center (.5x) ___ _ ___ _ ___ _ ___ _ ___ _ ___
 72
   65
 73
    4
 40
28.575
 49
19.05
 74
    0
 49
-3.175
 74
    0
 49
3.175
 74
    0
 49
-3.175
 74
    0
  0
LTYPE
  5
49
330
5
100
AcDbSymbolTableRecord
100
AcDbLinetypeTableRecord
  2
CENTERX2
 70
    0
  3
Center (2x) ________  __  ________  __  _____
 72
   65
 73
    4
 40
101.6
 49
63.5
 74
    0
 49
-12.7
 74
    0
 49
12.7
 74
    0
 49
-12.7
 74
    0
  0
ENDTAB
  0
TABLE
  2
LAYER
  5
2
330
0
100
AcDbSymbolTable
 70
    1
  0
LAYER
  5
10
330
2
100
AcDbSymbolTableRecord
100
AcDbLayerTableRecord
  2
0
 70
    0
 62
    7
  6
CONTINUOUS
370
   -3
390
F
  0
LAYER
  5
4A
330
2
100
AcDbSymbolTableRecord
100
AcDbLayerTableRecord
  2
Cancel
 70
    0
 62
   30
  6
CONTINUOUS
370
   -3
390
F
  0
LAYER
  5
4B
330
2
100
AcDbSymbolTableRecord
100
AcDbLayerTableRecord
  2
Columns
 70
    0
 62
    9
  6
CONTINUOUS
370
   -3
390
F
  0
LAYER
  5
4C
330
2
100
AcDbSymbolTableRecord
100
AcDbLayerTableRecord
  2
Crystal
 70
    0
 62
    4
  6
CONTINUOUS
370
   -3
390
F
  0
LAYER
  5
4D
330
2
100
AcDbSymbolTableRecord
100
AcDbLayerTableRecord
  2
Defpoints
 70
    0
 62
    7
  6
CONTINUOUS
290
0
370
   -3
390
F
  0
LAYER
  5
4E
330
2
100
AcDbSymbolTableRecord
100
AcDbLayerTableRecord
  2
Doors
 70
    0
 62
    3
  6
CONTINUOUS
370
   -3
390
F
  0
LAYER
  5
4F
330
2
100
AcDbSymbolTableRecord
100
AcDbLayerTableRecord
  2
Flooring
 70
    0
 62
    1
  6
CONTINUOUS
370
   -3
390
F
  0
LAYER
  5
50
330
2
100
AcDbSymbolTableRecord
100
AcDbLayerTableRecord
  2
Furniture
 70
    0
 62
    2
  6
CONTINUOUS
370
   -3
390
F
  0
LAYER
  5
51
330
2
100
AcDbSymbolTableRecord
100
AcDbLayerTableRecord
  2
Projection
 70
    0
 62
    5
  6
CONTINUOUS
370
   -3
390
F
  0
LAYER
  5
52
330
2
100
AcDbSymbolTableRecord
100
AcDbLayerTableRecord
  2
Roof
 70
    0
 62
    6
  6
CONTINUOUS
370
   -3
390
F
  0
LAYER
  5
53
330
2
100
AcDbSymbolTableRecord
100
AcDbLayerTableRecord
  2
Walls
 70
    0
 62
    7
  6
CONTINUOUS
370
   -3
390
F
  0
ENDTAB
  0
TABLE
  2
STYLE
  5
3
330
0
100
AcDbSymbolTable
 70
    3
  0
STYLE
  5
54
330
2
100
AcDbSymbolTableRecord
100
AcDbTextStyleTableRecord
  2
Standard
 70
    0
 40
0
 41
1
 50
0
 71
    0
 42
1
  3
txt
  4

  0
ENDTAB
  0
TABLE
  2
VIEW
  5
6
330
0
100
AcDbSymbolTable
 70
    0
  0
ENDTAB
  0
TABLE
  2
UCS
  5
7
330
0
100
AcDbSymbolTable
 70
    0
  0
ENDTAB
  0
TABLE
  2
APPID
  5
9
330
0
100
AcDbSymbolTable
 70
    1
  0
APPID
  5
12
330
9
100
AcDbSymbolTableRecord
100
AcDbRegAppTableRecord
  2
ACAD
 70
    0
  0
APPID
  5
55
330
9
100
AcDbSymbolTableRecord
100
AcDbRegAppTableRecord
  2
LibreCad
 70
    0
  0
ENDTAB
  0
TABLE
  2
DIMSTYLE
  5
A
330
0
100
AcDbSymbolTable
 70
    1
100
AcDbDimStyleTable
 71
    1
  0
DIMSTYLE
105
56
330
A
100
AcDbSymbolTableRecord
100
AcDbDimStyleTableRecord
  2
Standard
 70
    0
 40
1
 41
0.18
 42
0.0625
 43
0.38
 44
0.18
 45
0
 46
0
 47
0
 48
0
 49
1
140
0.18
141
0.09
142
0
143
25.4
144
1
145
0
146
1
147
0.09
148
0
 71
    0
 72
    0
 73
    1
 74
    1
 75
    0
 76
    0
 77
    0
 78
    0
 79
    0
170
    0
171
    2
172
    0
173
    0
174
    0
175
    0
176
    0
177
    0
178
    0
179
    0
271
    4
272
    4
273
    2
274
    2
275
    0
276
    0
277
    2
278
   46
279
    0
280
    0
281
    0
282
    0
283
    1
284
    0
285
    0
286
    0
288
    0
289
    3
340
STANDARD
341

371
   -2
372
   -2
  0
ENDTAB
  0
TABLE
  2
BLOCK_RECORD
  5
1
330
0
100
AcDbSymbolTable
 70
    2
  0
BLOCK_RECORD
  5
1F
330
1
100
AcDbSymbolTableRecord
100
AcDbBlockTableRecord
  2
*Model_Space
 70
    0
280
    1
281
    0
  0
BLOCK_RECORD
  5
1E
330
1
100
AcDbSymbolTableRecord
100
AcDbBlockTableRecord
  2
*Paper_Space
 70
    0
280
    1
281
    0
  0
ENDTAB
  0
ENDSEC
  0
SECTION
  2
BLOCKS
  0
BLOCK
  5
20
330
1F
100
AcDbEntity
  8
0
100
AcDbBlockBegin
  2
*Model_Space
 70
    0
 10
0
 20
0
 30
0
  3
*Model_Space
  1

  0
ENDBLK
  5
21
330
1F
100
AcDbEntity
  8
0
100
AcDbBlockEnd
  0
BLOCK
  5
1C
330
1B
100
AcDbEntity
  8
0
100
AcDbBlockBegin
  2
*Paper_Space
 70
    0
 10
0
 20
0
 30
0
  3
*Paper_Space
  1

  0
ENDBLK
  5
1D
330
1F
100
AcDbEntity
  8
0
100
AcDbBlockEnd
  0
ENDSEC
  0
SECTION
  2
ENTITIES
  0
LINE
  5
57
100
AcDbEntity
  8
Roof
  6
ByLayer
 62
  256
370
   -1
100
AcDbLine
 10
55.47663256501108
 20
23.20224757149443
 11
115.1157328942078
 21
22.2847229510452
  0
LINE
  5
58
100
AcDbEntity
  8
Roof
  6
ByLayer
 62
  256
370
   -1
100
AcDbLine
 10
58.58776681253258
 20
26.95899935230176
 11
67.9877668125325
 21
26.95899935230185
  0
LINE
  5
59
100
AcDbEntity
  8
Roof
  6
ByLayer
 62
  256
370
   -1
100
AcDbLine
 10
105.2877668125326
 20
27.15899935230176
 11
105.2877668125326
 21
26.95899935230176
  0
LINE
  5
5A
100
AcDbEntity
  8
Roof
  6
ByLayer
 62
  256
370
   -1
100
AcDbLine
 10
82.2877668125326
 20
27.15899935230176
 11
82.2877668125326
 21
26.95899935230176
  0
LINE
  5
5B
100
AcDbEntity
  8
Roof
  6
ByLayer
 62
  256
370
   -1
100
AcDbLine
 10
82.2877668125326
 20
27.15899935230176
 11
105.2877668125326
 21
27.15899935230176
  0
LINE
  5
5C
100
AcDbEntity
  8
Roof
  6
ByLayer
 62
  256
370
   -1
100
AcDbLine
 10
105.2377668125326
 20
27.20899935230176
 11
105.2377668125326
 21
27.15899935230176
  0
LINE
  5
5D
100
AcDbEntity
  8
Roof
  6
ByLayer
 62
  256
370
   -1
100
AcDbLine
 10
82.33776681253259
 20
27.20899935230176
 11
82.33776681253259
 21
27.15899935230176
  0
LINE
  5
5E
100
AcDbEntity
  8
Roof
  6
ByLayer
 62
  256
370
   -1
100
AcDbLine
 10
82.38776681253259
 20
27.25899935230176
 11
105.1877668125326
 21
27.25899935230176
  0
ARC
  5
5F
100
AcDbEntity
  8
Roof
  6
ByLayer
 62
  256
370
   -1
100
AcDbCircle
 10
82.38776681253259
 20
27.20899935230176
 40
0.05
100
AcDbArc
 50
90
 51
180
  0
ARC
  5
60
100
AcDbEntity
  8
Roof
  6
ByLayer
 62
  256
370
   -1
100
AcDbCircle
 10
105.1877668125326
 20
27.20899935230176
 40
0.0499999999999927
100
AcDbArc
 50
0
 51
90
  0
LINE
  5
61
100
AcDbEntity
  8
Roof
  6
ByLayer
 62
  256
370
   -1
100
AcDbLine
 10
58.68776681253257
 20
27.25899935230176
 11
67.88776681253246
 21
27.25899935230176
  0
LINE
  5
62
100
AcDbEntity
  8
Roof
  6
ByLayer
 62
  256
370
   -1
100
AcDbLine
 10
58.58776681253258
 20
27.15899935230176
 11
67.9877668125325
 21
27.15899935230176
  0
LINE
  5
63
100
AcDbEntity
  8
Roof
  6
ByLayer
 62
  256
370
   -1
100
AcDbLine
 10
58.63776681253258
 20
27.20899935230176
 11
58.63776681253258
 21
27.15899935230176
  0
ARC
  5
64
100
AcDbEntity
  8
Roof
  6
ByLayer
 62
  256
370
   -1
100
AcDbCircle
 10
58.68776681253257
 20
27.20899935230176
 40
0.05
100
AcDbArc
 50
90
 51
180
  0
LINE
  5
65
100
AcDbEntity
  8
Roof
  6
ByLayer
 62
  256
370
   -1
100
AcDbLine
 10
58.58776681253258
 20
27.15899935230176
 11
58.58776681253258
 21
26.95899935230176
  0
LINE
  5
66
100
AcDbEntity
  8
Roof
  6
ByLayer
 62
  256
370
   -1
100
AcDbLine
 10
67.93776681253246
 20
27.20899935230185
 11
67.93776681253244
 21
27.15899935230182
  0
ARC
  5
67
100
AcDbEntity
  8
Roof
  6
ByLayer
 62
  256
370
   -1
100
AcDbCircle
 10
67.88776681253246
 20
27.20899935230185
 40
0.05
100
AcDbArc
 50
0
 51
90
  0
LINE
  5
68
100
AcDbEntity
  8
Roof
  6
ByLayer
 62
  256
370
   -1
100
AcDbLine
 10
67.9877668125325
 20
27.15899935230182
 11
67.9877668125325
 21
26.95899935230185
  0
LINE
  5
69
100
AcDbEntity
  8
Flooring
  6
ByLayer
 62
  256
370
   -1
100
AcDbLine
 10
58.28776681253256
 20
23.95899935230176
 11
97.28776681253261
 21
23.95899935230176
  0
LINE
  5
6A
100
AcDbEntity
  8
Flooring
  6
ByLayer
 62
  256
370
   -1
100
AcDbLine
 10
58.28776681253256
 20
23.95899935230176
 11
58.28776681253256
 21
23.15899935230176
  0
LINE
  5
6B
100
AcDbEntity
  8
Flooring
  6
ByLayer
 62
  256
370
   -1
100
AcDbLine
 10
97.28776681253261
 20
23.95899935230176
 11
97.2877668125326
 21
22.55899935230179
  0
LINE
  5
6C
100
AcDbEntity
  8
Flooring
  6
ByLayer
 62
  256
370
   -1
100
AcDbLine
 10
58.28776681253256
 20
23.85899935230176
 11
97.28776681253261
 21
23.85899935230176
  0
LINE
  5
6D
100
AcDbEntity
  8
Flooring
  6
ByLayer
 62
  256
370
   -1
100
AcDbLine
 10
97.08776681253261
 20
22.71728995059239
 11
96.73776681253261
 21
22.71728995059239
  0
LINE
  5
6E
100
AcDbEntity
  8
Flooring
  6
ByLayer
 62
  256
370
   -1
100
AcDbLine
 10
94.6377668125326
 20
23.80378567708808
 11
94.28776681253262
 21
23.80378567708808
  0
LINE
  5
6F
100
AcDbEntity
  8
Flooring
  6
ByLayer
 62
  256
370
   -1
100
AcDbLine
 10
94.9877668125326
 20
23.64857200187442
 11
94.6377668125326
 21
23.64857200187442
  0
LINE
  5
70
100
AcDbEntity
  8
Flooring
  6
ByLayer
 62
  256
370
   -1
100
AcDbLine
 10
95.33776681253261
 20
23.49335832666076
 11
94.9877668125326
 21
23.49335832666076
  0
LINE
  5
71
100
AcDbEntity
  8
Flooring
  6
ByLayer
 62
  256
370
   -1
100
AcDbLine
 10
95.68776681253262
 20
23.33814465144707
 11
95.33776681253261
 21
23.33814465144707
  0
LINE
  5
72
100
AcDbEntity
  8
Flooring
  6
ByLayer
 62
  256
370
   -1
100
AcDbLine
 10
96.03776681253261
 20
23.18293097623339
 11
95.68776681253262
 21
23.18293097623339
  0
LINE
  5
73
100
AcDbEntity
  8
Flooring
  6
ByLayer
 62
  256
370
   -1
100
AcDbLine
 10
96.38776681253262
 20
23.02771730101973
 11
96.03776681253262
 21
23.02771730101973
  0
LINE
  5
74
100
AcDbEntity
  8
Flooring
  6
ByLayer
 62
  256
370
   -1
100
AcDbLine
 10
96.7377668125326
 20
22.87250362580604
 11
96.38776681253262
 21
22.87250362580604
  0
LINE
  5
75
100
AcDbEntity
  8
Flooring
  6
ByLayer
 62
  256
370
   -1
100
AcDbLine
 10
94.6377668125326
 20
23.80378567708808
 11
94.6377668125326
 21
23.64857200187442
  0
LINE
  5
76
100
AcDbEntity
  8
Flooring
  6
ByLayer
 62
  256
370
   -1
100
AcDbLine
 10
94.9877668125326
 20
23.64857200187442
 11
94.9877668125326
 21
23.49335832666076
  0
LINE
  5
77
100
AcDbEntity
  8
Flooring
  6
ByLayer
 62
  256
370
   -1
100
AcDbLine
 10
95.33776681253261
 20
23.49335832666076
 11
95.33776681253261
 21
23.33814465144707
  0
LINE
  5
78
100
AcDbEntity
  8
Flooring
  6
ByLayer
 62
  256
370
   -1
100
AcDbLine
 10
95.68776681253262
 20
23.33814465144707
 11
95.68776681253262
 21
23.18293097623339
  0
LINE
  5
79
100
AcDbEntity
  8
Flooring
  6
ByLayer
 62
  256
370
   -1
100
AcDbLine
 10
96.03776681253261
 20
23.18293097623339
 11
96.03776681253262
 21
23.02771730101973
  0
LINE
  5
7A
100
AcDbEntity
  8
Flooring
  6
ByLayer
 62
  256
370
   -1
100
AcDbLine
 10
96.38776681253262
 20
23.02771730101973
 11
96.38776681253262
 21
22.87250362580604
  0
LINE
  5
7B
100
AcDbEntity
  8
Flooring
  6
ByLayer
 62
  256
370
   -1
100
AcDbLine
 10
96.7377668125326
 20
22.87250362580604
 11
96.73776681253261
 21
22.71728995059239
  0
LINE
  5
7C
100
AcDbEntity
  8
Flooring
  6
ByLayer
 62
  256
370
   -1
100
AcDbLine
 10
97.08776681253261
 20
22.71728995059239
 11
97.08776681253261
 21
22.5620762753787
  0
LINE
  5
7D
100
AcDbEntity
  8
Flooring
  6
ByLayer
 62
  256
370
   -1
100
AcDbLine
 10
94.28776681253262
 20
23.80378567708808
 11
94.28776681253262
 21
23.95899935230176
  0
LINE
  5
7E
100
AcDbEntity
  8
Flooring
  6
ByLayer
 62
  256
370
   -1
100
AcDbLine
 10
110.2877668125326
 20
23.95899935230176
 11
110.2877668125326
 21
22.35899935230176
  0
LINE
  5
7F
100
AcDbEntity
  8
Flooring
  6
ByLayer
 62
  256
370
   -1
100
AcDbLine
 10
97.28776681253261
 20
23.95899935230176
 11
110.2877668125326
 21
23.95899935230176
  0
LINE
  5
80
100
AcDbEntity
  8
Flooring
  6
ByLayer
 62
  256
370
   -1
100
AcDbLine
 10
97.28776681253261
 20
23.85899935230176
 11
110.2877668125326
 21
23.85899935230176
  0
LINE
  5
81
100
AcDbEntity
  8
Flooring
  6
ByLayer
 62
  256
370
   -1
100
AcDbLine
 10
59.28776681253256
 20
23.95899935230176
 11
59.28776681253256
 21
23.14361473691717
  0
LINE
  5
82
100
AcDbEntity
  8
Flooring
  6
ByLayer
 62
  256
370
   -1
100
AcDbLine
 10
60.28776681253258
 20
23.95899935230176
 11
60.28776681253258
 21
23.12823012153254
  0
LINE
  5
83
100
AcDbEntity
  8
Flooring
  6
ByLayer
 62
  256
370
   -1
100
AcDbLine
 10
61.28776681253259
 20
23.95899935230176
 11
61.28776681253259
 21
23.11284550614792
  0
LINE
  5
84
100
AcDbEntity
  8
Flooring
  6
ByLayer
 62
  256
370
   -1
100
AcDbLine
 10
62.28776681253259
 20
23.95899935230176
 11
62.28776681253259
 21
23.09746089076332
  0
LINE
  5
85
100
AcDbEntity
  8
Flooring
  6
ByLayer
 62
  256
370
   -1
100
AcDbLine
 10
63.2877668125326
 20
23.95899935230176
 11
63.2877668125326
 21
23.0820762753787
  0
LINE
  5
86
100
AcDbEntity
  8
Flooring
  6
ByLayer
 62
  256
370
   -1
100
AcDbLine
 10
64.28776681253261
 20
23.95899935230176
 11
64.28776681253261
 21
23.0666916599941
  0
LINE
  5
87
100
AcDbEntity
  8
Flooring
  6
ByLayer
 62
  256
370
   -1
100
AcDbLine
 10
65.28776681253262
 20
23.95899935230176
 11
65.28776681253262
 21
23.05130704460948
  0
LINE
  5
88
100
AcDbEntity
  8
Flooring
  6
ByLayer
 62
  256
370
   -1
100
AcDbLine
 10
66.28776681253262
 20
23.95899935230176
 11
66.28776681253262
 21
23.03592242922485
  0
LINE
  5
89
100
AcDbEntity
  8
Flooring
  6
ByLayer
 62
  256
370
   -1
100
AcDbLine
 10
67.28776681253262
 20
23.95899935230176
 11
67.28776681253262
 21
23.02053781384026
  0
LINE
  5
8A
100
AcDbEntity
  8
Flooring
  6
ByLayer
 62
  256
370
   -1
100
AcDbLine
 10
68.28776681253262
 20
23.95899935230179
 11
68.28776681253262
 21
23.00515319845563
  0
LINE
  5
8B
100
AcDbEntity
  8
Flooring
  6
ByLayer
 62
  256
370
   -1
100
AcDbLine
 10
69.28776681253262
 20
23.95899935230179
 11
69.28776681253262
 21
22.98976858307101
  0
LINE
  5
8C
100
AcDbEntity
  8
Flooring
  6
ByLayer
 62
  256
370
   -1
100
AcDbLine
 10
70.28776681253262
 20
23.95899935230179
 11
70.28776681253262
 21
22.97438396768639
  0
LINE
  5
8D
100
AcDbEntity
  8
Flooring
  6
ByLayer
 62
  256
370
   -1
100
AcDbLine
 10
71.28776681253262
 20
23.95899935230179
 11
71.28776681253262
 21
22.95899935230179
  0
LINE
  5
8E
100
AcDbEntity
  8
Flooring
  6
ByLayer
 62
  256
370
   -1
100
AcDbLine
 10
72.28776681253262
 20
23.95899935230179
 11
72.28776681253262
 21
22.94361473691717
  0
LINE
  5
8F
100
AcDbEntity
  8
Flooring
  6
ByLayer
 62
  256
370
   -1
100
AcDbLine
 10
73.28776681253262
 20
23.95899935230179
 11
73.28776681253262
 21
22.92823012153257
  0
LINE
  5
90
100
AcDbEntity
  8
Flooring
  6
ByLayer
 62
  256
370
   -1
100
AcDbLine
 10
74.28776681253262
 20
23.95899935230179
 11
74.28776681253262
 21
22.91284550614795
  0
LINE
  5
91
100
AcDbEntity
  8
Flooring
  6
ByLayer
 62
  256
370
   -1
100
AcDbLine
 10
75.28776681253262
 20
23.95899935230179
 11
75.28776681253262
 21
22.89746089076332
  0
LINE
  5
92
100
AcDbEntity
  8
Flooring
  6
ByLayer
 62
  256
370
   -1
100
AcDbLine
 10
76.28776681253262
 20
23.95899935230179
 11
76.28776681253262
 21
22.8820762753787
  0
LINE
  5
93
100
AcDbEntity
  8
Flooring
  6
ByLayer
 62
  256
370
   -1
100
AcDbLine
 10
77.28776681253262
 20
23.95899935230179
 11
77.28776681253262
 21
22.86669165999407
  0
LINE
  5
94
100
AcDbEntity
  8
Flooring
  6
ByLayer
 62
  256
370
   -1
100
AcDbLine
 10
78.28776681253262
 20
23.95899935230179
 11
78.28776681253262
 21
22.85130704460945
  0
LINE
  5
95
100
AcDbEntity
  8
Flooring
  6
ByLayer
 62
  256
370
   -1
100
AcDbLine
 10
79.28776681253255
 20
23.95899935230179
 11
79.28776681253255
 21
22.83592242922488
  0
LINE
  5
96
100
AcDbEntity
  8
Flooring
  6
ByLayer
 62
  256
370
   -1
100
AcDbLine
 10
80.28776681253258
 20
23.95899935230179
 11
80.28776681253258
 21
22.82053781384026
  0
LINE
  5
97
100
AcDbEntity
  8
Flooring
  6
ByLayer
 62
  256
370
   -1
100
AcDbLine
 10
81.2877668125326
 20
23.95899935230182
 11
81.2877668125326
 21
22.80515319845563
  0
LINE
  5
98
100
AcDbEntity
  8
Flooring
  6
ByLayer
 62
  256
370
   -1
100
AcDbLine
 10
82.2877668125326
 20
23.95899935230182
 11
82.2877668125326
 21
22.78976858307101
  0
LINE
  5
99
100
AcDbEntity
  8
Flooring
  6
ByLayer
 62
  256
370
   -1
100
AcDbLine
 10
83.2877668125326
 20
23.95899935230182
 11
83.2877668125326
 21
22.77438396768639
  0
LINE
  5
9A
100
AcDbEntity
  8
Flooring
  6
ByLayer
 62
  256
370
   -1
100
AcDbLine
 10
84.28776681253261
 20
23.95899935230179
 11
84.28776681253261
 21
22.75899935230176
  0
LINE
  5
9B
100
AcDbEntity
  8
Flooring
  6
ByLayer
 62
  256
370
   -1
100
AcDbLine
 10
85.28776681253262
 20
23.95899935230179
 11
85.28776681253262
 21
22.74361473691714
  0
LINE
  5
9C
100
AcDbEntity
  8
Flooring
  6
ByLayer
 62
  256
370
   -1
100
AcDbLine
 10
86.28776681253262
 20
23.95899935230182
 11
86.28776681253262
 21
22.72823012153254
  0
LINE
  5
9D
100
AcDbEntity
  8
Flooring
  6
ByLayer
 62
  256
370
   -1
100
AcDbLine
 10
87.28776681253262
 20
23.95899935230182
 11
87.28776681253262
 21
22.71284550614795
  0
LINE
  5
9E
100
AcDbEntity
  8
Flooring
  6
ByLayer
 62
  256
370
   -1
100
AcDbLine
 10
88.28776681253277
 20
23.95899935230179
 11
88.28776681253277
 21
22.69746089076332
  0
LINE
  5
9F
100
AcDbEntity
  8
Flooring
  6
ByLayer
 62
  256
370
   -1
100
AcDbLine
 10
89.28776681253262
 20
23.95899935230179
 11
89.28776681253262
 21
22.6820762753787
  0
LINE
  5
A0
100
AcDbEntity
  8
Flooring
  6
ByLayer
 62
  256
370
   -1
100
AcDbLine
 10
90.28776681253262
 20
23.95899935230182
 11
90.28776681253262
 21
22.66669165999407
  0
LINE
  5
A1
100
AcDbEntity
  8
Flooring
  6
ByLayer
 62
  256
370
   -1
100
AcDbLine
 10
91.28776681253262
 20
23.95899935230182
 11
91.28776681253262
 21
22.65130704460948
  0
LINE
  5
A2
100
AcDbEntity
  8
Flooring
  6
ByLayer
 62
  256
370
   -1
100
AcDbLine
 10
92.2877668125326
 20
23.95899935230182
 11
92.2877668125326
 21
22.63592242922485
  0
LINE
  5
A3
100
AcDbEntity
  8
Flooring
  6
ByLayer
 62
  256
370
   -1
100
AcDbLine
 10
93.28776681253262
 20
23.95899935230182
 11
93.28776681253262
 21
22.62053781384023
  0
LINE
  5
A4
100
AcDbEntity
  8
Flooring
  6
ByLayer
 62
  256
370
   -1
100
AcDbLine
 10
94.28776681253261
 20
23.95899935230182
 11
94.28776681253261
 21
22.60515319845563
  0
LINE
  5
A5
100
AcDbEntity
  8
Flooring
  6
ByLayer
 62
  256
370
   -1
100
AcDbLine
 10
95.28776681253261
 20
23.95899935230182
 11
95.28776681253261
 21
22.58976858307101
  0
LINE
  5
A6
100
AcDbEntity
  8
Flooring
  6
ByLayer
 62
  256
370
   -1
100
AcDbLine
 10
96.28776681253261
 20
23.95899935230182
 11
96.28776681253261
 21
22.57438396768639
  0
LINE
  5
A7
100
AcDbEntity
  8
Flooring
  6
ByLayer
 62
  256
370
   -1
100
AcDbLine
 10
97.28776681253261
 20
23.95899935230182
 11
97.2877668125326
 21
22.55899935230176
  0
LINE
  5
A8
100
AcDbEntity
  8
Flooring
  6
ByLayer
 62
  256
370
   -1
100
AcDbLine
 10
98.28776681253261
 20
23.95899935230182
 11
98.2877668125326
 21
22.54361473691714
  0
LINE
  5
A9
100
AcDbEntity
  8
Flooring
  6
ByLayer
 62
  256
370
   -1
100
AcDbLine
 10
99.28776681253261
 20
23.95899935230182
 11
99.2877668125326
 21
22.52823012153254
  0
LINE
  5
AA
100
AcDbEntity
  8
Flooring
  6
ByLayer
 62
  256
370
   -1
100
AcDbLine
 10
100.2877668125326
 20
23.95899935230182
 11
100.2877668125326
 21
22.51284550614792
  0
LINE
  5
AB
100
AcDbEntity
  8
Flooring
  6
ByLayer
 62
  256
370
   -1
100
AcDbLine
 10
101.2877668125326
 20
23.95899935230182
 11
101.2877668125326
 21
22.49746089076332
  0
LINE
  5
AC
100
AcDbEntity
  8
Flooring
  6
ByLayer
 62
  256
370
   -1
100
AcDbLine
 10
102.2877668125326
 20
23.95899935230182
 11
102.2877668125326
 21
22.4820762753787
  0
LINE
  5
AD
100
AcDbEntity
  8
Flooring
  6
ByLayer
 62
  256
370
   -1
100
AcDbLine
 10
103.2877668125326
 20
23.95899935230182
 11
103.2877668125326
 21
22.46669165999407
  0
LINE
  5
AE
100
AcDbEntity
  8
Flooring
  6
ByLayer
 62
  256
370
   -1
100
AcDbLine
 10
104.2877668125326
 20
23.95899935230182
 11
104.2877668125326
 21
22.45130704460945
  0
LINE
  5
AF
100
AcDbEntity
  8
Flooring
  6
ByLayer
 62
  256
370
   -1
100
AcDbLine
 10
105.2877668125326
 20
23.95899935230182
 11
105.2877668125326
 21
22.43592242922483
  0
LINE
  5
B0
100
AcDbEntity
  8
Flooring
  6
ByLayer
 62
  256
370
   -1
100
AcDbLine
 10
106.2877668125326
 20
23.95899935230182
 11
106.2877668125326
 21
22.4205378138402
  0
LINE
  5
B1
100
AcDbEntity
  8
Flooring
  6
ByLayer
 62
  256
370
   -1
100
AcDbLine
 10
107.2877668125326
 20
23.95899935230182
 11
107.2877668125326
 21
22.40515319845558
  0
LINE
  5
B2
100
AcDbEntity
  8
Flooring
  6
ByLayer
 62
  256
370
   -1
100
AcDbLine
 10
108.2877668125326
 20
23.95899935230182
 11
108.2877668125326
 21
22.38976858307101
  0
LINE
  5
B3
100
AcDbEntity
  8
Flooring
  6
ByLayer
 62
  256
370
   -1
100
AcDbLine
 10
109.2877668125326
 20
23.95899935230182
 11
109.2877668125326
 21
22.37438396768639
  0
LINE
  5
B4
100
AcDbEntity
  8
Walls
  6
ByLayer
 62
  256
370
   -1
100
AcDbLine
 10
59.12776681253257
 20
26.95899935230176
 11
59.12776681253257
 21
23.95899935230176
  0
LINE
  5
B5
100
AcDbEntity
  8
Walls
  6
ByLayer
 62
  256
370
   -1
100
AcDbLine
 10
66.28776681253257
 20
26.95899935230176
 11
66.28776681253257
 21
23.95899935230176
  0
LINE
  5
B6
100
AcDbEntity
  8
Walls
  6
ByLayer
 62
  256
370
   -1
100
AcDbLine
 10
99.62110021253261
 20
26.95899935230176
 11
99.62110021253262
 21
23.95899935230176
  0
LINE
  5
B7
100
AcDbEntity
  8
Walls
  6
ByLayer
 62
  256
370
   -1
100
AcDbLine
 10
109.4477668125326
 20
26.95899935230176
 11
109.4477668125326
 21
23.95899935230176
  0
LINE
  5
B8
100
AcDbEntity
  8
Walls
  6
ByLayer
 62
  256
370
   -1
100
AcDbLine
 10
99.62110021253261
 20
26.95899935230176
 11
109.4477668125326
 21
26.95899935230176
  0
LINE
  5
B9
100
AcDbEntity
  8
Walls
  6
ByLayer
 62
  256
370
   -1
100
AcDbLine
 10
83.62110021253265
 20
26.95899935230176
 11
83.62110021253265
 21
23.95899935230176
  0
LINE
  5
BA
100
AcDbEntity
  8
Walls
  6
ByLayer
 62
  256
370
   -1
100
AcDbLine
 10
82.2877668125326
 20
26.95899935230176
 11
88.2877668125326
 21
26.95899935230176
  0
LINE
  5
BB
100
AcDbEntity
  8
Walls
  6
ByLayer
 62
  256
370
   -1
100
AcDbLine
 10
67.9877668125325
 20
26.95899935230185
 11
82.2877668125326
 21
26.95899935230176
  0
LINE
  5
BC
100
AcDbEntity
  8
Walls
  6
ByLayer
 62
  256
370
   -1
100
AcDbLine
 10
59.12776681253257
 20
25.95899935230176
 11
66.28776681253255
 21
25.95899935230182
  0
LINE
  5
BD
100
AcDbEntity
  8
Walls
  6
ByLayer
 62
  256
370
   -1
100
AcDbLine
 10
59.12776681253257
 20
24.95899935230176
 11
66.28776681253255
 21
24.95899935230182
  0
LINE
  5
BE
100
AcDbEntity
  8
Walls
  6
ByLayer
 62
  256
370
   -1
100
AcDbLine
 10
61.70776681253258
 20
26.95899935230179
 11
61.70776681253258
 21
23.95899935230179
  0
LINE
  5
BF
100
AcDbEntity
  8
Walls
  6
ByLayer
 62
  256
370
   -1
100
AcDbLine
 10
63.70776681253258
 20
26.95899935230179
 11
63.70776681253258
 21
23.95899935230179
  0
LINE
  5
C0
100
AcDbEntity
  8
Walls
  6
ByLayer
 62
  256
370
   -1
100
AcDbLine
 10
59.70776681253258
 20
26.95899935230179
 11
59.70776681253258
 21
23.95899935230176
  0
LINE
  5
C1
100
AcDbEntity
  8
Walls
  6
ByLayer
 62
  256
370
   -1
100
AcDbLine
 10
65.70776681253257
 20
26.95899935230182
 11
65.70776681253257
 21
23.95899935230179
  0
LINE
  5
C2
100
AcDbEntity
  8
Walls
  6
ByLayer
 62
  256
370
   -1
100
AcDbLine
 10
66.28776681253257
 20
25.95899935230182
 11
83.62110021253265
 21
25.95899935230182
  0
LINE
  5
C3
100
AcDbEntity
  8
Walls
  6
ByLayer
 62
  256
370
   -1
100
AcDbLine
 10
66.28776681253257
 20
24.95899935230182
 11
83.62110021253265
 21
24.95899935230185
  0
LINE
  5
C4
100
AcDbEntity
  8
Walls
  6
ByLayer
 62
  256
370
   -1
100
AcDbLine
 10
68.28776681253258
 20
26.95899935230176
 11
68.28776681253258
 21
24.45899935230176
  0
LINE
  5
C5
100
AcDbEntity
  8
Walls
  6
ByLayer
 62
  256
370
   -1
100
AcDbLine
 10
68.28776681253258
 20
24.35899935230176
 11
68.28776681253258
 21
23.95899935230176
  0
LINE
  5
C6
100
AcDbEntity
  8
Walls
  6
ByLayer
 62
  256
370
   -1
100
AcDbLine
 10
70.28776681253258
 20
26.95899935230176
 11
70.28776681253258
 21
24.45899935230176
  0
LINE
  5
C7
100
AcDbEntity
  8
Walls
  6
ByLayer
 62
  256
370
   -1
100
AcDbLine
 10
70.28776681253258
 20
24.35899935230176
 11
70.28776681253258
 21
23.95899935230176
  0
LINE
  5
C8
100
AcDbEntity
  8
Walls
  6
ByLayer
 62
  256
370
   -1
100
AcDbLine
 10
72.28776681253258
 20
26.95899935230176
 11
72.28776681253258
 21
24.45899935230176
  0
LINE
  5
C9
100
AcDbEntity
  8
Walls
  6
ByLayer
 62
  256
370
   -1
100
AcDbLine
 10
72.28776681253258
 20
24.35899935230176
 11
72.28776681253258
 21
23.95899935230176
  0
LINE
  5
CA
100
AcDbEntity
  8
Walls
  6
ByLayer
 62
  256
370
   -1
100
AcDbLine
 10
74.28776681253258
 20
26.95899935230176
 11
74.28776681253255
 21
24.45899935230176
  0
LINE
  5
CB
100
AcDbEntity
  8
Walls
  6
ByLayer
 62
  256
370
   -1
100
AcDbLine
 10
74.28776681253255
 20
24.35899935230176
 11
74.28776681253255
 21
23.95899935230176
  0
LINE
  5
CC
100
AcDbEntity
  8
Walls
  6
ByLayer
 62
  256
370
   -1
100
AcDbLine
 10
76.28776681253255
 20
26.95899935230176
 11
76.28776681253255
 21
24.45899935230176
  0
LINE
  5
CD
100
AcDbEntity
  8
Walls
  6
ByLayer
 62
  256
370
   -1
100
AcDbLine
 10
76.28776681253255
 20
24.35899935230176
 11
76.28776681253255
 21
23.95899935230176
  0
LINE
  5
CE
100
AcDbEntity
  8
Walls
  6
ByLayer
 62
  256
370
   -1
100
AcDbLine
 10
78.28776681253255
 20
26.95899935230176
 11
78.28776681253255
 21
24.45899935230176
  0
LINE
  5
CF
100
AcDbEntity
  8
Walls
  6
ByLayer
 62
  256
370
   -1
100
AcDbLine
 10
78.28776681253255
 20
24.35899935230176
 11
78.28776681253255
 21
23.95899935230176
  0
LINE
  5
D0
100
AcDbEntity
  8
Walls
  6
ByLayer
 62
  256
370
   -1
100
AcDbLine
 10
80.28776681253255
 20
26.95899935230176
 11
80.28776681253255
 21
24.45899935230176
  0
LINE
  5
D1
100
AcDbEntity
  8
Walls
  6
ByLayer
 62
  256
370
   -1
100
AcDbLine
 10
80.28776681253255
 20
24.35899935230176
 11
80.28776681253255
 21
23.95899935230176
  0
LINE
  5
D2
100
AcDbEntity
  8
Walls
  6
ByLayer
 62
  256
370
   -1
100
AcDbLine
 10
82.28776681253255
 20
26.95899935230176
 11
82.28776681253255
 21
23.95899935230176
  0
LINE
  5
D3
100
AcDbEntity
  8
Walls
  6
ByLayer
 62
  256
370
   -1
100
AcDbLine
 10
107.4477668125326
 20
26.95899935230176
 11
107.4477668125326
 21
23.95899935230176
  0
LINE
  5
D4
100
AcDbEntity
  8
Walls
  6
ByLayer
 62
  256
370
   -1
100
AcDbLine
 10
105.4477668125326
 20
26.95899935230176
 11
105.4477668125326
 21
23.95899935230176
  0
LINE
  5
D5
100
AcDbEntity
  8
Walls
  6
ByLayer
 62
  256
370
   -1
100
AcDbLine
 10
103.4477668125326
 20
26.95899935230176
 11
103.4477668125326
 21
23.95899935230176
  0
LINE
  5
D6
100
AcDbEntity
  8
Walls
  6
ByLayer
 62
  256
370
   -1
100
AcDbLine
 10
101.4477668125326
 20
26.95899935230176
 11
101.4477668125326
 21
23.95899935230176
  0
LINE
  5
D7
100
AcDbEntity
  8
Walls
  6
ByLayer
 62
  256
370
   -1
100
AcDbLine
 10
109.4477668125326
 20
24.95899935230176
 11
99.62110021253261
 21
24.95899935230176
  0
LINE
  5
D8
100
AcDbEntity
  8
Walls
  6
ByLayer
 62
  256
370
   -1
100
AcDbLine
 10
109.4477668125326
 20
25.95899935230176
 11
99.62110021253261
 21
25.95899935230176
  0
LINE
  5
D9
100
AcDbEntity
  8
Walls
  6
ByLayer
 62
  256
370
   -1
100
AcDbLine
 10
87.88776681253258
 20
26.95899935230176
 11
87.88776681253258
 21
23.95899935230176
  0
LINE
  5
DA
100
AcDbEntity
  8
Walls
  6
ByLayer
 62
  256
370
   -1
100
AcDbLine
 10
85.88776681253258
 20
26.95899935230176
 11
85.88776681253258
 21
23.95899935230176
  0
LINE
  5
DB
100
AcDbEntity
  8
Walls
  6
ByLayer
 62
  256
370
   -1
100
AcDbLine
 10
83.88776681253258
 20
26.95899935230176
 11
83.88776681253258
 21
23.95899935230176
  0
LINE
  5
DC
100
AcDbEntity
  8
Walls
  6
ByLayer
 62
  256
370
   -1
100
AcDbLine
 10
83.62110021253265
 20
25.95899935230182
 11
84.2077668125326
 21
25.95899935230182
  0
LINE
  5
DD
100
AcDbEntity
  8
Walls
  6
ByLayer
 62
  256
370
   -1
100
AcDbLine
 10
83.62110021253265
 20
24.95899935230185
 11
84.2077668125326
 21
24.95899935230179
  0
LINE
  5
DE
100
AcDbEntity
  8
Walls
  6
ByLayer
 62
  256
370
   -1
100
AcDbLine
 10
84.36776681253262
 20
25.95899935230182
 11
88.2877668125326
 21
25.95899935230182
  0
LINE
  5
DF
100
AcDbEntity
  8
Walls
  6
ByLayer
 62
  256
370
   -1
100
AcDbLine
 10
84.36776681253262
 20
24.95899935230176
 11
88.2877668125326
 21
24.95899935230176
  0
LINE
  5
E0
100
AcDbEntity
  8
Walls
  6
ByLayer
 62
  256
370
   -1
100
AcDbLine
 10
95.89332241253256
 20
25.47149935230176
 11
96.87443347919927
 21
25.47149935230176
  0
LINE
  5
E1
100
AcDbEntity
  8
Walls
  6
ByLayer
 62
  256
370
   -1
100
AcDbLine
 10
97.03443347919928
 20
25.47149935230176
 11
99.49610021253262
 21
25.47149935230176
  0
LINE
  5
E2
100
AcDbEntity
  8
Walls
  6
ByLayer
 62
  256
370
   -1
100
AcDbLine
 10
97.89610021253262
 20
26.85899935230176
 11
97.89610021253262
 21
24.08399935230176
  0
LINE
  5
E3
100
AcDbEntity
  8
Walls
  6
ByLayer
 62
  256
370
   -1
100
AcDbLine
 10
88.3877668125326
 20
25.95899935230182
 11
90.54110014586594
 21
25.95899935230176
  0
LINE
  5
E4
100
AcDbEntity
  8
Walls
  6
ByLayer
 62
  256
370
   -1
100
AcDbLine
 10
88.38776681253259
 20
24.95899935230176
 11
90.54110014586594
 21
24.95899935230176
  0
LINE
  5
E5
100
AcDbEntity
  8
Walls
  6
ByLayer
 62
  256
370
   -1
100
AcDbLine
 10
90.70110014586594
 20
25.95899935230176
 11
90.95443341253254
 21
25.95899935230176
  0
LINE
  5
E6
100
AcDbEntity
  8
Walls
  6
ByLayer
 62
  256
370
   -1
100
AcDbLine
 10
90.70110014586594
 20
24.95899935230176
 11
90.95443341253254
 21
24.95899935230176
  0
LINE
  5
E7
100
AcDbEntity
  8
Walls
  6
ByLayer
 62
  256
370
   -1
100
AcDbLine
 10
89.88776681253259
 20
26.85899935230179
 11
89.88776681253258
 21
24.08399935230176
  0
LINE
  5
E8
100
AcDbEntity
  8
Walls
  6
ByLayer
 62
  256
370
   -1
100
AcDbLine
 10
90.95443341253254
 20
26.85899935230176
 11
90.95443341253254
 21
24.08399935230176
  0
LINE
  5
E9
100
AcDbEntity
  8
Walls
  6
ByLayer
 62
  256
370
   -1
100
AcDbLine
 10
95.45776681253261
 20
26.85899935230176
 11
95.45776681253261
 21
24.08399935230176
  0
LINE
  5
EA
100
AcDbEntity
  8
Walls
  6
ByLayer
 62
  256
370
   -1
100
AcDbLine
 10
95.79332241253256
 20
25.47149935230176
 11
95.45776681253261
 21
25.47149935230176
  0
LINE
  5
EB
100
AcDbEntity
  8
Furniture
  6
ByLayer
 62
  256
370
   -1
100
AcDbLine
 10
81.48776681253258
 20
24.45899935230176
 11
81.48776681253258
 21
24.35899935230179
  0
LINE
  5
EC
100
AcDbEntity
  8
Furniture
  6
ByLayer
 62
  256
370
   -1
100
AcDbLine
 10
66.28776681253257
 20
24.45899935230176
 11
81.48776681253258
 21
24.45899935230176
  0
LINE
  5
ED
100
AcDbEntity
  8
Furniture
  6
ByLayer
 62
  256
370
   -1
100
AcDbLine
 10
66.28776681253257
 20
24.35899935230176
 11
81.48776681253258
 21
24.35899935230179
  0
LINE
  5
EE
100
AcDbEntity
  8
Furniture
  6
ByLayer
 62
  256
370
   -1
100
AcDbLine
 10
68.4877668125325
 20
24.45899935230176
 11
68.4877668125325
 21
24.35899935230176
  0
LINE
  5
EF
100
AcDbEntity
  8
Furniture
  6
ByLayer
 62
  256
370
   -1
100
AcDbLine
 10
70.60776681253252
 20
24.45899935230176
 11
70.60776681253252
 21
24.35899935230176
  0
LINE
  5
F0
100
AcDbEntity
  8
Furniture
  6
ByLayer
 62
  256
370
   -1
100
AcDbLine
 10
72.72776681253254
 20
24.45899935230176
 11
72.72776681253254
 21
24.35899935230176
  0
LINE
  5
F1
100
AcDbEntity
  8
Furniture
  6
ByLayer
 62
  256
370
   -1
100
AcDbLine
 10
74.84776681253254
 20
24.45899935230176
 11
74.84776681253254
 21
24.35899935230176
  0
LINE
  5
F2
100
AcDbEntity
  8
Furniture
  6
ByLayer
 62
  256
370
   -1
100
AcDbLine
 10
76.96776681253256
 20
24.45899935230176
 11
76.96776681253256
 21
24.35899935230176
  0
LINE
  5
F3
100
AcDbEntity
  8
Furniture
  6
ByLayer
 62
  256
370
   -1
100
AcDbLine
 10
79.08776681253256
 20
24.45899935230176
 11
79.08776681253258
 21
24.35899935230182
  0
LINE
  5
F4
100
AcDbEntity
  8
Furniture
  6
ByLayer
 62
  256
370
   -1
100
AcDbLine
 10
81.08776681253259
 20
24.35899935230182
 11
81.08776681253259
 21
23.95899935230176
  0
LINE
  5
F5
100
AcDbEntity
  8
Furniture
  6
ByLayer
 62
  256
370
   -1
100
AcDbLine
 10
81.38776681253259
 20
24.35899935230182
 11
81.38776681253259
 21
23.95899935230176
  0
LINE
  5
F6
100
AcDbEntity
  8
Furniture
  6
ByLayer
 62
  256
370
   -1
100
AcDbLine
 10
78.93776681253257
 20
24.35899935230182
 11
78.93776681253257
 21
23.95899935230182
  0
LINE
  5
F7
100
AcDbEntity
  8
Furniture
  6
ByLayer
 62
  256
370
   -1
100
AcDbLine
 10
79.23776681253257
 20
24.35899935230182
 11
79.23776681253257
 21
23.95899935230182
  0
LINE
  5
F8
100
AcDbEntity
  8
Furniture
  6
ByLayer
 62
  256
370
   -1
100
AcDbLine
 10
76.81776681253255
 20
24.35899935230182
 11
76.81776681253255
 21
23.95899935230182
  0
LINE
  5
F9
100
AcDbEntity
  8
Furniture
  6
ByLayer
 62
  256
370
   -1
100
AcDbLine
 10
77.11776681253255
 20
24.35899935230182
 11
77.11776681253255
 21
23.95899935230182
  0
LINE
  5
FA
100
AcDbEntity
  8
Furniture
  6
ByLayer
 62
  256
370
   -1
100
AcDbLine
 10
74.69776681253254
 20
24.35899935230182
 11
74.69776681253254
 21
23.95899935230179
  0
LINE
  5
FB
100
AcDbEntity
  8
Furniture
  6
ByLayer
 62
  256
370
   -1
100
AcDbLine
 10
74.99776681253255
 20
24.35899935230182
 11
74.99776681253255
 21
23.95899935230179
  0
LINE
  5
FC
100
AcDbEntity
  8
Furniture
  6
ByLayer
 62
  256
370
   -1
100
AcDbLine
 10
72.57776681253253
 20
24.35899935230182
 11
72.57776681253253
 21
23.95899935230179
  0
LINE
  5
FD
100
AcDbEntity
  8
Furniture
  6
ByLayer
 62
  256
370
   -1
100
AcDbLine
 10
72.87776681253253
 20
24.35899935230182
 11
72.87776681253253
 21
23.95899935230179
  0
LINE
  5
FE
100
AcDbEntity
  8
Furniture
  6
ByLayer
 62
  256
370
   -1
100
AcDbLine
 10
70.45776681253251
 20
24.35899935230182
 11
70.45776681253251
 21
23.95899935230176
  0
LINE
  5
FF
100
AcDbEntity
  8
Furniture
  6
ByLayer
 62
  256
370
   -1
100
AcDbLine
 10
70.75776681253251
 20
24.35899935230182
 11
70.75776681253251
 21
23.95899935230176
  0
LINE
  5
100
100
AcDbEntity
  8
Furniture
  6
ByLayer
 62
  256
370
   -1
100
AcDbLine
 10
68.33776681253249
 20
24.35899935230176
 11
68.33776681253249
 21
23.95899935230176
  0
LINE
  5
101
100
AcDbEntity
  8
Furniture
  6
ByLayer
 62
  256
370
   -1
100
AcDbLine
 10
68.6377668125325
 20
24.35899935230176
 11
68.6377668125325
 21
23.95899935230176
  0
LINE
  5
102
100
AcDbEntity
  8
Cancel
  6
ByLayer
 62
  256
370
   -1
100
AcDbLine
 10
88.2877668125326
 20
26.95899935230176
 11
88.28776681253261
 21
23.98399935230176
  0
LINE
  5
103
100
AcDbEntity
  8
Cancel
  6
ByLayer
 62
  256
370
   -1
100
AcDbLine
 10
88.3877668125326
 20
26.85899935230176
 11
88.38776681253259
 21
24.08399935230176
  0
LINE
  5
104
100
AcDbEntity
  8
Cancel
  6
ByLayer
 62
  256
370
   -1
100
AcDbLine
 10
92.01554461253258
 20
26.85899935230176
 11
92.01554461253258
 21
24.08399935230176
  0
LINE
  5
105
100
AcDbEntity
  8
Cancel
  6
ByLayer
 62
  256
370
   -1
100
AcDbLine
 10
92.11554461253257
 20
26.85899935230176
 11
92.11554461253259
 21
24.08399935230176
  0
LINE
  5
106
100
AcDbEntity
  8
Cancel
  6
ByLayer
 62
  256
370
   -1
100
AcDbLine
 10
95.79332241253256
 20
26.85899935230176
 11
95.79332241253256
 21
24.08399935230176
  0
LINE
  5
107
100
AcDbEntity
  8
Cancel
  6
ByLayer
 62
  256
370
   -1
100
AcDbLine
 10
95.89332241253256
 20
26.85899935230176
 11
95.89332241253256
 21
24.08399935230176
  0
LINE
  5
108
100
AcDbEntity
  8
Cancel
  6
ByLayer
 62
  256
370
   -1
100
AcDbLine
 10
99.49610021253262
 20
26.85899935230176
 11
99.49610021253262
 21
24.08399935230176
  0
LINE
  5
109
100
AcDbEntity
  8
Cancel
  6
ByLayer
 62
  256
370
   -1
100
AcDbLine
 10
99.59610021253262
 20
26.95899935230176
 11
99.59610021253262
 21
23.98399935230176
  0
LINE
  5
10A
100
AcDbEntity
  8
Cancel
  6
ByLayer
 62
  256
370
   -1
100
AcDbLine
 10
88.2877668125326
 20
26.95899935230176
 11
99.59610021253262
 21
26.95899935230176
  0
LINE
  5
10B
100
AcDbEntity
  8
Cancel
  6
ByLayer
 62
  256
370
   -1
100
AcDbLine
 10
88.3877668125326
 20
26.85899935230176
 11
92.01554461253258
 21
26.85899935230176
  0
LINE
  5
10C
100
AcDbEntity
  8
Cancel
  6
ByLayer
 62
  256
370
   -1
100
AcDbLine
 10
88.28776681253261
 20
23.98399935230176
 11
99.59610021253262
 21
23.98399935230176
  0
LINE
  5
10D
100
AcDbEntity
  8
Cancel
  6
ByLayer
 62
  256
370
   -1
100
AcDbLine
 10
88.38776681253259
 20
24.08399935230176
 11
92.01554461253258
 21
24.08399935230176
  0
LINE
  5
10E
100
AcDbEntity
  8
Cancel
  6
ByLayer
 62
  256
370
   -1
100
AcDbLine
 10
92.11554461253257
 20
26.85899935230176
 11
95.79332241253258
 21
26.85899935230176
  0
LINE
  5
10F
100
AcDbEntity
  8
Cancel
  6
ByLayer
 62
  256
370
   -1
100
AcDbLine
 10
92.11554461253259
 20
24.08399935230176
 11
95.79332241253256
 21
24.08399935230176
  0
LINE
  5
110
100
AcDbEntity
  8
Cancel
  6
ByLayer
 62
  256
370
   -1
100
AcDbLine
 10
95.89332241253256
 20
26.85899935230176
 11
99.49610021253262
 21
26.85899935230176
  0
LINE
  5
111
100
AcDbEntity
  8
Cancel
  6
ByLayer
 62
  256
370
   -1
100
AcDbLine
 10
95.89332241253256
 20
24.08399935230176
 11
99.49610021253262
 21
24.08399935230176
  0
LINE
  5
112
100
AcDbEntity
  8
Columns
  6
ByLayer
 62
  256
370
   -1
100
AcDbLine
 10
84.20776681253261
 20
26.95899935230176
 11
84.20776681253261
 21
23.95899935230176
  0
LINE
  5
113
100
AcDbEntity
  8
Columns
  6
ByLayer
 62
  256
370
   -1
100
AcDbLine
 10
84.27026681253258
 20
26.95899935230176
 11
84.27026681253258
 21
23.95899935230176
  0
LINE
  5
114
100
AcDbEntity
  8
Columns
  6
ByLayer
 62
  256
370
   -1
100
AcDbLine
 10
84.30526681253264
 20
26.95899935230176
 11
84.30526681253264
 21
23.95899935230176
  0
LINE
  5
115
100
AcDbEntity
  8
Columns
  6
ByLayer
 62
  256
370
   -1
100
AcDbLine
 10
84.36776681253262
 20
26.95899935230176
 11
84.36776681253262
 21
23.95899935230176
  0
LINE
  5
116
100
AcDbEntity
  8
Columns
  6
ByLayer
 62
  256
370
   -1
100
AcDbLine
 10
90.70110014586594
 20
26.85899935230179
 11
90.70110014586594
 21
24.08399935230176
  0
LINE
  5
117
100
AcDbEntity
  8
Columns
  6
ByLayer
 62
  256
370
   -1
100
AcDbLine
 10
90.63860014586596
 20
26.85899935230179
 11
90.63860014586596
 21
24.08399935230176
  0
LINE
  5
118
100
AcDbEntity
  8
Columns
  6
ByLayer
 62
  256
370
   -1
100
AcDbLine
 10
90.60360014586593
 20
26.85899935230179
 11
90.60360014586593
 21
24.08399935230176
  0
LINE
  5
119
100
AcDbEntity
  8
Columns
  6
ByLayer
 62
  256
370
   -1
100
AcDbLine
 10
90.54110014586594
 20
26.85899935230179
 11
90.54110014586594
 21
24.08399935230176
  0
LINE
  5
11A
100
AcDbEntity
  8
Columns
  6
ByLayer
 62
  256
370
   -1
100
AcDbLine
 10
97.03443347919928
 20
26.85899935230179
 11
97.03443347919928
 21
24.08399935230176
  0
LINE
  5
11B
100
AcDbEntity
  8
Columns
  6
ByLayer
 62
  256
370
   -1
100
AcDbLine
 10
96.97193347919929
 20
26.85899935230176
 11
96.97193347919931
 21
24.08399935230176
  0
LINE
  5
11C
100
AcDbEntity
  8
Columns
  6
ByLayer
 62
  256
370
   -1
100
AcDbLine
 10
96.93693347919924
 20
26.85899935230176
 11
96.93693347919925
 21
24.08399935230176
  0
LINE
  5
11D
100
AcDbEntity
  8
Columns
  6
ByLayer
 62
  256
370
   -1
100
AcDbLine
 10
96.87443347919927
 20
26.85899935230176
 11
96.87443347919927
 21
24.08399935230176
  0
ENDSEC
  0
SECTION
  2
OBJECTS
  0
DICTIONARY
  5
C
330
0
100
AcDbDictionary
281
    1
  3
ACAD_GROUP
350
D
  0
DICTIONARY
  5
D
330
C
100
AcDbDictionary
281
    1
  0
ENDSEC
  0
EOF
